<svg width="216" height="188" fill="none" xmlns="http://www.w3.org/2000/svg"><path d="M191.742 75.875v101.888c0 .124-.006.247-.011.378 0 .059-.006.118-.012.177 0 .053-.005.112-.011.171 0 .024-.005.047-.005.07l-.018.113c-.006.088-.024.176-.035.265a3.233 3.233 0 01-.047.254c-.005.041-.018.083-.029.124a.245.245 0 01-.018.094.794.794 0 01-.029.124c-.018.077-.041.153-.058.224a.1.1 0 01-.011.041c-.04.13-.076.26-.122.383 0 .006 0 .013-.006.019-.023.064-.046.129-.069.189-.023.059-.047.112-.064.165-.005.018-.018.036-.018.048-.069.16-.139.324-.221.478a4.043 4.043 0 01-.081.159c-.029.054-.058.1-.088.154-.029.047-.052.1-.087.147a4.9 4.9 0 01-.186.295c-.041.065-.082.118-.117.177-.098.129-.192.26-.296.383a5.232 5.232 0 01-.227.266 5.181 5.181 0 01-.238.254c-.035.042-.076.077-.116.118-.035.035-.069.07-.111.1-.04.041-.087.083-.134.123-.011.012-.029.024-.041.036-.111.1-.227.195-.343.283a.156.156 0 00-.035.03c-.093.064-.186.136-.285.2-.035.024-.064.048-.093.065-.052.035-.105.071-.156.101a.916.916 0 01-.129.077 6.396 6.396 0 01-1.163.56c-.024.006-.04.019-.064.024-.023.006-.052.018-.076.024a6.008 6.008 0 01-.686.201l-.227.053c-.047.012-.098.018-.145.024l-.18.035c-.012 0-.018 0-.024.006l-.145.018c-.024 0-.047.006-.069.006a4.95 4.95 0 00-.128.017c-.023 0-.047.005-.076.005l-.268.019c-.128.005-.256.011-.384.011H7.184c-.127 0-.256-.006-.383-.011l-.267-.019a2.491 2.491 0 01-.297-.035 1.113 1.113 0 01-.168-.024 4.517 4.517 0 01-.413-.077c-.04-.005-.076-.018-.116-.029a5.872 5.872 0 01-.436-.118c-.087-.03-.169-.053-.25-.083a7.857 7.857 0 01-1.13-.501l-.26-.16a7.318 7.318 0 01-2.914-3.441c-.047-.118-.093-.249-.14-.373-.047-.123-.082-.254-.122-.383a10.307 10.307 0 01-.175-.755c-.005-.018-.005-.041-.01-.059a7.876 7.876 0 01-.048-.36c-.005-.006-.005-.018-.005-.03a4.564 4.564 0 01-.024-.276 5.715 5.715 0 01-.023-.555V75.875c0-.874.15-1.712.43-2.491A7.282 7.282 0 012.62 70.25a.339.339 0 01.047-.035l.373-.29a7.057 7.057 0 014.146-1.34h177.375c.175 0 .344.007.512.025a.256.256 0 01.093.005c.163.012.332.03.489.054.034.005.076.011.11.018.14.023.28.053.413.088.034.006.069.012.105.024.168.04.332.088.494.142a6.269 6.269 0 011.064.454c.111.054.221.113.325.178.187.106.367.224.536.353.005-.005.005 0 .005 0l.372.29c.018.012.035.023.047.035.099.077.187.16.274.242.069.059.134.123.198.189.198.195.383.401.559.626.081.1.156.2.226.3.303.42.559.874.763 1.358.058.13.11.266.163.402 0 .006.005.011.005.018a6.6 6.6 0 01.204.667c.029.112.052.219.076.33.018.088.035.171.047.26.017.088.029.177.04.265.018.107.029.212.035.319.011.088.018.183.018.271.002.123.008.253.008.377z" fill="#DFE5EA"/><path d="M191.311 73.382H.431a7.282 7.282 0 012.187-3.133.331.331 0 01.047-.036l.372-.289L91.472 1.798a7.185 7.185 0 018.8 0L188.7 69.924c.006-.006.006 0 .006 0l.372.29c.018.012.035.023.047.035.099.077.187.16.274.241.069.06.134.124.198.19.198.194.383.401.558.625.082.1.157.201.227.301.303.419.559.874.763 1.358.058.13.11.265.163.401-.002.006.003.012.003.017z" fill="#5B97EF"/><g filter="url(#filter0_d_120_218)"><path d="M177.566 179.433H10.991V26.049C10.991 18.843 16.748 13 23.85 13h140.859c7.101 0 12.858 5.842 12.858 13.049v153.384z" fill="#fff"/></g><path d="M155.887 50.141H33.489c-1.715 0-3.118-1.423-3.118-3.163v-1.346c0-1.74 1.403-3.163 3.118-3.163h122.398c1.715 0 3.117 1.423 3.117 3.163v1.346c.001 1.74-1.402 3.163-3.117 3.163zm0 16.394H33.489c-1.715 0-3.118-1.423-3.118-3.163v-1.346c0-1.74 1.403-3.164 3.118-3.164h122.398c1.715 0 3.117 1.424 3.117 3.164v1.346c.001 1.739-1.402 3.163-3.117 3.163zm0 16.393H33.489c-1.715 0-3.118-1.424-3.118-3.164V78.42c0-1.74 1.403-3.164 3.118-3.164h122.398c1.715 0 3.117 1.424 3.117 3.164v1.345c.001 1.74-1.402 3.164-3.117 3.164zm0 16.391H33.489c-1.715 0-3.118-1.424-3.118-3.165V94.81c0-1.74 1.403-3.163 3.118-3.163h122.398c1.715 0 3.117 1.423 3.117 3.163v1.345c.001 1.74-1.402 3.165-3.117 3.165zm0 16.392H33.489c-1.715 0-3.118-1.423-3.118-3.163v-1.346c0-1.74 1.403-3.163 3.118-3.163h122.398c1.715 0 3.117 1.423 3.117 3.163v1.346c.001 1.74-1.402 3.163-3.117 3.163z" fill="#E4ECF9"/><path d="M95.875 129.551v.006c-.28.307-.61.59-.99.827L7.58 185.052h-.396a6.944 6.944 0 01-2.082-.313c-.093-.03-.186-.059-.274-.089a7.109 7.109 0 01-3.187-2.255 6.625 6.625 0 01-.6-.856c-.063-.1-.116-.201-.174-.301-.052-.106-.11-.212-.156-.318a7.34 7.34 0 01-.71-3.158V75.875c0-.874.15-1.712.43-2.491a7.282 7.282 0 012.188-3.134.339.339 0 01.046-.035l.373-.29a7.057 7.057 0 014.146-1.34h1.64l7.666 4.8 70.667 44.251 2.658 1.664 5.072 3.176c.377.235.71.519.989.825v.006c1.576 1.753 1.576 4.498 0 6.244z" fill="#3B82F4"/><path d="M191.742 75.874v101.888c0 .124-.006.247-.011.378 0 .059-.006.118-.012.177 0 .053-.005.112-.011.171 0 .024-.005.047-.005.07l-.018.113c-.006.088-.024.177-.035.265a3.233 3.233 0 01-.047.254c0 .011-.005.03-.005.041-.006.024-.012.053-.024.083a.245.245 0 01-.018.094.794.794 0 01-.029.124c-.018.077-.034.147-.058.224a4.275 4.275 0 01-.133.424c0 .006 0 .013-.006.019-.023.064-.041.123-.069.189-.018.053-.041.106-.064.165a.743.743 0 00-.018.048c-.069.16-.139.324-.221.478a4.043 4.043 0 01-.081.159c-.029.054-.058.1-.088.154-.029.047-.052.1-.087.147a4.9 4.9 0 01-.186.295c-.041.065-.082.118-.117.177a8.935 8.935 0 01-.523.649 5.181 5.181 0 01-.238.254c-.035.042-.076.077-.116.118-.035.035-.069.07-.111.1-.04.041-.087.083-.134.124-.011.011-.029.023-.041.035-.111.1-.227.195-.343.283a.156.156 0 00-.035.03c-.093.064-.186.136-.285.201-.035.023-.064.047-.093.064-.052.035-.105.071-.156.101a.916.916 0 01-.129.077c-.047.03-.092.059-.139.083a6.489 6.489 0 01-1.024.478c-.024.005-.047.018-.064.023-.023.006-.052.018-.076.024a5.873 5.873 0 01-.686.201l-.227.053c-.047.012-.098.018-.145.024l-.18.035h-.018c-.053.006-.105.018-.151.024-.024 0-.047.006-.069.006l-.128.017c-.023 0-.047.005-.076.005l-.268.019c-.128.005-.256.011-.383.011h-.396l-87.307-54.668a4.528 4.528 0 01-.982-.827v-.006c-1.582-1.753-1.582-4.486 0-6.245v-.006c.273-.306.604-.589.982-.825l5.066-3.176 2.658-1.664 70.672-44.251 7.665-4.8h1.64c.174 0 .343.007.512.025a.251.251 0 01.092.005c.163.012.332.03.489.054.034.005.076.011.11.018.14.024.28.053.413.088a6.404 6.404 0 01.599.165 6.269 6.269 0 011.064.456c.111.053.221.112.325.177.187.106.367.224.536.354.005-.006.005 0 .005 0l.373.289a.498.498 0 01.046.035c.099.077.187.16.274.242.07.059.134.123.198.189.198.195.383.401.559.626a6.841 6.841 0 01.989 1.658c.058.13.111.266.163.402 0 .006.006.011.006.018a6.85 6.85 0 01.279.997c.018.089.035.171.047.26.017.088.029.177.04.265.018.107.029.213.035.319.011.088.018.183.018.271.005.125.011.255.011.379z" fill="#3B82F4"/><path opacity=".29" d="M191.742 176.381v1.06c0 4.202-3.217 7.609-7.184 7.609H7.184c-3.967 0-7.183-3.407-7.183-7.609v-1.06l91.232-60.915a8.285 8.285 0 019.271 0l91.238 60.915z" fill="#474747" fill-opacity=".1"/><path d="M191.742 176.747v1.015c0 4.026-3.217 7.289-7.184 7.289H7.184c-3.967 0-7.183-3.264-7.183-7.289v-1.015l91.232-58.358a8.59 8.59 0 019.271 0l91.238 58.358z" fill="#5B97EF"/><path d="M86.869 33.748h-53.38c-1.715 0-3.118-1.423-3.118-3.164V29.24c0-1.74 1.403-3.164 3.118-3.164h53.38c1.715 0 3.117 1.424 3.117 3.164v1.345c0 1.74-1.402 3.164-3.117 3.164z" fill="#3B82F4"/><path opacity=".1" d="M206.482 58.62c-.072-1.147-1.056-2.025-2.185-1.952l-79.369 5.12c-1.13.072-1.996 1.07-1.924 2.218l2.05 32.718c.072 1.147 1.055 2.026 2.185 1.953l79.369-5.12c1.129-.073 1.996-1.07 1.923-2.217l-2.049-32.72z" fill="#232323"/><path d="M208.614 90.549l-79.368 5.12c-1.13.073-2.113-.806-2.185-1.953l-2.05-32.718c-.072-1.146.794-2.145 1.924-2.218l79.368-5.12c1.13-.073 2.114.806 2.186 1.953l2.049 32.718c.072 1.147-.794 2.145-1.924 2.218z" fill="#fff"/><path d="M200.216 63.498l-34.635 2.234c-.893.058-1.671-.638-1.728-1.544l-.005-.083c-.057-.907.628-1.697 1.521-1.754l34.635-2.234c.893-.058 1.671.638 1.728 1.545l.005.082c.057.907-.628 1.696-1.521 1.754zm.461 7.372l-34.635 2.235c-.893.058-1.671-.638-1.727-1.544l-.006-.083c-.057-.907.628-1.697 1.521-1.754l34.635-2.234c.893-.058 1.671.638 1.728 1.545l.005.082c.058.907-.627 1.697-1.521 1.754zm.462 7.377l-34.634 2.234c-.893.058-1.672-.638-1.728-1.544l-.005-.083c-.058-.907.628-1.697 1.521-1.754l34.634-2.234c.894-.058 1.672.638 1.728 1.544l.006.083c.057.907-.628 1.696-1.522 1.754zm.462 7.373l-34.634 2.234c-.894.058-1.672-.638-1.728-1.545l-.006-.082c-.057-.907.629-1.697 1.522-1.754l34.634-2.234c.894-.058 1.672.638 1.728 1.544l.006.083c.057.907-.628 1.697-1.522 1.754zm-46.005 1.495c5.97-6.058 5.97-15.88 0-21.939a15.129 15.129 0 00-21.618 0c-5.97 6.058-5.97 15.88 0 21.94a15.129 15.129 0 0021.618 0z" fill="#ECF3FE"/><path d="M152.834 85.698a12.06 12.06 0 01-8.716 3.047 11.982 11.982 0 01-6.115-2.09 7.093 7.093 0 014.029-3.74h.002l.005-.001c.307-.111.626-.2.954-.266l.04-.008c.287-.058.582-.096.883-.115l2.539-.164a6.778 6.778 0 011.911.146h.003v.002c1.861.406 3.472 1.579 4.465 3.189z" fill="#727272"/><path d="M151.56 70.374l.521 8.3c.114 1.83-1.252 3.406-3.054 3.522l-7.688.495c-1.8.117-3.353-1.272-3.469-3.1l-.52-8.3c-.462-7.372 6.664-7.498 6.664-7.498s1.844-.205 3.713.573c1.671.694 3.364 2.18 3.766 5.306.03.225.052.459.067.702z" fill="#302F2F"/><path d="M147.302 81.081l.153 2.44c.064 1.035-.87 1.946-2.078 2.024-1.207.078-2.248-.706-2.313-1.74l-.152-2.44a1.707 1.707 0 01.38-1.169 2.161 2.161 0 01.684-.569c.298-.16.643-.263 1.013-.286.37-.024.726.032 1.042.154a2.188 2.188 0 01.749.477c.303.297.496.682.522 1.109z" fill="#F4B698"/><path opacity=".28" d="M150.534 72.326l.222 3.554a5.853 5.853 0 01-3.422 5.7l.059.937a5.594 5.594 0 01-1.939.48l-.469.03a5.585 5.585 0 01-1.983-.228l-.059-.937a5.825 5.825 0 01-4.106-5.213l-.222-3.554a5.85 5.85 0 011.577-4.351 5.67 5.67 0 013.785-1.802l.469-.03a5.647 5.647 0 013.639 1.038h.001a5.848 5.848 0 012.448 4.376z" fill="#000"/><path d="M150.476 71.415l.279 4.465a5.845 5.845 0 01-.809 3.36l-.003.003a6.197 6.197 0 01-.449.649 5.78 5.78 0 01-2.162 1.688 5.616 5.616 0 01-1.938.48l-.469.03a5.551 5.551 0 01-1.981-.227 5.826 5.826 0 01-4.108-5.214l-.278-4.441a3.832 3.832 0 01-.007-.186 5.851 5.851 0 012.298-4.865 5.645 5.645 0 013.068-1.153l.469-.03a5.63 5.63 0 013.531.967 5.889 5.889 0 011.84 2.011 5.78 5.78 0 01.719 2.463z" fill="#F4B698"/><path d="M152.917 73.62c.08 1.286-.881 2.394-2.148 2.476l-.292-4.654a2.254 2.254 0 01.912.128 2.323 2.323 0 011.528 2.05z" fill="#F4B698"/><path d="M152.043 73.675a1.438 1.438 0 01-1.33 1.533l-.181-2.882a1.43 1.43 0 011.511 1.35z" fill="#E29586"/><path d="M148.368 82.507v.002l-1.342 6.05a12.063 12.063 0 01-2.908.187l-2.086-5.829v-.002l1.212-.078.046.042 2.038 1.884 1.79-2.13.04-.048 1.21-.078z" fill="#565656"/><path d="M138.559 72.208l.292 4.654c-1.266.082-2.358-.893-2.439-2.18a2.33 2.33 0 011.742-2.41l.057-.012c.113-.026.228-.045.348-.052z" fill="#F4B698"/><path d="M137.285 74.627c.05.795.726 1.4 1.51 1.35l-.181-2.883a1.438 1.438 0 00-1.329 1.533z" fill="#E29586"/><path d="M150.218 87.48a11.45 11.45 0 01-1.499.633l-.034-.534 1.533-.098z" fill="#565656"/><path opacity=".2" d="M145.327 84.764l1.781 1.116 1.26-3.373-3.041 2.257z" fill="#363636"/><path d="M148.368 82.507l-1.297 3.26-1.744-1.004 1.829-2.178.239-.284.973.206z" fill="#EEE"/><path opacity=".2" d="M142.032 82.913l1.655 3.186 1.64-1.337-3.295-1.849z" fill="#363636"/><path d="M145.327 84.764l-1.602 1.219-1.693-3.068.939-.328.272.25 2.084 1.927z" fill="#EEE"/><path d="M151.55 70.219c-4.253.588-4.092-3.36-3.766-5.306 1.671.694 3.364 2.18 3.766 5.306z" fill="#302F2F"/><path d="M149.155 66.95c-.132.248-1.436 3.033-4.086 3.205-2.651.17-6.758 2.058-6.719 4.745.039 2.686-3.831-7.966 4.165-9.332 7.996-1.366 6.64 1.382 6.64 1.382z" fill="#302F2F"/><path opacity=".1" d="M213.599 52.34l-7.618-31.86c-.267-1.118-1.385-1.81-2.486-1.538l-77.286 19.03c-1.101.272-1.782 1.407-1.515 2.524l7.617 31.86c.267 1.117 1.386 1.808 2.487 1.537l77.286-19.03c1.099-.272 1.782-1.407 1.515-2.524z" fill="#232323"/><path d="M213.821 51.98l-77.286 19.03c-1.101.271-2.219-.421-2.487-1.537l-7.617-31.86c-.267-1.117.415-2.252 1.515-2.523l77.286-19.031c1.101-.271 2.219.421 2.487 1.537l7.617 31.86c.267 1.116-.414 2.252-1.515 2.523z" fill="#A51C30"/><path d="M159.076 59.945c5.915-6.002 5.915-15.734 0-21.737a14.99 14.99 0 00-21.419 0c-5.915 6.003-5.915 15.735 0 21.737a14.99 14.99 0 0021.419 0z" fill="#fff"/><path d="M151.413 62.626c-.086.02-.166.04-.249.051l-.004.001a12.731 12.731 0 01-7.365-.615c.44-1.946 1.675-3.66 3.412-4.66h.005c.287-.167.588-.314.901-.434.286-.114.584-.212.893-.288l2.493-.613c.305-.076.614-.128.92-.16h.004c.332-.038.666-.049.997-.035a7.009 7.009 0 013.87 1.361c.425.31.816.675 1.166 1.074a12.961 12.961 0 01-6.068 4.053c-.11.037-.221.069-.337.097-.017.009-.035.014-.052.019h-.005a.21.21 0 01-.071.019.159.159 0 01-.063.015c-.083.03-.173.052-.262.074l-.062.015-.076.02-.023.005h-.024zm-10.066-14.521s-2.828-8.366 1.742-9.67c4.571-1.303 6.17-2.953 7.368-2.83 1.198.124 3.904 7.691 3.973 9.279.07 1.586-13.083 3.22-13.083 3.22z" fill="#002349"/><path d="M152.119 54.647l.573 2.394c.242 1.014-.528 2.084-1.712 2.375-1.184.292-2.353-.3-2.595-1.316l-.573-2.393c-.1-.42-.028-.847.176-1.227.047-.088.101-.175.162-.256.117-.158.257-.302.417-.429.269-.212.593-.375.957-.464.363-.09.725-.096 1.059-.033.2.038.39.101.564.187l.027.013c.081.042.16.089.234.14.353.243.61.59.711 1.009z" fill="#F4CB95"/><path d="M153.814 45.389l.834 3.487a5.929 5.929 0 01-2.412 6.261l.22.92a5.685 5.685 0 01-1.84.82l-.461.114a5.614 5.614 0 01-2.006.126l-.22-.92a5.83 5.83 0 01-4.972-4.442l-.833-3.487a5.911 5.911 0 01.814-4.596 5.749 5.749 0 013.445-2.458l.46-.113a5.672 5.672 0 013.789.383h.001a5.841 5.841 0 013.181 3.905z" fill="#D8A471"/><path d="M153.6 44.5l1.047 4.38a5.888 5.888 0 01-.126 3.201 5.43 5.43 0 01-.175.462 5.897 5.897 0 01-2.108 2.595 5.75 5.75 0 01-1.844.822l-.457.112c-.675.167-1.355.2-2.006.126a5.829 5.829 0 01-4.972-4.441l-1.087-4.544a5.93 5.93 0 011.446-5.23 5.704 5.704 0 012.846-1.688l.458-.113a5.526 5.526 0 012.597-.02 5.264 5.264 0 011.073.35 5.844 5.844 0 013.308 3.987z" fill="#F4CB95"/><path d="M156.403 46.25c.302 1.26-.463 2.53-1.704 2.835l-1.091-4.565a2.261 2.261 0 01.926-.034c.886.15 1.644.82 1.869 1.763z" fill="#EDC28E"/><path d="M155.546 46.46a1.457 1.457 0 01-1.055 1.757l-.676-2.827c.769-.19 1.544.29 1.731 1.07z" fill="#D8A471"/><path d="M141.917 47.4l1.091 4.565c-1.241.305-2.493-.468-2.794-1.73a2.363 2.363 0 011.312-2.7l.054-.022c.108-.046.22-.085.337-.113z" fill="#EDC28E"/><path d="M141.07 50.026c.187.78.962 1.26 1.731 1.07l-.676-2.827c-.77.19-1.241.976-1.055 1.757z" fill="#D8A471"/><path d="M153.6 44.498l1.047 4.38a5.868 5.868 0 01-.301 3.664c-.858-8.535-2.511-9.396-4.439-8.904-2.076.523-3.168-1.955-3.168-1.955l2.973-1.39c.197.062.389.132.58.219a5.838 5.838 0 013.308 3.986z" fill="#E5B67F"/><path d="M153.079 58.656l.774.814-1.465 2.89c-.11.037-.221.069-.337.097a.261.261 0 01-.053.018l-.004.002a.212.212 0 01-.071.018l.688-4.436.002-.01.114-.731.004-.006.01-.075-.282-1.18 1.685 1.757-1.008.797-.057.045z" fill="#CC8E2B"/><path d="M151.534 62.598l.063-.015c.089-.022.179-.044.262-.075a.162.162 0 00.063-.015.181.181 0 00.071-.018h.005l.168-.523.892-2.812-.174-.731.397-.637-.496-.926s-.021.087-.08.24l-.006.012.002.01c-.153.431-.533 1.318-1.228 1.937a2.86 2.86 0 01-.503.355 2.931 2.931 0 01-.828-.152c-.806-.259-1.447-.803-1.739-1.091l-.007-.008a2.382 2.382 0 01-.18-.177l-.022 1.054.64.38.175.732 1.774 1.795.671.681.005.004.075-.02z" fill="#fff"/><path d="M153.136 58.613l.717.858-1.802 2.987c-.017.009-.035.013-.053.018l-.004.001a.207.207 0 01-.072.018.15.15 0 01-.062.015l.664-4.256-.001-.005.178-1.14-.002-.01.006-.01-.282-1.182 1.722 1.909-1.101.69.092.107z" fill="#E4ECF9"/><path d="M151.413 62.623c-.086.021-.166.041-.249.052h-.004l-2.71-1.877.319-1.083-.07-.012-1.256-.239.704-2.347.247 1.032.035.15.007.008.023.033.006.007.446.617.001.005 2.622 3.63-.076.019-.023.005h-.022z" fill="#CC8E2B"/><path d="M151.413 62.625l-2.962-1.825.25-1.095.033-.14-1.289-.1.668-2.497.036.15.246 1.031.007.008.68.939v.005l2.516 3.483-.063.015-.076.02-.022.005h-.024z" fill="#E4ECF9"/><path d="M149.915 39.369s-3.014-.168-3.558-.035-1.229.372-2.244.9c-1.015.53-2.354 2.117-2.354 2.117l-.164.663c-.126.22-.252.466-.247.527.004.057.009.245.013.416l-.136.547c.032-.022.11-.069.202-.133l.256.43c.016-.01.355-.962 1.206-1.735 1.12-.748 2.744-1.267 4.122-.685 2.504 1.058 6.243-.839 6.243-.839l-3.339-2.173z" fill="#002349"/><path d="M200.844 26.494l-33.726 8.304a1.632 1.632 0 01-1.966-1.216l-.019-.08c-.211-.884.328-1.782 1.198-1.996l33.726-8.304a1.632 1.632 0 011.966 1.216l.019.08c.211.884-.328 1.782-1.198 1.996z" fill="#fff"/><path d="M202.56 33.675l-33.726 8.305a1.632 1.632 0 01-1.966-1.216l-.019-.081c-.211-.883.328-1.781 1.198-1.995l33.725-8.305a1.632 1.632 0 011.966 1.216l.02.081c.211.883-.328 1.781-1.198 1.995zm1.717 7.182l-33.726 8.304a1.632 1.632 0 01-1.966-1.216l-.02-.08c-.211-.884.328-1.782 1.198-1.996l33.726-8.304a1.632 1.632 0 011.966 1.216l.02.08a1.658 1.658 0 01-1.198 1.996zm1.716 7.181l-33.725 8.304a1.632 1.632 0 01-1.966-1.216l-.02-.08c-.211-.883.328-1.782 1.198-1.996l33.726-8.304a1.632 1.632 0 011.966 1.216l.02.08c.211.884-.328 1.782-1.199 1.996z" fill="#fff" fill-opacity=".8"/><defs><filter id="filter0_d_120_218" x="6.991" y="13" width="174.575" height="174.433" filterUnits="userSpaceOnUse" color-interpolation-filters="sRGB"><feFlood flood-opacity="0" result="BackgroundImageFix"/><feColorMatrix in="SourceAlpha" values="0 0 0 0 0 0 0 0 0 0 0 0 0 0 0 0 0 0 127 0" result="hardAlpha"/><feOffset dy="4"/><feGaussianBlur stdDeviation="2"/><feComposite in2="hardAlpha" operator="out"/><feColorMatrix values="0 0 0 0 0 0 0 0 0 0 0 0 0 0 0 0 0 0 0.1 0"/><feBlend in2="BackgroundImageFix" result="effect1_dropShadow_120_218"/><feBlend in="SourceGraphic" in2="effect1_dropShadow_120_218" result="shape"/></filter></defs></svg>