<svg width="220" height="204" viewBox="0 0 220 204" fill="none" xmlns="http://www.w3.org/2000/svg">
<path d="M205.743 114.037C205.743 146.981 187.971 175.943 161.494 191.51C161.494 191.51 161.313 191.691 161.131 191.691C159.318 192.777 157.504 193.682 155.691 194.587C154.784 195.13 153.878 195.492 152.971 195.854C152.608 196.035 152.245 196.216 151.883 196.397H151.701C151.339 196.578 150.795 196.759 150.432 196.94C147.712 198.207 144.81 199.113 141.908 200.018C141.546 200.199 141.002 200.38 140.639 200.38C140.458 200.38 140.276 200.561 140.095 200.561C139.914 200.561 139.732 200.561 139.732 200.742C139.551 200.742 139.37 200.742 139.188 200.923C135.38 202.009 131.39 202.733 127.219 203.276C123.411 203.819 119.603 204 115.794 204C109.628 204 103.644 203.457 97.8407 202.19C97.478 202.19 97.1153 202.009 96.7526 202.009C95.4831 201.828 94.2137 201.466 92.9442 201.104C91.6748 200.742 90.4054 200.38 89.1359 200.018C84.0581 198.388 78.9804 196.397 74.2653 194.044C45.2495 179.02 25.4824 148.791 25.4824 114.037C25.4824 64.2589 65.9232 24.0743 115.613 24.0743C165.484 24.0743 205.743 64.2589 205.743 114.037Z" fill="#141B4D"/>
<path d="M107.814 73.1288C99.1093 66.0693 94.5756 54.3036 96.2077 43.2619C98.0212 30.7721 106.907 28.4189 111.441 30.41C114.705 31.8581 116.7 36.2024 114.887 39.4606C111.804 45.253 100.016 42.8998 97.6585 32.9442C96.7518 29.324 97.6585 25.3417 99.8347 22.2645C103.462 17.3772 110.172 15.5671 116.156 14.662C117.426 14.481 118.876 14.3 120.327 14.119C123.591 13.757 127.581 13.2139 131.752 12.6709" stroke="#BFD3CC" stroke-miterlimit="10" stroke-linecap="round" stroke-linejoin="round"/>
<path d="M140.819 15.0239L135.197 17.5581L136.104 7.96448" fill="#1D634A" fill-opacity="0.2"/>
<path d="M176.908 3.25821L174.369 4.7063L144.991 21.1784L137.374 9.95564L136.105 7.96451L130.664 0L172.193 2.89618L176.908 3.25821Z" fill="#E8EFED"/>
<path d="M176.909 3.25826L174.37 4.70636L137.375 9.95569L136.105 7.96456L172.194 2.89624L176.909 3.25826Z" fill="#1D634A" fill-opacity="0.2"/>
<path d="M28.6885 61.3096C31.0698 60.5371 32.3727 57.9841 31.5987 55.6073C30.8248 53.2305 28.267 51.93 25.8858 52.7025C23.5046 53.475 22.2016 56.028 22.9756 58.4048C23.7496 60.7816 26.3073 62.0821 28.6885 61.3096Z" fill="#E8EFED"/>
<path d="M38.5838 46.5446C40.203 46.0193 41.089 44.2832 40.5628 42.667C40.0365 41.0508 38.2972 40.1665 36.678 40.6918C35.0587 41.2171 34.1727 42.9531 34.699 44.5694C35.2253 46.1856 36.9646 47.0699 38.5838 46.5446Z" fill="#E8EFED"/>
<path d="M75.836 25.2898C78.6455 22.7271 78.8418 18.3762 76.2743 15.5719C73.7068 12.7676 69.3478 12.5718 66.5383 15.1345C63.7288 17.6972 63.5325 22.048 66.1 24.8523C68.6675 27.6566 73.0264 27.8525 75.836 25.2898Z" fill="#E8EFED"/>
<path d="M217.43 60.5819C218.613 59.5028 218.695 57.6709 217.614 56.4901C216.533 55.3093 214.698 55.2269 213.515 56.3059C212.332 57.385 212.249 59.2169 213.33 60.3977C214.411 61.5784 216.247 61.6609 217.43 60.5819Z" fill="#E8EFED"/>
<path d="M142.815 150.783V200.561C142.453 200.742 142.09 200.742 141.727 200.923C137.556 202.009 133.204 202.914 128.852 203.457V150.783H142.815Z" fill="#4988FD"/>
<path d="M142.815 150.783V200.561C142.453 200.742 142.09 200.742 141.727 200.923C137.556 202.009 133.204 202.914 128.852 203.457V150.783H142.815Z" fill="white"/>
<path d="M155.691 150.783V194.769C154.784 195.312 153.877 195.674 152.97 196.036C152.608 196.217 152.245 196.398 151.882 196.579H151.701C151.338 196.76 150.794 196.941 150.432 197.122C147.711 198.389 144.81 199.294 141.908 200.199V150.783H155.691Z" fill="#2767F4"/>
<path d="M155.691 150.783V194.769C154.784 195.312 153.877 195.674 152.97 196.036C152.608 196.217 152.245 196.398 151.882 196.579H151.701C151.338 196.76 150.794 196.941 150.432 197.122C147.711 198.389 144.81 199.294 141.908 200.199V150.783H155.691Z" fill="#E8EFED"/>
<path opacity="0.4" d="M155.691 150.783H128.852V166.35H155.691V150.783Z" fill="#E8EFED"/>
<path d="M212.635 95.7552V151.507H169.112V151.688H81.8828V51.5884H164.759C165.847 51.4073 166.935 51.4073 168.205 51.4073C169.656 51.4073 170.925 51.4073 172.376 51.5884C174.189 51.7694 175.822 51.9504 177.454 52.3124C185.977 54.1225 193.594 58.4668 199.578 64.2592C207.739 72.4047 212.635 83.6274 212.635 95.7552Z" fill="#F0EAE0"/>
<path d="M177.998 107.521C183.506 107.521 187.972 103.064 187.972 97.5653C187.972 92.0669 183.506 87.6096 177.998 87.6096C172.489 87.6096 168.023 92.0669 168.023 97.5653C168.023 103.064 172.489 107.521 177.998 107.521Z" fill="white"/>
<path d="M182.894 88.6957C185.977 90.3248 188.153 93.7641 188.153 97.5653C188.153 103.177 183.62 107.521 178.179 107.521C172.557 107.521 168.205 102.996 168.205 97.5653C168.205 95.0311 169.112 92.859 170.563 91.0489" stroke="#182052" stroke-miterlimit="10" stroke-linecap="round" stroke-linejoin="round"/>
<path d="M125.224 91.4109V151.688H36.3633V91.4109C36.3633 72.4047 49.7831 56.4757 67.5553 52.4934C70.4569 51.7694 73.3585 51.5884 76.4414 51.5884H85.5089C105.457 51.5884 121.96 66.0693 125.043 85.2565C125.043 87.0666 125.224 89.2388 125.224 91.4109Z" fill="#F0EAE0"/>
<path d="M175.82 49.2351H180.898V97.2032C180.898 98.6513 179.81 99.7373 178.359 99.7373C176.908 99.7373 175.82 98.6513 175.82 97.2032V59.0097" fill="white"/>
<path d="M175.82 49.2351H180.898V97.2032C180.898 98.6513 179.81 99.7373 178.359 99.7373C176.908 99.7373 175.82 98.6513 175.82 97.2032V59.0097" stroke="#182052" stroke-miterlimit="10" stroke-linecap="round" stroke-linejoin="round"/>
<path d="M204.474 48.5111C205.199 49.0542 204.836 50.3213 203.748 50.3213H180.173H174.732V30.591H203.748C204.655 30.591 205.199 31.6771 204.474 32.4011L196.857 38.7365C195.769 39.6416 195.769 41.2707 196.857 42.1757L204.474 48.5111Z" fill="#C33130"/>
<path d="M104.369 185.718C101.83 189.519 98.7472 195.673 96.9337 200.923C96.7524 201.285 96.571 201.828 96.571 202.19C95.3016 202.009 94.0322 201.647 92.7627 201.285C91.6746 198.75 90.9492 196.035 90.9492 196.035C91.6746 195.13 92.2187 194.406 92.9441 193.682C96.3897 189.338 100.017 186.442 104.369 185.718Z" fill="#BFD3CC"/>
<path d="M97.6586 202.371C97.2959 202.371 96.9332 202.19 96.5705 202.19C95.301 202.009 94.0316 201.647 92.7621 201.285C91.8554 201.104 91.13 200.742 90.2232 200.561C89.8605 200.38 89.4979 200.38 89.1352 200.199C88.7725 200.018 88.4098 200.018 87.8657 199.837C83.1506 198.389 78.6169 196.397 74.2645 194.225C69.7308 186.623 67.1919 177.21 62.8395 164.358C62.8395 164.177 62.8396 164.177 62.6582 163.996C62.6582 163.996 63.0209 163.996 63.9276 164.358C64.4717 164.72 65.3784 165.082 66.4665 165.807C68.6427 167.255 72.0884 169.789 77.1661 173.952C83.5133 179.201 88.9538 186.985 92.7621 193.501C94.3943 196.397 95.8451 198.932 96.9332 200.923C97.2959 201.285 97.4772 201.828 97.6586 202.371Z" fill="#E8EFED"/>
<path d="M90.2232 200.38C89.8605 200.199 89.4979 200.199 89.1352 200.018C88.7725 199.837 88.4098 199.837 87.8657 199.656C79.5237 182.822 70.0935 172.142 64.4717 165.988C63.9276 165.264 63.3836 164.72 62.8395 164.177C62.8395 163.996 62.8396 163.996 62.6582 163.815C62.6582 163.815 63.0209 163.815 63.9276 164.177C64.4717 164.539 65.3784 164.901 66.4665 165.626C72.2697 172.142 81.8812 183.184 90.2232 200.38Z" fill="#BFD3CC"/>
<path d="M142.814 200.561C142.995 200.561 142.995 200.561 143.177 200.561C142.995 200.561 142.633 200.742 142.451 200.742C142.451 200.561 142.633 200.561 142.814 200.561Z" fill="#D5DAE8"/>
<path d="M143.359 200.38C143.54 200.38 143.54 200.38 143.721 200.199C143.54 200.199 143.177 200.38 142.996 200.38C143.177 200.38 143.177 200.38 143.359 200.38Z" fill="#D5DAE8"/>
<path d="M175.094 160.738C175.094 160.738 174.912 161.1 174.549 161.824C172.373 165.807 164.938 179.564 161.492 191.329C161.492 191.329 161.311 191.51 161.13 191.51C159.316 192.596 157.503 193.501 155.689 194.407C154.782 194.95 153.876 195.312 152.969 195.674C152.606 195.855 152.244 196.036 151.881 196.217H151.699C151.337 196.398 150.793 196.579 150.43 196.76C147.71 198.027 144.808 198.932 141.907 199.837C141.544 200.018 141 200.199 140.637 200.199C140.456 200.199 140.275 200.38 140.093 200.38C139.912 200.38 139.73 200.38 139.73 200.561C140.456 198.208 141.181 195.855 142.088 193.864C144.808 186.804 148.254 181.193 152.244 176.486C153.513 175.038 154.782 173.59 156.052 172.323C161.311 167.074 166.933 163.635 172.192 161.824C172.917 161.462 174.005 161.1 175.094 160.738Z" fill="#E8EFED"/>
<path d="M175.095 160.738C175.095 160.738 174.914 161.1 174.551 161.824C167.66 167.798 161.313 177.21 155.691 189.338C154.784 191.51 153.877 193.501 152.971 195.855C152.608 196.036 152.245 196.217 151.882 196.398H151.701C151.338 196.579 150.794 196.76 150.432 196.941C150.613 196.579 150.794 196.398 150.794 196.398C152.426 192.415 154.059 188.614 155.691 185.175C160.587 175.219 166.028 167.255 171.831 161.824C172.919 161.462 174.007 161.1 175.095 160.738Z" fill="#BFD3CC"/>
<path d="M140.096 199.113C140.64 197.303 141.184 195.674 141.909 194.045C144.629 186.985 148.075 181.374 152.065 176.667C153.334 175.219 154.604 173.771 155.873 172.504C161.132 167.255 166.754 163.816 172.013 162.006C173.101 161.643 174.189 161.281 175.277 160.919C175.277 160.919 175.096 161.281 174.733 162.006C172.739 165.807 166.029 178.116 162.402 189.519" stroke="#BFD3CC" stroke-miterlimit="10" stroke-linecap="round" stroke-linejoin="round"/>
<path d="M150.069 200.742C149.706 201.647 149.525 202.552 149.162 203.457" stroke="white" stroke-miterlimit="10"/>
<path d="M72.9951 191.872C69.1868 184.632 66.6479 175.762 62.8395 163.996C62.8395 163.815 62.8396 163.815 62.6582 163.634C62.6582 163.634 63.0209 163.634 63.9276 163.996C64.4717 164.358 65.3784 164.72 66.4665 165.445C68.6427 166.893 72.0884 169.427 77.1661 173.59C83.5133 178.839 88.9538 186.623 92.7621 193.139C94.3943 196.035 95.8451 198.57 96.9332 200.561" stroke="#BFD3CC" stroke-miterlimit="10" stroke-linecap="round" stroke-linejoin="round"/>
<path d="M125.224 85.0755C122.141 66.0693 105.276 51.4073 85.3275 51.4073H76.2601C73.1771 51.4073 70.2755 51.7694 67.374 52.3124C54.6795 55.2086 44.3426 64.0782 39.2649 75.6629C39.8089 75.3009 40.7157 75.1199 42.5291 74.9389C47.4256 64.9832 56.6744 57.3807 67.918 54.8466C70.4569 54.3035 73.3585 53.9415 76.0787 53.9415H85.1462C103.644 53.9415 119.058 67.1554 121.96 85.2565C122.323 87.0666 122.504 89.0578 122.504 91.0489V148.611H39.0835V132.682C37.6327 132.682 36.9073 132.501 36.3633 132.32V151.326H125.768V91.4109C125.768 89.2388 125.587 87.0666 125.224 85.0755Z" fill="#051040"/>
<path d="M125.768 145.352V151.688H4.26428C2.45079 151.688 1 150.24 1 148.61C1 146.8 2.45079 145.352 4.26428 145.352H125.768Z" fill="#F0EAE0"/>
<path d="M36.3633 133.587V145.533H4.44592C2.63243 145.533 1.18164 146.981 1.18164 148.792C1.18164 150.602 2.63243 151.869 4.44592 151.869H81.8819H169.111V151.688H212.635V95.7551C212.635 83.4464 207.557 72.4046 199.577 64.4401C193.593 58.4668 185.976 54.3035 177.453 52.4934C175.821 52.1314 174.007 51.9503 172.375 51.7693C170.924 51.5883 169.655 51.5883 168.204 51.5883C167.116 51.5883 166.028 51.5883 164.758 51.7693H88.0478C87.1411 51.7693 86.2343 51.5883 85.3276 51.5883H76.2601C73.1772 51.5883 70.2756 51.9503 67.374 52.4934C55.405 55.2085 45.4308 63.1731 40.1717 74.0338" stroke="#182052" stroke-miterlimit="10" stroke-linecap="round" stroke-linejoin="round"/>
<path d="M111.078 126.165C111.078 129.966 107.995 133.043 104.187 133.043C33.0979 133.043 37.6316 133.405 35.274 131.957C33.2792 130.69 32.0098 128.518 32.0098 126.165C36.1808 78.9208 35.4554 79.4639 38.357 76.7487C41.0772 74.3956 37.2689 75.1196 107.995 75.1196C110.171 75.1196 112.166 76.2057 113.435 77.6538C115.793 80.731 115.249 79.6449 111.078 126.165Z" fill="white"/>
<path d="M114.162 78.7399C113.799 79.1019 113.436 79.2829 113.074 79.6449C78.2546 109.15 78.98 109.693 73.9023 109.693C68.6431 109.693 68.8245 109.15 44.7051 86.1613" stroke="#182052" stroke-miterlimit="10" stroke-linecap="round" stroke-linejoin="round"/>
<path d="M111.078 126.165C111.078 129.966 107.995 133.043 104.187 133.043C33.0979 133.043 37.6316 133.405 35.274 131.957C33.2792 130.69 32.0098 128.518 32.0098 126.165C36.1808 78.9208 35.4554 79.4639 38.357 76.7487C41.0772 74.3956 37.2689 75.1196 107.995 75.1196C110.171 75.1196 112.166 76.2057 113.435 77.6538C115.793 80.731 115.249 79.6449 111.078 126.165Z" stroke="#182052" stroke-miterlimit="10" stroke-linecap="round" stroke-linejoin="round"/>
<path d="M27.6581 88.6956H4.08273C2.99464 88.6956 2.08789 87.7905 2.08789 86.7044C2.08789 85.6184 2.99464 84.7133 4.08273 84.7133H27.6581C28.7462 84.7133 29.6529 85.6184 29.6529 86.7044C29.6529 87.7905 28.7462 88.6956 27.6581 88.6956Z" fill="#C33130"/>
<path d="M26.5687 99.9181H12.9675C11.8794 99.9181 10.9727 99.013 10.9727 97.927C10.9727 96.8409 11.8794 95.9359 12.9675 95.9359H26.5687C27.6568 95.9359 28.5635 96.8409 28.5635 97.927C28.5635 99.013 27.6568 99.9181 26.5687 99.9181Z" fill="#C33130"/>
<path d="M25.301 110.598H17.6843C16.5962 110.598 15.6895 109.693 15.6895 108.607C15.6895 107.521 16.5962 106.616 17.6843 106.616H25.4823C26.5704 106.616 27.4771 107.521 27.4771 108.607C27.4771 109.693 26.5704 110.598 25.301 110.598Z" fill="#C33130"/>
<path d="M100.742 110.055H92.5813C92.0373 110.055 91.6746 110.417 91.6746 110.96L91.4932 112.046C89.4984 113.132 88.2289 112.408 86.5968 111.684C84.9647 110.96 82.9698 110.055 80.975 112.227C80.4309 112.77 80.6123 113.494 81.1563 114.037C81.7004 114.58 82.4258 114.399 82.9698 113.856C83.5139 113.132 83.8766 113.132 85.5087 114.037C86.5968 114.58 87.8662 115.123 89.4984 115.123C90.0424 115.123 90.5865 115.123 91.1305 114.942L90.9492 116.933C89.4984 117.477 88.2289 116.933 86.9595 116.209C85.3274 115.485 83.3325 114.58 81.519 116.752C80.975 117.296 81.1563 118.02 81.7004 118.563C82.2444 119.106 82.9698 118.925 83.5139 118.382C84.0579 117.839 84.4206 117.839 86.0527 118.563C87.1408 119.106 88.4103 119.649 90.0424 119.649C90.4051 119.649 90.5865 119.649 90.9492 119.649C91.1305 120.011 91.4932 120.373 91.8559 120.373H100.017C100.561 120.373 100.923 120.011 100.923 119.468L102.011 111.322C101.83 110.598 101.467 110.055 100.742 110.055ZM98.7472 117.477C98.7472 117.658 98.5658 118.02 98.2031 118.02H94.2135H93.6694C93.3067 118.02 93.1254 117.658 93.1254 117.477L93.3067 116.028L93.4881 114.037L93.6694 113.132C93.6694 112.951 93.8508 112.589 94.2135 112.589H98.7472C99.1099 112.589 99.2912 112.951 99.2912 113.132L98.7472 117.477Z" fill="#E8EFED"/>
<path d="M122.504 92.3159V145.352H49.9648" stroke="url(#paint0_linear_5594_697)" stroke-miterlimit="10" stroke-linecap="round" stroke-linejoin="round"/>
<path d="M128.852 152.955V195.312" stroke="#BFD3CC" stroke-miterlimit="10" stroke-linecap="round" stroke-linejoin="round"/>
<path d="M155.691 164.54V152.955" stroke="#BFD3CC" stroke-miterlimit="10" stroke-linecap="round" stroke-linejoin="round"/>
<defs>
<linearGradient id="paint0_linear_5594_697" x1="120.473" y1="119.659" x2="31.2497" y2="126.456" gradientUnits="userSpaceOnUse">
<stop stop-color="#8026F2"/>
<stop offset="0.814558" stop-color="#26F4D0"/>
</linearGradient>
</defs>
</svg>
