<svg width="180" height="180" viewBox="0 0 180 180" fill="none" xmlns="http://www.w3.org/2000/svg">
<path fill-rule="evenodd" clip-rule="evenodd" d="M158.902 100.648L161.636 93.3999L137.443 87.5436L133.805 94.8138L76.9744 82.7637L71.1523 98.2833L43.0093 91.2075L56.9449 152.286L129.872 175.5L168.266 102.958L158.902 100.648Z" fill="#205CD4"/>
<path fill-rule="evenodd" clip-rule="evenodd" d="M79.2379 43.2457L74.6155 53.9728C74.6155 53.9728 90.0001 51.667 98.713 53.4742C112.778 56.392 103.445 71.7793 103.445 71.7793L94.5352 70.8523L103.066 95.9623L127.291 76.1848L117.559 74.5081C117.559 74.5081 126.746 61.3681 116.612 49.8616C105.166 36.8629 79.2379 43.2457 79.2379 43.2457Z" fill="#54D6FF"/>
<path fill-rule="evenodd" clip-rule="evenodd" d="M157.968 20.6396L136.065 14.9399C136.065 14.9399 121.728 26.0522 129.707 46.6676L149.952 50.9336C149.952 50.9336 141.329 30.5396 157.968 20.6396Z" fill="white"/>
<path fill-rule="evenodd" clip-rule="evenodd" d="M11.7341 103.927L30.0995 97.2251C30.0995 97.2251 38.2949 113.806 42.4799 120.51L26.7092 132.8C26.7092 132.8 19.7315 124.29 11.7341 103.927Z" fill="white"/>
<path fill-rule="evenodd" clip-rule="evenodd" d="M49.9014 40.6025L49.617 67.4999C49.617 67.4999 17.4735 79.4258 13.707 81.2159C13.707 81.2159 11.0385 59.5601 11.907 51.8174C11.907 51.8201 33.7284 43.514 49.9014 40.6025Z" fill="white"/>
<path d="M87.1308 20.9535C87.1308 20.9535 67.6575 32.6535 65.7405 34.0692C65.7405 34.0692 57.0303 19.5612 55.2798 14.8407C55.2798 14.8407 68.7492 6.55083 78.417 3.34863L87.1308 20.9535Z" fill="white"/>
<path d="M87.5349 20.7539L78.8202 3.14986C78.773 3.05168 78.6914 2.97424 78.5908 2.93227C78.4903 2.89029 78.3778 2.8867 78.2748 2.92216C68.67 6.10366 55.179 14.3738 55.044 14.4575C54.9553 14.512 54.8882 14.5956 54.8542 14.6941C54.8202 14.7926 54.8215 14.8998 54.8577 14.9975C56.6028 19.7027 64.998 33.7076 65.3544 34.3016C65.3867 34.3554 65.4298 34.4018 65.4811 34.438C65.5324 34.4741 65.5907 34.4992 65.6522 34.5114C65.7138 34.5237 65.7772 34.523 65.8384 34.5094C65.8997 34.4957 65.9574 34.4694 66.0078 34.4321C67.8852 33.0479 87.1686 21.4568 87.363 21.3398C87.4601 21.2816 87.5317 21.189 87.5635 21.0804C87.5954 20.9718 87.5852 20.8552 87.5349 20.7539ZM65.88 33.4259C64.4895 31.0913 57.627 19.5002 55.8351 15.0299C57.9051 13.7798 69.5358 6.85336 78.1875 3.90136L86.544 20.7818C83.9547 22.3388 68.985 31.3523 65.88 33.4259Z" fill="#111827"/>
<path opacity="0.5" fill-rule="evenodd" clip-rule="evenodd" d="M15.1398 77.7507C15.1398 77.7507 13.7898 58.5807 14.2317 53.4777C14.2317 53.4777 36.9585 45.9582 47.6136 43.2744V65.5494L15.1398 77.7507Z" fill="#54D6FF"/>
<path opacity="0.5" fill-rule="evenodd" clip-rule="evenodd" d="M66.4506 29.9021C66.4506 29.9021 59.8419 18.5306 58.6062 15.4301C58.6062 15.4301 71.1162 8.88264 77.2614 6.31494L84.0114 19.6574L66.4506 29.9021Z" fill="#54D6FF"/>
<path fill-rule="evenodd" clip-rule="evenodd" d="M14.7654 71.9335L21.9528 60.9094L30.9132 67.2364L40.122 55.3501L47.682 63.9055L47.61 65.5498L15.1398 77.7511L14.7654 71.9335Z" fill="#205CD4"/>
<path fill-rule="evenodd" clip-rule="evenodd" d="M66.4507 29.9022L64.3384 26.2185L66.0124 19.1418L73.8298 22.0038L76.0744 14.415L83.3257 18.3048L84.0097 19.6548L66.4507 29.9022Z" fill="#205CD4"/>
<path fill-rule="evenodd" clip-rule="evenodd" d="M21.3633 54.1099C21.9803 54.1698 22.5529 54.4573 22.9694 54.9164C23.386 55.3754 23.6168 55.9731 23.6168 56.593C23.6168 57.2128 23.386 57.8105 22.9694 58.2696C22.5529 58.7286 21.9803 59.0161 21.3633 59.0761C20.7464 59.0161 20.1738 58.7286 19.7572 58.2696C19.3406 57.8105 19.1099 57.2128 19.1099 56.593C19.1099 55.9731 19.3406 55.3754 19.7572 54.9164C20.1738 54.4573 20.7464 54.1698 21.3633 54.1099Z" fill="#205CD4"/>
<path fill-rule="evenodd" clip-rule="evenodd" d="M63.4409 15.1674C63.8944 15.1449 64.3447 15.2543 64.7374 15.4824C65.13 15.7105 65.4481 16.0475 65.6531 16.4526C66.0626 17.2743 65.7359 18.0321 64.925 18.1446C64.4716 18.167 64.0213 18.0574 63.6289 17.8292C63.2364 17.6009 62.9185 17.2637 62.7137 16.8585C62.3042 16.0368 62.63 15.279 63.4409 15.1674Z" fill="#205CD4"/>
<path d="M58.7483 76.2656L65.0069 76.7885C63.8656 80.3539 63.985 84.2034 65.3453 87.6911L60.3395 89.1896C60.3395 89.1896 57.3137 84.2855 58.7483 76.2656Z" fill="#E7F7EF"/>
<path d="M17.6896 18.3052C16.8243 20.2715 16.11 22.3009 15.553 24.3757L24.4513 28.774C25.3408 26.5167 26.4035 24.3316 27.6301 22.2382L17.6896 18.3052Z" fill="#E7F7EF"/>
<path d="M153.116 75.2504C153.116 75.2504 155.432 71.7764 158.037 67.7021L163.932 69.6984C162.521 72.2353 160.954 74.6826 159.241 77.0261L153.116 75.2504Z" fill="#E7F7EF"/>
<path d="M125.55 111.813C125.543 111.719 125.507 111.629 125.446 111.556C125.385 111.484 125.303 111.433 125.211 111.41L43.1191 90.7701C43.0441 90.7511 42.9655 90.7518 42.8909 90.7721C42.8162 90.7924 42.7481 90.8315 42.693 90.8858C42.6379 90.9401 42.5978 91.0076 42.5764 91.0819C42.555 91.1562 42.5531 91.2348 42.571 91.3101L56.5065 152.389C56.5239 152.466 56.5609 152.536 56.6138 152.594C56.6666 152.651 56.7336 152.694 56.808 152.718C132.564 176.85 129.762 175.95 129.87 175.95C129.932 175.95 129.993 175.937 130.05 175.912C130.107 175.888 130.158 175.852 130.201 175.806C130.243 175.761 130.275 175.707 130.296 175.649C130.316 175.59 130.325 175.528 130.32 175.466L125.55 111.813ZM57.3301 151.936L43.6114 91.8222L124.673 112.204L129.373 174.869L57.3301 151.936Z" fill="white"/>
<path d="M102.638 96.1063C102.668 96.1953 102.726 96.2727 102.802 96.3274C102.879 96.3821 102.97 96.4115 103.064 96.4114C103.301 96.4114 102.713 96.8344 110.978 90.0826C111.071 90.007 111.13 89.8978 111.142 89.7789C111.154 89.66 111.118 89.5411 111.043 89.4485C110.967 89.3559 110.858 89.2971 110.739 89.285C110.62 89.273 110.501 89.3086 110.408 89.3842L103.282 95.2027L100.62 87.3628C100.582 87.2496 100.5 87.1564 100.393 87.1036C100.285 87.0507 100.162 87.0426 100.049 87.0811C99.9354 87.1195 99.8422 87.2013 99.7893 87.3085C99.7365 87.4156 99.7284 87.5394 99.7669 87.6526L102.638 96.1063Z" fill="#111827"/>
<path d="M158.081 20.2048L136.178 14.5006C136.112 14.4827 136.042 14.4805 135.974 14.4943C135.907 14.508 135.844 14.5373 135.789 14.5798C135.643 14.6932 121.28 26.1376 129.288 46.8259C129.315 46.8957 129.359 46.9578 129.416 47.0063C129.473 47.0549 129.541 47.0885 129.614 47.104L149.859 51.3709C149.939 51.3877 150.023 51.3822 150.1 51.355C150.178 51.3277 150.246 51.2798 150.299 51.2164C150.351 51.153 150.385 51.0765 150.397 50.9952C150.408 50.9139 150.398 50.8309 150.366 50.7553C150.281 50.5555 142.086 30.6151 158.196 21.0265C158.272 20.9812 158.333 20.9145 158.371 20.8346C158.41 20.7548 158.424 20.6654 158.412 20.5776C158.399 20.4899 158.361 20.4077 158.303 20.3414C158.244 20.2751 158.167 20.2275 158.081 20.2048ZM149.242 50.3215L130.039 46.2715C122.929 27.5704 134.621 16.7515 136.175 15.4276L156.842 20.8096C143.028 29.8348 147.902 46.5172 149.242 50.3215Z" fill="#111827"/>
<path d="M136.607 18.8288C152.883 22.9733 151.926 22.7339 152.019 22.7339C152.128 22.7334 152.234 22.6931 152.316 22.6206C152.397 22.548 152.45 22.4482 152.463 22.3398C152.477 22.2313 152.451 22.1216 152.389 22.0312C152.328 21.9408 152.236 21.8758 152.13 21.8483L136.83 17.9567C136.715 17.9304 136.595 17.95 136.495 18.0113C136.394 18.0725 136.322 18.1706 136.293 18.2846C136.264 18.3985 136.281 18.5193 136.34 18.621C136.399 18.7227 136.495 18.7973 136.608 18.8288H136.607Z" fill="#111827"/>
<path d="M149.826 24.8325L134.238 21.0363C134.179 21.0184 134.117 21.0126 134.056 21.0193C133.996 21.0261 133.937 21.0452 133.883 21.0755C133.83 21.1059 133.784 21.1468 133.747 21.1957C133.71 21.2447 133.683 21.3007 133.669 21.3602C133.654 21.4198 133.652 21.4817 133.662 21.5421C133.673 21.6026 133.695 21.6603 133.729 21.7117C133.762 21.7631 133.806 21.8071 133.857 21.8411C133.908 21.8751 133.965 21.8983 134.025 21.9093L149.613 25.7055C149.672 25.7235 149.734 25.7292 149.795 25.7225C149.855 25.7157 149.914 25.6966 149.968 25.6663C150.021 25.6359 150.067 25.5951 150.104 25.5461C150.141 25.4971 150.168 25.4412 150.182 25.3816C150.197 25.322 150.199 25.2601 150.189 25.1997C150.178 25.1393 150.156 25.0816 150.122 25.0301C150.089 24.9787 150.046 24.9347 149.994 24.9007C149.943 24.8667 149.886 24.8435 149.826 24.8325Z" fill="#111827"/>
<path d="M147.685 27.9152L132.096 24.1199C132.037 24.1022 131.976 24.0966 131.915 24.1034C131.854 24.1103 131.795 24.1295 131.742 24.1598C131.689 24.1901 131.643 24.2309 131.606 24.2797C131.569 24.3286 131.543 24.3844 131.528 24.4438C131.514 24.5032 131.511 24.5649 131.522 24.6252C131.532 24.6855 131.554 24.7431 131.587 24.7945C131.62 24.8459 131.664 24.89 131.714 24.9241C131.765 24.9582 131.822 24.9816 131.882 24.9929L147.471 28.7891C147.529 28.8052 147.59 28.8095 147.65 28.8017C147.71 28.7939 147.767 28.7742 147.819 28.7437C147.871 28.7132 147.917 28.6726 147.953 28.6242C147.989 28.5758 148.015 28.5207 148.029 28.4622C148.043 28.4036 148.046 28.3428 148.036 28.2833C148.026 28.2238 148.005 28.1668 147.973 28.1158C147.94 28.0648 147.898 28.0207 147.849 27.9862C147.799 27.9518 147.744 27.9276 147.685 27.9152Z" fill="#111827"/>
<path d="M145.455 35.1529L129.87 31.3576C129.811 31.3397 129.75 31.3339 129.689 31.3406C129.628 31.3474 129.569 31.3665 129.516 31.3968C129.462 31.4272 129.416 31.4681 129.379 31.517C129.342 31.566 129.316 31.6219 129.301 31.6815C129.287 31.7411 129.284 31.803 129.295 31.8634C129.305 31.9239 129.328 31.9815 129.361 32.033C129.394 32.0844 129.438 32.1284 129.489 32.1624C129.54 32.1964 129.597 32.2196 129.658 32.2306L145.246 36.0268C145.304 36.0433 145.365 36.048 145.425 36.0404C145.485 36.0328 145.543 36.0132 145.595 35.9827C145.648 35.9522 145.693 35.9114 145.729 35.8629C145.766 35.8144 145.792 35.759 145.806 35.7002C145.82 35.6414 145.822 35.5802 145.813 35.5205C145.803 35.4608 145.781 35.4037 145.748 35.3526C145.716 35.3015 145.673 35.2574 145.624 35.2231C145.574 35.1888 145.517 35.1649 145.458 35.1529H145.455Z" fill="#111827"/>
<path d="M145.455 38.9491L129.87 35.1529C129.812 35.1363 129.751 35.1317 129.691 35.1393C129.631 35.1469 129.573 35.1665 129.52 35.197C129.468 35.2275 129.423 35.2682 129.386 35.3168C129.35 35.3653 129.324 35.4206 129.31 35.4795C129.296 35.5383 129.293 35.5994 129.303 35.6591C129.313 35.7189 129.335 35.776 129.367 35.8271C129.4 35.8782 129.442 35.9222 129.492 35.9565C129.542 35.9908 129.598 36.0147 129.658 36.0268L145.246 39.823C145.304 39.8395 145.365 39.8441 145.425 39.8365C145.485 39.8289 145.543 39.8093 145.595 39.7788C145.648 39.7483 145.693 39.7076 145.729 39.6591C145.766 39.6105 145.792 39.5552 145.806 39.4963C145.82 39.4375 145.822 39.3764 145.813 39.3167C145.803 39.2569 145.781 39.1998 145.748 39.1487C145.716 39.0976 145.673 39.0536 145.624 39.0193C145.574 38.985 145.517 38.9611 145.458 38.9491H145.455Z" fill="#111827"/>
<path d="M145.455 42.7499L129.87 38.9492C129.812 38.9327 129.751 38.9281 129.691 38.9357C129.631 38.9433 129.573 38.9629 129.52 38.9934C129.468 39.0239 129.423 39.0646 129.386 39.1131C129.35 39.1617 129.324 39.217 129.31 39.2759C129.296 39.3347 129.293 39.3958 129.303 39.4555C129.313 39.5153 129.335 39.5724 129.367 39.6235C129.4 39.6746 129.442 39.7186 129.492 39.7529C129.542 39.7872 129.598 39.8111 129.658 39.8231L145.246 43.6193C145.304 43.6359 145.365 43.6405 145.425 43.6329C145.485 43.6253 145.543 43.6057 145.595 43.5752C145.648 43.5447 145.693 43.504 145.729 43.4554C145.766 43.4069 145.792 43.3516 145.806 43.2927C145.82 43.2339 145.822 43.1728 145.813 43.1131C145.803 43.0533 145.781 42.9962 145.748 42.9451C145.716 42.894 145.673 42.85 145.624 42.8157C145.574 42.7814 145.517 42.7575 145.458 42.7454L145.455 42.7499Z" fill="#111827"/>
<path d="M13.904 81.6244C17.6057 79.8631 49.454 68.0434 49.7735 67.9237C49.8588 67.8921 49.9325 67.8353 49.9849 67.7609C50.0373 67.6865 50.0659 67.598 50.0669 67.507L50.3513 40.6069C50.3524 40.5405 50.3387 40.4747 50.3113 40.4143C50.2839 40.3538 50.2435 40.3001 50.1929 40.2571C50.1423 40.2141 50.0828 40.1828 50.0187 40.1655C49.9546 40.1482 49.8875 40.1452 49.8221 40.1569C33.7931 43.0432 11.9654 51.3169 11.7521 51.3961C11.6746 51.4254 11.6068 51.4756 11.5559 51.541C11.5051 51.6064 11.4734 51.6846 11.4641 51.7669C10.6028 59.4745 13.1588 80.3869 13.2641 81.2707C13.2725 81.3417 13.2977 81.4096 13.3375 81.4689C13.3774 81.5282 13.4308 81.5772 13.4933 81.6118C13.5559 81.6463 13.6257 81.6655 13.6971 81.6677C13.7686 81.6699 13.8395 81.6551 13.904 81.6244ZM12.3299 52.1431C14.8049 51.2098 34.5014 43.9198 49.4459 41.1433L49.1705 67.1884C45.8909 68.4061 19.4237 78.2431 14.0849 80.557C13.6691 77.0398 11.6387 59.2198 12.3299 52.1431Z" fill="#111827"/>
<path d="M15.2999 78.1719L47.8421 65.9697C47.9283 65.9376 48.0025 65.8798 48.0548 65.8042C48.1071 65.7285 48.1349 65.6387 48.1346 65.5467C48.1346 65.337 48.1499 67.9839 47.9915 43.2717C47.9909 43.2035 47.9748 43.1362 47.9444 43.0751C47.914 43.014 47.87 42.9606 47.8159 42.919C47.7618 42.8774 47.6989 42.8486 47.6321 42.8349C47.5652 42.8211 47.4961 42.8228 47.4299 42.8397C36.8828 45.4947 14.3171 52.9746 14.0903 53.0502C14.0068 53.0779 13.9331 53.1295 13.8786 53.1986C13.824 53.2677 13.791 53.3513 13.7834 53.439C13.3415 58.5177 14.6357 76.9983 14.6906 77.7822C14.6955 77.8524 14.7166 77.9205 14.7525 77.9809C14.7884 78.0414 14.8379 78.0927 14.8971 78.1306C14.9564 78.1685 15.0237 78.1919 15.0936 78.1991C15.1636 78.2063 15.2342 78.197 15.2999 78.1719ZM15.5492 77.1171C15.488 76.2117 15.3692 74.3586 15.2279 72.0537L22.0769 61.5471L30.6566 67.6041C30.751 67.671 30.8676 67.699 30.982 67.6822C31.0965 67.6655 31.2001 67.6053 31.2713 67.5141L40.1471 56.058L47.2319 64.068V65.238L15.5492 77.1171ZM14.66 53.8071C17.2646 52.9467 37.0925 46.4406 47.159 43.8486V62.6973L40.4612 55.0536C40.4174 55.0041 40.3633 54.9649 40.3026 54.9387C40.2419 54.9124 40.1762 54.8999 40.1101 54.902C40.0441 54.904 39.9792 54.9206 39.9203 54.9506C39.8614 54.9805 39.8098 55.0231 39.7691 55.0752L30.8213 66.6204L22.2119 60.5427C22.1625 60.5077 22.1065 60.483 22.0473 60.4702C21.9882 60.4573 21.927 60.4565 21.8675 60.4679C21.808 60.4792 21.7514 60.5025 21.7011 60.5362C21.6508 60.57 21.6078 60.6135 21.5747 60.6642L15.1361 70.5408C14.8031 64.734 14.4422 57.0156 14.6573 53.8107L14.66 53.8071Z" fill="#111827"/>
<path d="M66.06 30.1284C66.0995 30.1965 66.1562 30.253 66.2245 30.2924C66.2927 30.3317 66.37 30.3524 66.4488 30.3525C66.6378 30.3525 65.4426 30.9897 84.2346 20.0457C84.3336 19.988 84.407 19.8947 84.4396 19.7848C84.4722 19.675 84.4616 19.5568 84.4101 19.4544C70.8075 -7.4799 82.8729 16.3944 77.6601 6.1119C77.6088 6.01037 77.521 5.93202 77.4143 5.89262C77.3076 5.85321 77.1899 5.85567 77.085 5.8995C70.9992 8.4456 58.5225 14.967 58.3974 15.03C58.2986 15.0817 58.2226 15.1683 58.1841 15.2729C58.1455 15.3775 58.1471 15.4926 58.1886 15.5961C59.4216 18.6921 65.79 29.664 66.06 30.1284ZM66.6117 29.2869C66.2994 28.7469 65.6883 27.684 64.9404 26.3691L66.2004 19.8063L73.4256 22.5963C73.4832 22.6187 73.5448 22.629 73.6066 22.6265C73.6684 22.624 73.729 22.6088 73.7847 22.5819C73.8403 22.555 73.8898 22.5168 73.9301 22.4699C73.9703 22.423 74.0005 22.3683 74.0187 22.3092L76.2984 14.9004L83.1672 18.9819L83.4192 19.4805L66.6117 29.2869ZM77.049 6.8931L82.4085 17.4879L76.2651 13.8366C76.2066 13.8017 76.1409 13.7805 76.073 13.7747C76.0051 13.7689 75.9367 13.7785 75.8731 13.803C75.8095 13.8274 75.7523 13.866 75.7057 13.9158C75.6592 13.9656 75.6246 14.0253 75.6045 14.0904L73.2978 21.5838L66.0195 18.7713C65.958 18.7476 65.892 18.7377 65.8263 18.7423C65.7605 18.7469 65.6966 18.7659 65.639 18.7979C65.5814 18.8299 65.5315 18.8742 65.4929 18.9276C65.4543 18.981 65.4279 19.0423 65.4156 19.107L64.26 25.1595C62.3943 21.8574 60.0561 17.622 59.1849 15.6384C61.2441 14.5647 71.4816 9.27 77.049 6.8931Z" fill="#111827"/>
<path d="M21.3632 59.525C22.1003 59.4657 22.7881 59.1311 23.2897 58.5877C23.7912 58.0442 24.0697 57.3318 24.0697 56.5923C24.0697 55.8528 23.7912 55.1404 23.2897 54.597C22.7881 54.0535 22.1003 53.7189 21.3632 53.6597C20.6261 53.7189 19.9383 54.0535 19.4368 54.597C18.9352 55.1404 18.6567 55.8528 18.6567 56.5923C18.6567 57.3318 18.9352 58.0442 19.4368 58.5877C19.9383 59.1311 20.6261 59.4657 21.3632 59.525ZM21.3632 54.5597C21.8613 54.6181 22.3206 54.8574 22.6539 55.2321C22.9871 55.6068 23.1713 56.0908 23.1713 56.5923C23.1713 57.0938 22.9871 57.5778 22.6539 57.9525C22.3206 58.3272 21.8613 58.5665 21.3632 58.625C20.8652 58.5665 20.4059 58.3272 20.0726 57.9525C19.7393 57.5778 19.5552 57.0938 19.5552 56.5923C19.5552 56.0908 19.7393 55.6068 20.0726 55.2321C20.4059 54.8574 20.8652 54.6181 21.3632 54.5597Z" fill="#111827"/>
<path d="M66.113 17.8423C66.8456 16.4536 65.0825 14.488 63.3788 14.7211C63.123 14.7531 62.8796 14.85 62.6718 15.0026C62.464 15.1552 62.2987 15.3584 62.1917 15.593C62.0846 15.8275 62.0393 16.0855 62.0601 16.3425C62.0809 16.5995 62.1671 16.8469 62.3105 17.0611C63.1061 18.6559 65.4011 19.1878 66.113 17.8423ZM63.053 15.8902C63.3599 15.3061 64.7513 15.6463 65.2535 16.6543C65.4992 17.1448 65.4137 17.6227 64.8674 17.6992C63.8234 17.8459 62.6984 16.5598 63.0494 15.8902H63.053Z" fill="#111827"/>
<path d="M29.9447 96.8023L11.5793 103.505C11.523 103.525 11.4713 103.557 11.4274 103.598C11.3834 103.638 11.3481 103.688 11.3235 103.742C11.2988 103.797 11.2853 103.856 11.2838 103.916C11.2823 103.976 11.2928 104.036 11.3147 104.091C19.2464 124.287 26.2916 132.999 26.3618 133.086C26.4363 133.177 26.5433 133.235 26.66 133.248C26.7767 133.26 26.8938 133.227 26.9864 133.155L42.7598 120.864C42.8476 120.795 42.9069 120.697 42.9262 120.587C42.9455 120.477 42.9234 120.364 42.8642 120.27C38.7359 113.664 30.5846 97.192 30.5027 97.0255C30.4535 96.9261 30.3694 96.8483 30.2664 96.8071C30.1634 96.7659 30.0489 96.7642 29.9447 96.8023ZM41.8877 120.402L26.7884 132.168C25.4447 130.393 19.2527 121.728 12.3218 104.191L29.8718 97.786C31.0787 100.208 38.0294 114.125 41.8877 120.402Z" fill="#111827"/>
<path d="M29.584 101.333L15.85 107.133C15.74 107.18 15.6528 107.268 15.6078 107.378C15.5627 107.489 15.5634 107.613 15.6097 107.723C15.656 107.833 15.7441 107.92 15.8547 107.965C15.9652 108.01 16.0892 108.009 16.1992 107.963L29.9341 102.163C30.0441 102.116 30.1312 102.028 30.1762 101.917C30.2212 101.807 30.2204 101.683 30.174 101.573C30.1275 101.463 30.0393 101.376 29.9287 101.331C29.818 101.286 29.694 101.286 29.584 101.333Z" fill="#111827"/>
<path d="M17.1135 111.182C17.1389 111.235 17.1746 111.283 17.2186 111.323C17.2625 111.362 17.3138 111.393 17.3696 111.413C17.4254 111.432 17.4844 111.441 17.5435 111.438C17.6026 111.435 17.6604 111.42 17.7138 111.394L31.0113 105.053C31.1102 104.997 31.1841 104.905 31.2182 104.797C31.2522 104.688 31.2439 104.571 31.1948 104.468C31.1458 104.365 31.0596 104.285 30.9538 104.243C30.8479 104.202 30.7302 104.201 30.6243 104.243L17.3259 110.583C17.2183 110.634 17.1355 110.726 17.0957 110.838C17.0558 110.951 17.0622 111.074 17.1135 111.182Z" fill="#111827"/>
<path d="M18.6174 114.485C18.669 114.592 18.761 114.675 18.8734 114.715C18.9858 114.754 19.1093 114.748 19.2168 114.697L32.76 108.225C32.8597 108.169 32.9343 108.077 32.9687 107.968C33.0032 107.859 32.9949 107.741 32.9455 107.638C32.8962 107.535 32.8094 107.454 32.703 107.413C32.5965 107.372 32.4782 107.372 32.3721 107.415L18.8271 113.887C18.7205 113.939 18.6386 114.031 18.5994 114.143C18.5601 114.255 18.5666 114.378 18.6174 114.485Z" fill="#111827"/>
<path d="M21.3641 119.706C21.4212 119.811 21.5175 119.889 21.6319 119.922C21.7463 119.956 21.8695 119.943 21.9743 119.886L34.8641 112.86C34.9657 112.801 35.0404 112.705 35.0722 112.592C35.104 112.479 35.0904 112.358 35.0343 112.255C34.9781 112.152 34.8839 112.075 34.7718 112.04C34.6596 112.005 34.5384 112.016 34.4339 112.07L21.5432 119.1C21.4398 119.158 21.363 119.253 21.3295 119.366C21.296 119.48 21.3084 119.602 21.3641 119.706Z" fill="#111827"/>
<path d="M23.3387 123.383C23.3702 123.433 23.4112 123.476 23.4594 123.51C23.5077 123.545 23.5622 123.569 23.6199 123.582C23.6776 123.595 23.7373 123.597 23.7956 123.587C23.8539 123.577 23.9097 123.556 23.9597 123.524L36.8387 115.394C36.9397 115.331 37.0112 115.229 37.0375 115.113C37.0638 114.996 37.0428 114.874 36.9791 114.773C36.9154 114.672 36.8141 114.601 36.6977 114.575C36.5812 114.548 36.4591 114.569 36.3581 114.633L23.4791 122.76C23.4288 122.792 23.3853 122.833 23.351 122.881C23.3167 122.93 23.2924 122.984 23.2793 123.042C23.2663 123.1 23.2648 123.16 23.275 123.218C23.2852 123.277 23.3068 123.333 23.3387 123.383Z" fill="#111827"/>
<path d="M25.415 126.143C25.4784 126.244 25.5793 126.316 25.6956 126.343C25.8119 126.369 25.934 126.349 26.0351 126.285L38.7584 118.325C38.8111 118.295 38.8572 118.254 38.8939 118.206C38.9306 118.158 38.9571 118.103 38.9719 118.044C38.9867 117.985 38.9895 117.924 38.9801 117.864C38.9707 117.804 38.9492 117.747 38.917 117.695C38.8849 117.644 38.8426 117.599 38.7929 117.565C38.7431 117.53 38.6869 117.506 38.6275 117.493C38.5681 117.481 38.5068 117.481 38.4474 117.493C38.3879 117.504 38.3314 117.528 38.2814 117.563L25.5599 125.522C25.5095 125.553 25.4658 125.594 25.4312 125.642C25.3966 125.69 25.3719 125.745 25.3585 125.803C25.345 125.86 25.3431 125.92 25.3528 125.978C25.3625 126.037 25.3836 126.093 25.415 126.143Z" fill="#111827"/>
<path d="M52.7679 158.12C52.7567 158.043 52.7259 157.971 52.6787 157.91C52.6314 157.849 52.5692 157.801 52.498 157.771C52.4268 157.741 52.3491 157.729 52.2723 157.738C52.1955 157.747 52.1223 157.775 52.0596 157.82L45.0396 162.87C44.9426 162.94 44.8772 163.045 44.8579 163.163C44.8385 163.281 44.8668 163.402 44.9365 163.499C45.0062 163.596 45.1116 163.661 45.2295 163.68C45.3474 163.7 45.4682 163.671 45.5652 163.602L51.5664 159.286C50.6043 162.014 47.3067 169.238 39.2769 169.595C37.5348 169.724 35.7948 169.32 34.2873 168.437C32.7799 167.555 31.5762 166.235 30.8358 164.653C41.9346 163.519 40.5891 153.919 33.8697 154.325C29.4858 154.562 28.071 159.518 29.5245 163.825C27.5504 163.889 25.5749 163.755 23.6277 163.424C19.1331 162.696 15.9165 160.724 14.0688 157.566C10.0188 150.643 13.7898 140.174 13.8285 140.069C13.8698 139.957 13.8649 139.833 13.8148 139.725C13.7648 139.617 13.6737 139.532 13.5616 139.491C13.4496 139.45 13.3257 139.455 13.2172 139.505C13.1088 139.555 13.0247 139.646 12.9834 139.758C12.8196 140.203 9.02789 150.725 13.2903 158.018C15.2802 161.422 18.7101 163.54 23.4846 164.311C25.5937 164.676 27.7358 164.816 29.8746 164.728C30.6147 166.471 31.8599 167.954 33.4498 168.983C35.0397 170.013 36.9015 170.543 38.7954 170.506C45.2097 170.506 49.842 166.148 52.1721 160.226L53.0271 165.98C53.0464 166.097 53.1106 166.201 53.2061 166.271C53.3015 166.34 53.4204 166.369 53.5372 166.352C53.654 166.335 53.7593 166.272 53.8304 166.178C53.9014 166.084 53.9326 165.965 53.9172 165.848L52.7679 158.12ZM34.2279 155.216C37.6425 155.216 39.1608 158.231 37.4346 160.688C36.2133 162.426 33.7527 163.478 30.4551 163.766C29.0385 159.901 30.1662 155.216 34.2288 155.216H34.2279Z" fill="#111827"/>
</svg>
