<svg width="25" height="24" viewBox="0 0 25 24" fill="none" xmlns="http://www.w3.org/2000/svg">
<path d="M1.44973 13.2001H2.64972V21.6C2.64972 22.9236 3.72611 24 5.0497 24H19.4496C20.7731 24 21.8495 22.9236 21.8495 21.6V13.2001H23.0495C23.2868 13.2001 23.5188 13.1297 23.7161 12.9978C23.9133 12.8659 24.0671 12.6785 24.1579 12.4593C24.2487 12.2401 24.2725 11.9988 24.2262 11.7661C24.1799 11.5333 24.0657 11.3196 23.8979 11.1517L13.098 0.351838C12.9867 0.240304 12.8544 0.15182 12.7089 0.0914473C12.5633 0.031075 12.4072 0 12.2496 0C12.092 0 11.936 0.031075 11.7904 0.0914473C11.6448 0.15182 11.5126 0.240304 11.4012 0.351838L0.601341 11.1517C0.433571 11.3196 0.319325 11.5333 0.273044 11.7661C0.226763 11.9988 0.250527 12.2401 0.34133 12.4593C0.432133 12.6785 0.585899 12.8659 0.783189 12.9978C0.980479 13.1297 1.21243 13.2001 1.44973 13.2001ZM9.84965 21.6V15.6001H14.6496V21.6H9.84965ZM12.2496 2.89701L19.4496 10.0969V15.6001L19.4508 21.6H17.0496V15.6001C17.0496 14.2765 15.9732 13.2001 14.6496 13.2001H9.84965C8.52606 13.2001 7.44967 14.2765 7.44967 15.6001V21.6H5.0497V10.0969L12.2496 2.89701Z" fill="white"/>
</svg>
