<svg width="216" height="188" viewBox="0 0 216 188" fill="none" xmlns="http://www.w3.org/2000/svg">
<path d="M191.742 75.8748V177.763C191.742 177.887 191.736 178.01 191.731 178.141C191.731 178.2 191.725 178.259 191.719 178.318C191.719 178.371 191.714 178.43 191.708 178.489C191.708 178.513 191.703 178.536 191.703 178.559C191.697 178.601 191.691 178.636 191.685 178.672C191.679 178.76 191.661 178.848 191.65 178.937C191.639 179.02 191.621 179.108 191.603 179.191C191.598 179.232 191.585 179.274 191.574 179.315C191.574 179.344 191.569 179.379 191.556 179.409C191.551 179.45 191.539 179.492 191.527 179.533C191.509 179.61 191.486 179.686 191.469 179.757C191.469 179.769 191.464 179.787 191.458 179.798C191.418 179.928 191.382 180.058 191.336 180.181C191.336 180.187 191.336 180.194 191.33 180.2C191.307 180.264 191.284 180.329 191.261 180.389C191.238 180.448 191.214 180.501 191.197 180.554C191.192 180.572 191.179 180.59 191.179 180.602C191.11 180.762 191.04 180.926 190.958 181.08C190.935 181.127 190.906 181.186 190.877 181.239C190.848 181.293 190.819 181.339 190.789 181.393C190.76 181.44 190.737 181.493 190.702 181.54C190.644 181.64 190.58 181.741 190.516 181.835C190.475 181.9 190.434 181.953 190.399 182.012C190.301 182.141 190.207 182.272 190.103 182.395C190.027 182.49 189.952 182.578 189.876 182.661C189.8 182.749 189.72 182.832 189.638 182.915C189.603 182.957 189.562 182.992 189.522 183.033C189.487 183.068 189.453 183.103 189.411 183.133C189.371 183.174 189.324 183.216 189.277 183.256C189.266 183.268 189.248 183.28 189.236 183.292C189.125 183.392 189.009 183.487 188.893 183.575C188.882 183.581 188.869 183.593 188.858 183.605C188.765 183.669 188.672 183.741 188.573 183.805C188.538 183.829 188.509 183.853 188.48 183.87C188.428 183.905 188.375 183.941 188.324 183.971C188.283 184.001 188.242 184.024 188.195 184.048C188.148 184.078 188.102 184.107 188.056 184.131C187.73 184.32 187.387 184.479 187.032 184.608C187.008 184.614 186.992 184.627 186.968 184.632C186.945 184.638 186.916 184.65 186.892 184.656C186.811 184.686 186.729 184.715 186.642 184.739C186.496 184.786 186.351 184.822 186.206 184.857C186.13 184.875 186.055 184.892 185.979 184.91C185.932 184.922 185.881 184.928 185.834 184.934C185.776 184.946 185.712 184.958 185.654 184.969C185.642 184.969 185.636 184.969 185.63 184.975C185.583 184.981 185.537 184.986 185.485 184.993C185.461 184.993 185.438 184.999 185.416 184.999C185.375 185.004 185.328 185.01 185.288 185.016C185.265 185.016 185.241 185.021 185.212 185.021C185.125 185.027 185.032 185.034 184.944 185.04C184.816 185.045 184.688 185.051 184.56 185.051H7.18435C7.05685 185.051 6.92841 185.045 6.80091 185.04C6.71371 185.034 6.6209 185.028 6.53371 185.021C6.43526 185.016 6.33589 185.003 6.23745 184.986C6.17932 184.981 6.12119 184.975 6.06869 184.962C5.929 184.944 5.78931 184.915 5.65618 184.885C5.61586 184.88 5.58024 184.867 5.53993 184.856C5.39461 184.821 5.24929 184.785 5.10397 184.738C5.01678 184.708 4.93522 184.685 4.85365 184.655C4.46364 184.519 4.08581 184.348 3.72486 184.154C3.63767 184.1 3.55048 184.047 3.46329 183.994C3.36485 183.935 3.26548 183.87 3.17266 183.805C2.59702 183.409 2.08512 182.937 1.64261 182.394C1.53761 182.27 1.43916 182.14 1.34635 182.004C1.02665 181.555 0.758514 181.072 0.549445 180.553C0.502568 180.435 0.45663 180.304 0.409754 180.18C0.362877 180.057 0.32819 179.926 0.287876 179.797C0.253187 179.667 0.2185 179.537 0.189436 179.408C0.160373 179.284 0.136935 179.166 0.113497 179.042C0.107871 179.024 0.107872 179.001 0.102247 178.983C0.0844336 178.865 0.067558 178.741 0.0553701 178.623C0.049745 178.617 0.0497452 178.605 0.0497452 178.593C0.0384948 178.499 0.0319321 178.411 0.0263069 178.317C0.00849384 178.134 0.00286865 177.95 0.00286865 177.762V75.8748C0.00286865 75.0014 0.153808 74.1632 0.433192 73.3839C0.875707 72.1499 1.63698 71.07 2.62045 70.2499C2.63264 70.2385 2.64952 70.2261 2.66733 70.2147L3.03953 69.9254C4.20863 69.0815 5.6393 68.5858 7.18623 68.5858H184.561C184.736 68.5858 184.905 68.5915 185.073 68.6096C185.102 68.6039 185.137 68.6096 185.166 68.6153C185.329 68.6267 185.498 68.6448 185.655 68.6686C185.689 68.6743 185.731 68.68 185.765 68.6867C185.905 68.7104 186.045 68.7399 186.178 68.7752C186.212 68.7809 186.247 68.7866 186.283 68.7989C186.451 68.8398 186.615 68.8874 186.777 68.9407C186.928 68.9883 187.085 69.0473 187.231 69.1063C187.44 69.189 187.643 69.2889 187.841 69.3955C187.952 69.4488 188.062 69.5078 188.166 69.5725C188.353 69.679 188.533 69.797 188.702 69.9264C188.707 69.9207 188.707 69.9264 188.707 69.9264L189.079 70.2156C189.097 70.228 189.114 70.2394 189.126 70.2508C189.225 70.3279 189.313 70.4107 189.4 70.4925C189.469 70.5515 189.534 70.6162 189.598 70.6818C189.796 70.8769 189.981 71.0834 190.157 71.3079C190.238 71.4078 190.313 71.5086 190.383 71.6085C190.686 72.0272 190.942 72.482 191.146 72.9663C191.204 73.0966 191.256 73.2317 191.309 73.3678C191.309 73.3735 191.314 73.3792 191.314 73.3858C191.396 73.6047 191.46 73.8283 191.518 74.0528C191.547 74.1651 191.57 74.2716 191.594 74.3829C191.612 74.4714 191.629 74.5542 191.641 74.6427C191.658 74.7312 191.67 74.8197 191.681 74.9081C191.699 75.0147 191.71 75.1203 191.716 75.2269C191.727 75.3154 191.734 75.4096 191.734 75.498C191.736 75.6208 191.742 75.7511 191.742 75.8748Z" fill="#DFE5EA"/>
<path d="M191.311 73.3825H0.431152C0.873667 72.1485 1.63494 71.0686 2.61841 70.2485C2.6306 70.237 2.64747 70.2247 2.66528 70.2133L3.03749 69.924L91.472 1.79791C94.0717 -0.208679 97.6718 -0.208679 100.272 1.79791L188.7 69.924C188.706 69.9183 188.706 69.924 188.706 69.924L189.078 70.2133C189.096 70.2256 189.113 70.237 189.125 70.2485C189.224 70.3255 189.312 70.4083 189.399 70.4901C189.468 70.5491 189.533 70.6138 189.597 70.6795C189.795 70.8745 189.98 71.081 190.155 71.3055C190.237 71.4054 190.312 71.5063 190.382 71.6062C190.685 72.0248 190.941 72.4796 191.145 72.9639C191.203 73.0942 191.255 73.2293 191.308 73.3654C191.306 73.3711 191.311 73.3768 191.311 73.3825Z" fill="#5B97EF"/>
<g filter="url(#filter0_d_120_218)">
<path d="M177.566 179.433H10.9912V26.049C10.9912 18.8428 16.7476 13 23.8494 13H164.708C171.809 13 177.566 18.8419 177.566 26.049V179.433V179.433Z" fill="white"/>
</g>
<path d="M155.887 50.1411H33.4888C31.774 50.1411 30.3705 48.7178 30.3705 46.9776V45.6323C30.3705 43.8921 31.774 42.4687 33.4888 42.4687H155.887C157.602 42.4687 159.004 43.8921 159.004 45.6323V46.9776C159.005 48.7178 157.602 50.1411 155.887 50.1411Z" fill="#E4ECF9"/>
<path d="M155.887 66.5353H33.4888C31.774 66.5353 30.3705 65.112 30.3705 63.3718V62.0265C30.3705 60.2863 31.774 58.862 33.4888 58.862H155.887C157.602 58.862 159.004 60.2863 159.004 62.0265V63.3718C159.005 65.111 157.602 66.5353 155.887 66.5353Z" fill="#E4ECF9"/>
<path d="M155.887 82.9276H33.4888C31.774 82.9276 30.3705 81.5043 30.3705 79.7641V78.4188C30.3705 76.6786 31.774 75.2552 33.4888 75.2552H155.887C157.602 75.2552 159.004 76.6786 159.004 78.4188V79.7641C159.005 81.5033 157.602 82.9276 155.887 82.9276Z" fill="#E4ECF9"/>
<path d="M155.887 99.3189H33.4888C31.774 99.3189 30.3705 97.8946 30.3705 96.1544V94.8091C30.3705 93.069 31.774 91.6456 33.4888 91.6456H155.887C157.602 91.6456 159.004 93.069 159.004 94.8091V96.1544C159.005 97.8946 157.602 99.3189 155.887 99.3189Z" fill="#E4ECF9"/>
<path d="M155.887 115.711H33.4888C31.774 115.711 30.3705 114.288 30.3705 112.548V111.202C30.3705 109.462 31.774 108.039 33.4888 108.039H155.887C157.602 108.039 159.004 109.462 159.004 111.202V112.548C159.005 114.288 157.602 115.711 155.887 115.711Z" fill="#E4ECF9"/>
<path d="M95.8747 129.551V129.557C95.5953 129.864 95.2644 130.147 94.8856 130.384L7.579 185.052H7.18336C6.45677 185.052 5.75832 184.945 5.10111 184.739C5.00829 184.709 4.91453 184.68 4.82734 184.65C3.68168 184.249 2.66353 183.558 1.86663 182.661C1.79069 182.578 1.71568 182.49 1.63974 182.395C1.41848 182.13 1.22067 181.841 1.04066 181.539C0.97691 181.439 0.924404 181.338 0.866277 181.238C0.813776 181.132 0.75565 181.026 0.709711 180.92C0.255947 179.964 0 178.895 0 177.762V75.8748C0 75.0014 0.150945 74.1632 0.430329 73.3839C0.872844 72.1499 1.63411 71.07 2.61758 70.2499C2.62977 70.2385 2.64665 70.2261 2.66446 70.2147L3.03666 69.9254C4.20576 69.0815 5.63643 68.5858 7.18336 68.5858H8.8231L16.4893 73.3849L87.1557 117.636L89.8136 119.3L94.8856 122.476C95.2634 122.711 95.5953 122.995 95.8747 123.301V123.307C97.4507 125.06 97.4507 127.805 95.8747 129.551Z" fill="#3B82F4"/>
<path d="M191.742 75.8738V177.762C191.742 177.886 191.736 178.009 191.731 178.14C191.731 178.199 191.725 178.258 191.719 178.317C191.719 178.37 191.714 178.429 191.708 178.488C191.708 178.512 191.703 178.535 191.703 178.558C191.697 178.6 191.691 178.635 191.685 178.671C191.679 178.759 191.661 178.848 191.65 178.936C191.639 179.019 191.621 179.107 191.603 179.19C191.603 179.201 191.598 179.22 191.598 179.231C191.592 179.255 191.586 179.284 191.574 179.314C191.574 179.343 191.569 179.378 191.556 179.408C191.551 179.449 191.539 179.491 191.527 179.532C191.509 179.609 191.493 179.679 191.469 179.756C191.469 179.768 191.464 179.786 191.458 179.797C191.423 179.927 191.382 180.057 191.336 180.18C191.336 180.186 191.336 180.193 191.33 180.199C191.307 180.263 191.289 180.322 191.261 180.388C191.243 180.441 191.22 180.494 191.197 180.553C191.192 180.565 191.185 180.583 191.179 180.601C191.11 180.761 191.04 180.925 190.958 181.079C190.935 181.126 190.906 181.185 190.877 181.238C190.848 181.292 190.819 181.338 190.789 181.392C190.76 181.439 190.737 181.492 190.702 181.539C190.644 181.639 190.58 181.74 190.516 181.834C190.475 181.899 190.434 181.952 190.399 182.011C190.301 182.147 190.202 182.271 190.103 182.394C190.027 182.489 189.952 182.577 189.876 182.66C189.8 182.748 189.72 182.831 189.638 182.914C189.603 182.956 189.562 182.991 189.522 183.032C189.487 183.067 189.453 183.102 189.411 183.132C189.371 183.173 189.324 183.215 189.277 183.256C189.266 183.267 189.248 183.279 189.236 183.291C189.125 183.391 189.009 183.486 188.893 183.574C188.882 183.58 188.869 183.592 188.858 183.604C188.765 183.668 188.672 183.74 188.573 183.805C188.538 183.828 188.509 183.852 188.48 183.869C188.428 183.904 188.375 183.94 188.324 183.97C188.283 184 188.242 184.023 188.195 184.047C188.148 184.077 188.103 184.106 188.056 184.13C187.73 184.319 187.387 184.478 187.032 184.608C187.008 184.613 186.985 184.626 186.968 184.631C186.945 184.637 186.916 184.649 186.892 184.655C186.811 184.685 186.729 184.714 186.642 184.738C186.497 184.785 186.351 184.821 186.206 184.856C186.13 184.874 186.055 184.891 185.979 184.909C185.932 184.921 185.881 184.927 185.834 184.933C185.776 184.945 185.712 184.957 185.654 184.968H185.636C185.583 184.974 185.531 184.986 185.485 184.992C185.461 184.992 185.438 184.998 185.416 184.998C185.375 185.003 185.334 185.009 185.288 185.015C185.265 185.015 185.241 185.02 185.212 185.02C185.125 185.026 185.032 185.033 184.944 185.039C184.816 185.044 184.688 185.05 184.561 185.05H184.165L96.8583 130.382C96.4804 130.146 96.1485 129.862 95.8757 129.555V129.549C94.2941 127.796 94.2941 125.063 95.8757 123.304V123.298C96.1495 122.992 96.4804 122.709 96.8583 122.473L101.924 119.297L104.582 117.633L175.254 73.382L182.919 68.5829H184.559C184.733 68.5829 184.902 68.5887 185.071 68.6067C185.1 68.601 185.134 68.6067 185.163 68.6124C185.326 68.6239 185.495 68.6419 185.652 68.6657C185.686 68.6714 185.728 68.6771 185.762 68.6838C185.902 68.7076 186.042 68.7371 186.175 68.7723C186.21 68.778 186.244 68.7837 186.28 68.7961C186.449 68.837 186.612 68.8846 186.774 68.9378C186.925 68.9854 187.082 69.0444 187.228 69.1034C187.437 69.1862 187.64 69.2861 187.838 69.3926C187.949 69.4459 188.059 69.5049 188.163 69.5696C188.35 69.6762 188.53 69.7941 188.699 69.9235C188.704 69.9178 188.704 69.9235 188.704 69.9235L189.077 70.2128C189.094 70.2251 189.111 70.2366 189.123 70.248C189.222 70.325 189.31 70.4078 189.397 70.4896C189.467 70.5486 189.531 70.6133 189.595 70.679C189.793 70.874 189.978 71.0805 190.154 71.305C190.235 71.4049 190.31 71.5058 190.381 71.6057C190.684 72.0243 190.939 72.4791 191.143 72.9634C191.201 73.0937 191.254 73.2288 191.306 73.3649C191.306 73.3706 191.312 73.3763 191.312 73.383C191.393 73.6018 191.457 73.8254 191.515 74.0499C191.544 74.1622 191.568 74.2688 191.591 74.3801C191.609 74.4686 191.626 74.5513 191.638 74.6398C191.655 74.7283 191.667 74.8168 191.678 74.9053C191.696 75.0118 191.707 75.1175 191.713 75.224C191.724 75.3125 191.731 75.4067 191.731 75.4952C191.736 75.6198 191.742 75.7502 191.742 75.8738Z" fill="#3B82F4"/>
<path opacity="0.29" d="M191.742 176.381V177.441C191.742 181.643 188.525 185.05 184.558 185.05H7.18409C3.2174 185.05 0.000732422 181.643 0.000732422 177.441V176.381L91.2328 115.466C94.0651 113.575 97.6717 113.575 100.504 115.466L191.742 176.381Z" fill="#474747" fill-opacity="0.1"/>
<path d="M191.742 176.747V177.762C191.742 181.788 188.525 185.051 184.558 185.051H7.18409C3.2174 185.051 0.000732422 181.787 0.000732422 177.762V176.747L91.2328 118.389C94.0651 116.578 97.6717 116.578 100.504 118.389L191.742 176.747Z" fill="#5B97EF"/>
<path d="M86.869 33.7479H33.4888C31.774 33.7479 30.3705 32.3245 30.3705 30.5843V29.239C30.3705 27.4988 31.774 26.0754 33.4888 26.0754H86.869C88.5837 26.0754 89.9862 27.4988 89.9862 29.239V30.5843C89.9862 32.3245 88.5837 33.7479 86.869 33.7479Z" fill="#3B82F4"/>
<path opacity="0.1" d="M206.482 58.6207C206.41 57.4733 205.426 56.5951 204.297 56.6683L124.928 61.788C123.798 61.8603 122.932 62.8584 123.004 64.0059L125.054 96.7241C125.126 97.8715 126.109 98.7497 127.239 98.6774L206.608 93.5577C207.737 93.4844 208.604 92.4863 208.531 91.3398L206.482 58.6207Z" fill="#232323"/>
<path d="M208.614 90.5489L129.246 95.6686C128.116 95.7418 127.133 94.8627 127.061 93.7162L125.011 60.998C124.939 59.8515 125.805 58.8535 126.935 58.7802L206.303 53.6605C207.433 53.5873 208.417 54.4664 208.489 55.6129L210.538 88.331C210.61 89.4775 209.744 90.4756 208.614 90.5489Z" fill="white"/>
<path d="M200.216 63.4979L165.581 65.7319C164.688 65.79 163.91 65.0945 163.853 64.1877L163.848 64.1049C163.791 63.1982 164.476 62.4085 165.369 62.3514L200.004 60.1174C200.897 60.0594 201.675 60.7549 201.732 61.6616L201.737 61.7444C201.794 62.6511 201.109 63.4399 200.216 63.4979Z" fill="#ECF3FE"/>
<path d="M200.677 70.8708L166.042 73.1048C165.149 73.1629 164.371 72.4674 164.315 71.5606L164.309 71.4778C164.252 70.5711 164.937 69.7814 165.83 69.7243L200.465 67.4904C201.358 67.4323 202.136 68.1278 202.193 69.0346L202.198 69.1173C202.256 70.0241 201.571 70.8138 200.677 70.8708Z" fill="#ECF3FE"/>
<path d="M201.139 78.2467L166.505 80.4808C165.612 80.5388 164.833 79.8433 164.777 78.9365L164.772 78.8538C164.714 77.947 165.4 77.1573 166.293 77.1002L200.927 74.8662C201.821 74.8082 202.599 75.5037 202.655 76.4104L202.661 76.4932C202.718 77.3999 202.033 78.1887 201.139 78.2467Z" fill="#ECF3FE"/>
<path d="M201.601 85.6196L166.967 87.8536C166.073 87.9117 165.295 87.2161 165.239 86.3094L165.233 86.2266C165.176 85.3199 165.862 84.5302 166.755 84.4731L201.389 82.2392C202.283 82.1811 203.061 82.8766 203.117 83.7833L203.123 83.8661C203.18 84.7728 202.495 85.5625 201.601 85.6196Z" fill="#ECF3FE"/>
<path d="M155.596 87.1151C161.566 81.0568 161.566 71.2344 155.596 65.1762C149.626 59.1179 139.948 59.1179 133.978 65.1762C128.008 71.2344 128.008 81.0568 133.978 87.1151C139.948 93.1733 149.626 93.1733 155.596 87.1151Z" fill="#ECF3FE"/>
<path d="M152.834 85.6978C152.048 86.4 151.17 86.9994 150.219 87.4779C149.737 87.7225 149.236 87.9346 148.72 88.1106C148.173 88.3009 147.607 88.4494 147.027 88.5578C146.555 88.6473 146.07 88.7081 145.579 88.7395C145.087 88.7709 144.599 88.7728 144.118 88.7452C141.874 88.6197 139.775 87.8699 138.003 86.6549C138.788 84.93 140.237 83.5609 142.032 82.9158H142.034C142.035 82.9139 142.037 82.9139 142.039 82.9139C142.346 82.8026 142.665 82.7131 142.993 82.6484C143.006 82.6446 143.02 82.6427 143.033 82.6399C143.32 82.5818 143.615 82.5438 143.916 82.5247L146.455 82.3611C146.755 82.3421 147.052 82.3421 147.344 82.362C147.357 82.3611 147.371 82.363 147.385 82.3659C147.718 82.3877 148.046 82.4353 148.366 82.5067H148.369V82.5086C150.23 82.9148 151.841 84.088 152.834 85.6978Z" fill="#727272"/>
<path d="M151.56 70.3741L152.081 78.6745C152.195 80.5031 150.829 82.0797 149.027 82.1957L141.339 82.6914C139.539 82.8075 137.986 81.4194 137.87 79.5907L137.35 71.2903C136.888 63.9186 144.014 63.793 144.014 63.793C144.014 63.793 145.858 63.5884 147.727 64.3658C149.398 65.0603 151.091 66.5455 151.493 69.6719C151.523 69.8965 151.545 70.1305 151.56 70.3741Z" fill="#302F2F"/>
<path d="M147.302 81.081L147.455 83.5214C147.519 84.5556 146.585 85.4671 145.377 85.5452C144.17 85.6232 143.129 84.8392 143.064 83.805L142.912 81.3645C142.884 80.9373 143.029 80.532 143.292 80.1961C143.353 80.1171 143.421 80.0429 143.495 79.9735C143.634 79.8393 143.798 79.7223 143.976 79.6271C144.274 79.4664 144.619 79.3645 144.989 79.3408C145.359 79.317 145.715 79.3731 146.031 79.4949C146.22 79.5672 146.394 79.6614 146.55 79.7765C146.558 79.7813 146.567 79.7879 146.574 79.7937C146.648 79.8488 146.716 79.9078 146.78 79.9716C147.083 80.2694 147.276 80.6538 147.302 81.081Z" fill="#F4B698"/>
<path opacity="0.28" d="M150.534 72.3258L150.756 75.8804C150.912 78.3779 149.473 80.6214 147.334 81.5795L147.393 82.5167C146.795 82.785 146.142 82.9525 145.454 82.9962L144.985 83.0267C144.296 83.0714 143.628 82.9886 143.002 82.7993L142.943 81.8621C140.701 81.1866 138.993 79.1457 138.837 76.6492L138.615 73.0946C138.517 71.4257 139.133 69.872 140.192 68.7436C141.155 67.7151 142.482 67.0386 143.977 66.9425L144.446 66.9121C145.789 66.8255 147.056 67.2213 148.085 67.9501C148.085 67.9501 148.085 67.9501 148.086 67.9501C149.462 68.9292 150.411 70.5038 150.534 72.3258Z" fill="black"/>
<path d="M150.476 71.4153L150.755 75.8805C150.832 77.1021 150.526 78.2619 149.946 79.2391C149.944 79.241 149.943 79.2429 149.943 79.2429C149.807 79.4693 149.657 79.6853 149.494 79.8918C149.177 80.2923 148.809 80.6501 148.397 80.9545C148.067 81.1981 147.712 81.4084 147.332 81.5796C146.734 81.8479 146.081 82.0144 145.394 82.0591L144.925 82.0896C144.238 82.1343 143.568 82.0534 142.944 81.8631C140.701 81.1876 138.993 79.1477 138.836 76.6492L138.558 72.2079C138.554 72.1461 138.552 72.0842 138.551 72.0224C138.491 70.3259 139.162 68.7599 140.285 67.6495C140.461 67.4745 140.65 67.3099 140.849 67.1567C141.711 66.4992 142.765 66.0787 143.917 66.0045L144.386 65.974C145.681 65.8903 146.909 66.2576 147.917 66.9407C148.455 67.3042 148.93 67.7551 149.32 68.2784C149.481 68.4925 149.626 68.7171 149.757 68.9521C150.167 69.6866 150.42 70.521 150.476 71.4153Z" fill="#F4B698"/>
<path d="M152.917 73.6204C152.997 74.9058 152.036 76.0143 150.769 76.0961L150.477 71.4416C150.795 71.4207 151.103 71.4673 151.385 71.5682C151.388 71.5691 151.389 71.5701 151.389 71.5701C152.231 71.8707 152.857 72.6585 152.917 73.6204Z" fill="#F4B698"/>
<path d="M152.043 73.6755C152.092 74.4709 151.497 75.1579 150.713 75.2083L150.532 72.3264C151.317 72.275 151.993 72.8792 152.043 73.6755Z" fill="#E29586"/>
<path d="M148.368 82.5071V82.509L147.026 88.5592C146.554 88.6486 146.07 88.7095 145.578 88.7409C145.086 88.7723 144.599 88.7742 144.118 88.7466L142.032 82.9172V82.9153L143.244 82.8372L143.29 82.8791L145.328 84.763L147.118 82.6327L147.158 82.5851L148.368 82.5071Z" fill="#565656"/>
<path d="M138.559 72.2077L138.851 76.8621C137.585 76.9439 136.493 75.9687 136.412 74.6824C136.343 73.5768 137.044 72.6025 138.048 72.2999C138.083 72.2895 138.119 72.279 138.154 72.2714C138.173 72.2676 138.192 72.2638 138.211 72.26C138.324 72.2343 138.439 72.2153 138.559 72.2077Z" fill="#F4B698"/>
<path d="M137.285 74.627C137.335 75.4224 138.011 76.0266 138.795 75.9762L138.614 73.0942C137.831 73.1456 137.235 73.8316 137.285 74.627Z" fill="#E29586"/>
<path d="M150.218 87.4806C149.736 87.7251 149.236 87.9373 148.719 88.1133L148.685 87.5795L150.218 87.4806Z" fill="#565656"/>
<path opacity="0.2" d="M145.327 84.7639L147.108 85.8799L148.368 82.5071L145.327 84.7639Z" fill="#363636"/>
<path d="M148.368 82.5067L147.071 85.7663L145.327 84.7635L147.156 82.5847L147.395 82.3012L148.368 82.5067Z" fill="#EEEEEE"/>
<path opacity="0.2" d="M142.032 82.9132L143.687 86.0986L145.327 84.7619L142.032 82.9132Z" fill="#363636"/>
<path d="M145.327 84.7641L143.725 85.9829L142.032 82.9154L142.971 82.5872L143.243 82.8374L145.327 84.7641Z" fill="#EEEEEE"/>
<path d="M151.55 70.2188C147.297 70.8068 147.458 66.8584 147.784 64.9127C149.455 65.6072 151.148 67.0924 151.55 70.2188Z" fill="#302F2F"/>
<path d="M149.155 66.9502C149.023 67.1985 147.719 69.9834 145.069 70.1547C142.418 70.3259 138.311 72.2127 138.35 74.8996C138.389 77.5864 134.519 66.934 142.515 65.5677C150.511 64.2024 149.155 66.9502 149.155 66.9502Z" fill="#302F2F"/>
<path opacity="0.1" d="M213.599 52.3392L205.981 20.4792C205.714 19.3622 204.596 18.6705 203.495 18.9417L126.209 37.9724C125.108 38.2436 124.427 39.3787 124.694 40.4957L132.311 72.3557C132.578 73.4727 133.697 74.1644 134.798 73.8932L212.084 54.8624C213.183 54.5913 213.866 53.4562 213.599 52.3392Z" fill="#232323"/>
<path d="M213.821 51.9795L136.535 71.0103C135.434 71.2814 134.316 70.5888 134.048 69.4727L126.431 37.6128C126.164 36.4958 126.846 35.3607 127.946 35.0895L205.232 16.0588C206.333 15.7877 207.451 16.4803 207.719 17.5963L215.336 49.4563C215.603 50.5723 214.922 51.7084 213.821 51.9795Z" fill="#A51C30"/>
<path d="M159.076 59.9452C164.991 53.9427 164.991 44.2107 159.076 38.2082C153.162 32.2056 143.572 32.2056 137.657 38.2082C131.742 44.2107 131.742 53.9427 137.657 59.9452C143.572 65.9477 153.162 65.9477 159.076 59.9452Z" fill="white"/>
<path d="M151.413 62.6259C151.327 62.6468 151.247 62.6668 151.164 62.6773L151.16 62.6782C148.608 63.2243 146.071 62.9598 143.795 62.0626C144.235 60.1169 145.47 58.4034 147.207 57.4034L147.212 57.4025C147.499 57.236 147.8 57.0894 148.113 56.9686C148.399 56.8554 148.697 56.7574 149.006 56.6813L151.499 56.0676C151.804 55.9924 152.113 55.9401 152.419 55.9087L152.423 55.9078C152.755 55.8697 153.089 55.8592 153.42 55.8735C154.827 55.9306 156.174 56.412 157.29 57.2341C157.715 57.5433 158.106 57.9086 158.456 58.3082C156.9 60.1636 154.826 61.5974 152.388 62.3614C152.278 62.3975 152.167 62.4299 152.051 62.4584C152.034 62.467 152.016 62.4717 151.999 62.4765L151.994 62.4775C151.972 62.4879 151.95 62.4927 151.923 62.4955C151.906 62.5041 151.883 62.5098 151.86 62.5107C151.777 62.5412 151.687 62.5631 151.598 62.585L151.536 62.6002L151.46 62.6192L151.437 62.6249L151.413 62.6259Z" fill="#002349"/>
<path d="M141.347 48.1046C141.347 48.1046 138.519 39.7385 143.089 38.4351C147.66 37.1316 149.259 35.4818 150.457 35.6055C151.655 35.7292 154.361 43.296 154.43 44.8839C154.5 46.47 141.347 48.1046 141.347 48.1046Z" fill="#002349"/>
<path d="M152.119 54.6467L152.692 57.0405C152.934 58.0547 152.164 59.1251 150.98 59.4162C149.796 59.7083 148.627 59.1156 148.385 58.1004L147.812 55.7066C147.712 55.2879 147.784 54.8598 147.988 54.4802C148.035 54.3917 148.089 54.3051 148.15 54.2242C148.267 54.0663 148.407 53.9217 148.567 53.7951C148.836 53.583 149.16 53.4203 149.524 53.3308C149.887 53.2414 150.249 53.2347 150.583 53.2985C150.783 53.3365 150.973 53.3993 151.147 53.485C151.155 53.4888 151.165 53.4935 151.174 53.4983C151.255 53.5401 151.334 53.5868 151.408 53.6381C151.761 53.8808 152.018 54.228 152.119 54.6467Z" fill="#F4CB95"/>
<path d="M153.814 45.3888L154.648 48.8758C155.234 51.3258 154.192 53.8062 152.236 55.1373L152.456 56.0573C151.908 56.4293 151.29 56.7119 150.616 56.8775L150.155 56.9907C149.48 57.1572 148.803 57.1943 148.149 57.1172L147.929 56.1972C145.589 55.9251 143.543 54.2039 142.957 51.7549L142.124 48.2678C141.739 46.6295 142.082 44.9796 142.938 43.6724C143.715 42.4821 144.916 41.5744 146.383 41.2138L146.843 41.1006C148.16 40.7762 149.486 40.9436 150.632 41.484C150.632 41.484 150.632 41.484 150.633 41.484C152.166 42.209 153.379 43.6029 153.814 45.3888Z" fill="#D8A471"/>
<path d="M153.6 44.4992L154.647 48.8796C154.909 49.9757 154.848 51.0794 154.521 52.0812C154.471 52.2392 154.409 52.3933 154.346 52.5427C154.269 52.7292 154.186 52.9061 154.089 53.0802C153.647 53.8985 153.013 54.6064 152.238 55.1382C151.689 55.5083 151.069 55.7947 150.394 55.9603L149.937 56.0725C149.262 56.239 148.582 56.2723 147.931 56.1981C145.589 55.926 143.544 54.203 142.959 51.7568L141.872 47.2127C141.523 45.5458 141.92 43.8684 142.842 42.5697C142.99 42.3603 143.146 42.1653 143.318 41.9836C144.059 41.1758 145.033 40.5735 146.164 40.2947L146.622 40.1825C147.499 39.9665 148.385 39.9656 149.219 40.1625C149.386 40.1996 149.55 40.2377 149.712 40.2919C149.909 40.3547 150.101 40.4251 150.292 40.5117C151.892 41.2243 153.158 42.6543 153.6 44.4992Z" fill="#F4CB95"/>
<path d="M156.403 46.2491C156.705 47.5097 155.94 48.7799 154.699 49.0853L153.608 44.5203C153.919 44.4433 154.232 44.4347 154.53 44.4851C154.533 44.4851 154.534 44.4861 154.534 44.4861C155.42 44.6354 156.178 45.3062 156.403 46.2491Z" fill="#EDC28E"/>
<path d="M155.546 46.4604C155.732 47.2406 155.26 48.0274 154.491 48.2168L153.815 45.39C154.584 45.2007 155.359 45.6793 155.546 46.4604Z" fill="#D8A471"/>
<path d="M141.917 47.3997L143.008 51.9647C141.767 52.2701 140.515 51.4966 140.214 50.2359C139.955 49.1513 140.484 48.06 141.426 47.5814C141.459 47.5643 141.491 47.5481 141.526 47.5348C141.544 47.5272 141.562 47.5205 141.58 47.5129C141.688 47.4672 141.8 47.4282 141.917 47.3997Z" fill="#EDC28E"/>
<path d="M141.07 50.0255C141.257 50.8057 142.032 51.2852 142.801 51.0959L142.125 48.2691C141.355 48.4585 140.884 49.2453 141.07 50.0255Z" fill="#D8A471"/>
<path d="M153.6 44.4984L154.647 48.8789C154.91 49.9749 154.849 51.0786 154.521 52.0804C154.471 52.2384 154.409 52.3925 154.346 52.5419C153.488 44.0065 151.835 43.1464 149.907 43.6383C147.831 44.1606 146.739 41.6831 146.739 41.6831L149.712 40.2921C149.909 40.3549 150.101 40.4253 150.292 40.5119C151.893 41.2235 153.158 42.6536 153.6 44.4984Z" fill="#E5B67F"/>
<path d="M153.079 58.6555L153.853 59.4699L152.388 62.3604C152.278 62.3966 152.167 62.4289 152.051 62.4574C152.034 62.466 152.016 62.4708 151.998 62.4755L151.994 62.4765C151.972 62.4869 151.95 62.4917 151.923 62.4946L152.611 58.0589L152.613 58.0485L152.727 57.3178L152.731 57.3121L152.741 57.2369L152.459 56.0562L154.144 57.8144L153.136 58.6108L153.079 58.6555Z" fill="#CC8E2B"/>
<path d="M151.534 62.5979L151.597 62.5827C151.686 62.5608 151.776 62.5389 151.859 62.5085C151.882 62.5075 151.905 62.5018 151.922 62.4933C151.95 62.4914 151.972 62.4856 151.993 62.4752L151.998 62.4742L152.166 61.9519L153.058 59.1404L152.884 58.4087L153.281 57.7722L152.785 56.8455C152.785 56.8455 152.764 56.933 152.705 57.0862L152.699 57.0976L152.701 57.1072C152.548 57.5391 152.168 58.4259 151.473 59.0452C151.319 59.1746 151.159 59.3002 150.97 59.4001C150.678 59.3906 150.4 59.3335 150.142 59.2479C149.336 58.9891 148.695 58.4449 148.403 58.1566L148.396 58.149C148.275 58.0396 148.216 57.972 148.216 57.972L148.194 59.0262L148.834 59.4068L149.009 60.1384L150.783 61.9329L151.454 62.6141L151.459 62.6179L151.534 62.5979Z" fill="white"/>
<path d="M153.136 58.6133L153.853 59.4706L152.051 62.4581C152.034 62.4667 152.016 62.4714 151.998 62.4762L151.994 62.4771C151.972 62.4876 151.95 62.4924 151.922 62.4952C151.906 62.5038 151.883 62.5095 151.86 62.5104L152.524 58.2537L152.523 58.2489L152.701 57.1091L152.699 57.0996L152.705 57.0882L152.423 55.9074L154.145 57.816L153.044 58.5058L153.136 58.6133Z" fill="#E4ECF9"/>
<path d="M151.413 62.6233C151.327 62.6442 151.247 62.6642 151.164 62.6746L151.16 62.6756L148.45 60.7984L148.769 59.7147L148.699 59.7032L147.443 59.4644L148.147 57.1172L148.394 58.1486L148.429 58.2989L148.436 58.3065L148.459 58.3398L148.465 58.3474L148.911 58.964L148.912 58.9687L151.534 62.5985L151.458 62.6176L151.435 62.6233H151.413Z" fill="#CC8E2B"/>
<path d="M151.413 62.6248L148.451 60.7999L148.701 59.7048L148.734 59.5659L147.445 59.4651L148.113 56.9685L148.149 57.1179L148.395 58.1492L148.402 58.1568L149.082 59.0959L149.082 59.1007L151.598 62.5839L151.535 62.5991L151.459 62.6182L151.437 62.6239L151.413 62.6248Z" fill="#E4ECF9"/>
<path d="M149.915 39.369C149.915 39.369 146.901 39.2006 146.357 39.3338C145.813 39.467 145.128 39.7058 144.113 40.2348C143.098 40.7638 141.759 42.3508 141.759 42.3508L141.595 43.014C141.469 43.2338 141.343 43.4802 141.348 43.5411C141.352 43.5982 141.357 43.7856 141.361 43.9569L141.225 44.5039C141.257 44.482 141.335 44.4354 141.427 44.3707L141.683 44.8008C141.699 44.7903 142.038 43.8389 142.889 43.0663C144.009 42.3185 145.633 41.799 147.011 42.3813C149.515 43.4393 153.254 41.5421 153.254 41.5421L149.915 39.369Z" fill="#002349"/>
<path d="M200.844 26.494L167.118 34.7982C166.248 35.0123 165.363 34.4652 165.152 33.5823L165.133 33.5014C164.922 32.6185 165.461 31.7203 166.331 31.5062L200.057 23.202C200.927 22.9879 201.812 23.535 202.023 24.418L202.042 24.4988C202.253 25.3818 201.714 26.2799 200.844 26.494Z" fill="white"/>
<path d="M202.56 33.6754L168.834 41.9795C167.964 42.1936 167.079 41.6465 166.868 40.7636L166.849 40.6827C166.638 39.7998 167.177 38.9016 168.047 38.6876L201.772 30.3834C202.642 30.1693 203.527 30.7164 203.738 31.5993L203.758 31.6802C203.969 32.5631 203.43 33.4613 202.56 33.6754Z" fill="white" fill-opacity="0.8"/>
<path d="M204.277 40.8567L170.551 49.1609C169.681 49.3749 168.796 48.8279 168.585 47.9449L168.565 47.8641C168.354 46.9811 168.893 46.083 169.763 45.8689L203.489 37.5647C204.359 37.3507 205.244 37.8977 205.455 38.7807L205.475 38.8615C205.687 39.7445 205.147 40.6417 204.277 40.8567Z" fill="white" fill-opacity="0.8"/>
<path d="M205.993 48.038L172.268 56.3422C171.398 56.5563 170.513 56.0092 170.302 55.1263L170.282 55.0454C170.071 54.1625 170.61 53.2643 171.48 53.0502L205.206 44.7461C206.076 44.532 206.961 45.0791 207.172 45.962L207.192 46.0429C207.403 46.9258 206.864 47.824 205.993 48.038Z" fill="white" fill-opacity="0.8"/>
<defs>
<filter id="filter0_d_120_218" x="6.99121" y="13" width="174.575" height="174.433" filterUnits="userSpaceOnUse" color-interpolation-filters="sRGB">
<feFlood flood-opacity="0" result="BackgroundImageFix"/>
<feColorMatrix in="SourceAlpha" type="matrix" values="0 0 0 0 0 0 0 0 0 0 0 0 0 0 0 0 0 0 127 0" result="hardAlpha"/>
<feOffset dy="4"/>
<feGaussianBlur stdDeviation="2"/>
<feComposite in2="hardAlpha" operator="out"/>
<feColorMatrix type="matrix" values="0 0 0 0 0 0 0 0 0 0 0 0 0 0 0 0 0 0 0.1 0"/>
<feBlend mode="normal" in2="BackgroundImageFix" result="effect1_dropShadow_120_218"/>
<feBlend mode="normal" in="SourceGraphic" in2="effect1_dropShadow_120_218" result="shape"/>
</filter>
</defs>
</svg>
