<svg id="Layer_1" data-name="Layer 1" xmlns="http://www.w3.org/2000/svg" viewBox="0 0 243.668 91.308"><defs><style>.cls-3{fill:#32409a}.cls-4{fill:#44ade2}.cls-3{fill-rule:evenodd}</style></defs><path d="M84.093 72.317v-.604c.791-.016 1.342-.141 1.65-.376.41-.32.615-.922.615-1.81V56.53c0-.285-.066-.46-.198-.528-.059-.016-.25-.025-.572-.025-2.082 0-3.313 1.24-3.695 3.72h-.527l.132-4.726h13.811l.132 4.727h-.528c-.381-2.48-1.613-3.721-3.694-3.721-.308 0-.492.009-.55.025-.147.067-.22.243-.22.528v12.996c0 .856.205 1.442.615 1.76.337.268.902.41 1.694.427v.604h-8.665zm11.436 0v-.604c.762-.033 1.246-.15 1.451-.351.278-.268.418-.889.418-1.86V57.786c0-.972-.14-1.592-.418-1.86-.205-.201-.689-.319-1.451-.352v-.604h7.829v.604c-.762.033-1.247.15-1.451.351-.28.27-.418.89-.418 1.861v4.977h5.674v-4.977c0-.972-.14-1.592-.418-1.86-.205-.201-.69-.319-1.451-.352v-.604h7.828v.604c-.763.033-1.246.15-1.451.351-.279.27-.418.89-.418 1.861V69.5c0 .972.139 1.593.418 1.861.205.2.688.318 1.451.351v.604h-7.828v-.604c.761-.033 1.246-.15 1.45-.351.28-.268.419-.889.419-1.86V63.92h-5.674v5.58c0 .972.139 1.593.418 1.861.204.2.689.318 1.451.351v.604h-7.83zm35.121-17.346v.604c-.66 0-1.107.188-1.341.566-.235.376-.352.96-.352 1.747v6.938c0 4.072-1.188 6.56-3.563 7.466a7.416 7.416 0 01-2.66.477c-3.124 0-5.272-1.021-6.444-3.066a5.78 5.78 0 01-.792-2.917v-9.024c0-.956-.147-1.567-.44-1.836-.22-.2-.748-.318-1.583-.351v-.604h8.158v.604c-.791.033-1.312.16-1.561.377-.323.285-.483.888-.483 1.81v9.401c0 1.308.355 2.326 1.065 3.055.711.729 1.646 1.093 2.805 1.093 2.888 0 4.332-2.165 4.332-6.495v-6.95c0-.873-.179-1.477-.539-1.813s-.935-.495-1.726-.478v-.604h5.124zm-7.016-1.156h-.22c-.058-.419.03-.913.265-1.483.16-.402.241-.871.241-1.408 0-.922-.226-1.383-.681-1.383-.293 0-.44.143-.44.428 0 .033.05.15.154.352.102.2.154.36.154.477 0 .402-.19.604-.572.604-.396 0-.594-.26-.594-.78 0-.921.557-1.382 1.672-1.382 1.188 0 1.781.494 1.781 1.483 0 .687-.352 1.29-1.056 1.81-.469.352-.704.78-.704 1.282zm12.426 18.502v-.604c.762-.033 1.246-.15 1.452-.351.278-.268.417-.889.417-1.86V57.786c0-.972-.139-1.592-.417-1.86-.206-.201-.69-.319-1.452-.352v-.604h6.795c1.862 0 3.204.101 4.026.302 1.29.319 2.455.99 3.496 2.011 1.554 1.526 2.332 3.57 2.332 6.134 0 2.699-.829 4.919-2.485 6.661-.91.955-1.951 1.584-3.124 1.886-.923.235-2.404.352-4.442.352h-6.598zm5.96-14.63v10.96c0 1.223.08 1.97.242 2.237.218.369.788.553 1.709.553 2.863 0 4.295-2.648 4.295-7.943 0-2.062-.285-3.746-.855-5.053-.76-1.727-1.95-2.59-3.572-2.59-.775 0-1.257.084-1.446.252-.248.217-.373.746-.373 1.583zm10.622 14.63v-.604c.718-.1 1.239-.402 1.562-.904.116-.185.402-.863.857-2.036l5.52-14.254h.748l5.454 12.82c.38.922.762 1.844 1.144 2.766.572 1.073 1.246 1.608 2.023 1.608v.604h-8.356v-.604c.54 0 .907-.033 1.098-.1.44-.15.66-.453.66-.905 0-.268-.293-1.147-.88-2.64l-.285-.729h-5.52c-.543 1.241-.814 2.205-.814 2.892 0 .989.66 1.482 1.98 1.482v.604h-5.19zm5.037-20.262l-1.98-1.382c-.558-.386-.835-.754-.835-1.107 0-.184.069-.355.209-.515.138-.159.289-.239.45-.239.338 0 .638.176.901.528l2.09 2.715h-.835zm-.615 14.28h4.639l-2.396-5.856-2.243 5.856zm1.274-12.645l1.892-3.068h1.364l1.89 3.068h-.923l-1.627-1.71-1.694 1.71h-.902zm28.194 1.281v.604c-.66 0-1.107.188-1.34.566-.236.376-.353.96-.353 1.747v6.938c0 4.072-1.188 6.56-3.563 7.466a7.416 7.416 0 01-2.66.477c-3.124 0-5.272-1.021-6.444-3.066a5.78 5.78 0 01-.792-2.917v-9.024c0-.956-.147-1.567-.44-1.836-.22-.2-.748-.318-1.583-.351v-.604h8.159v.604c-.792.033-1.313.16-1.562.377-.323.285-.483.888-.483 1.81v9.401c0 1.308.355 2.326 1.066 3.055.71.729 1.646 1.093 2.804 1.093 2.888 0 4.332-2.165 4.332-6.495v-6.95c0-.873-.179-1.477-.538-1.813-.36-.335-.935-.495-1.727-.478v-.604h5.124zm5.321 17.346v-.604c.793 0 1.306-.41 1.54-1.232.103-.384.154-1.189.154-2.412V57.51c0-.805-.146-1.341-.44-1.61-.204-.183-.623-.293-1.254-.326v-.604h6.05l3.785 11.12 3.97-11.12h6.076v.604c-.761.033-1.246.15-1.451.351-.279.27-.418.89-.418 1.861V69.5c0 .972.14 1.593.418 1.861.205.2.69.318 1.451.351v.604h-7.609v-.604c.763-.033 1.246-.15 1.452-.351.278-.268.419-.889.419-1.86V57.132h-.044l-5.455 15.184h-.726l-5.168-15.184v11.765c0 1.073.11 1.785.33 2.136.278.454.858.68 1.737.68v.603h-4.817zm20.915-8.673c0-2.665.744-4.852 2.232-6.561 1.488-1.71 3.399-2.564 5.73-2.564 2.332 0 4.241.854 5.73 2.564 1.487 1.71 2.231 3.896 2.231 6.561s-.744 4.852-2.232 6.56c-1.488 1.711-3.397 2.565-5.73 2.565-2.33 0-4.24-.854-5.729-2.564-1.488-1.709-2.232-3.896-2.232-6.56zm4.443.227c0 2.246.153 3.938.46 5.077.524 1.96 1.543 2.942 3.059 2.942 1.515 0 2.536-.981 3.059-2.942.306-1.139.46-2.831.46-5.077 0-2.313-.154-4.073-.46-5.28-.539-2.128-1.558-3.192-3.06-3.192-1.5 0-2.52 1.064-3.059 3.192-.306 1.207-.459 2.967-.459 5.28zm.923-10.433l1.892-3.067h1.364l1.891 3.067h-.923l-1.628-1.71-1.694 1.71h-.902zm1.1 21.896c0-.453.14-.84.418-1.157.279-.318.616-.477 1.012-.477s.733.159 1.012.477c.278.318.417.704.417 1.157 0 .452-.139.838-.417 1.156-.28.318-.616.478-1.012.478s-.733-.16-1.012-.478a1.693 1.693 0 01-.418-1.156zm13.086-3.017v-.604c.79-.016 1.341-.141 1.649-.376.41-.32.616-.922.616-1.81V56.53c0-.285-.067-.46-.199-.528-.058-.016-.249-.025-.572-.025-2.081 0-3.313 1.24-3.694 3.72h-.528l.132-4.726h13.812l.132 4.727h-.528c-.381-2.48-1.613-3.721-3.695-3.721-.308 0-.491.009-.55.025-.146.067-.22.243-.22.528v12.996c0 .856.205 1.442.616 1.76.337.268.902.41 1.694.427v.604h-8.666zM84.855 46.683v-.391c.586-.011.993-.092 1.22-.244.305-.207.457-.597.457-1.173v-8.418c0-.184-.05-.298-.147-.341a2.866 2.866 0 00-.423-.017c-1.542 0-2.453.803-2.735 2.41h-.391l.098-3.061h10.225l.097 3.061h-.39c-.283-1.607-1.195-2.41-2.736-2.41-.227 0-.363.006-.407.017-.108.043-.163.157-.163.341v8.418c0 .554.152.934.456 1.14.25.174.668.266 1.254.277v.39h-6.415zm9.313 0v-.391c.554-.011.928-.108 1.124-.294.195-.184.293-.559.293-1.123v-7.604c0-.619-.109-1.02-.326-1.205-.152-.13-.527-.206-1.123-.228v-.39h3.76c2.4 0 3.881.065 4.446.195.694.163 1.26.467 1.694.912.477.489.716 1.075.716 1.758 0 .684-.271 1.287-.814 1.808-.467.456-1.059.781-1.775.977l1.97 3.077c.174.282.434.695.781 1.238.402.585.766.879 1.092.879v.39h-3.778l-3.126-5.275h-.488v3.468c0 .554.09.926.268 1.116.179.19.54.29 1.083.3v.392h-5.797zm4.446-9.786v3.94c1.986.098 2.979-.716 2.979-2.442 0-.695-.168-1.254-.505-1.677-.369-.467-.895-.7-1.58-.7-.357 0-.596.057-.715.17-.12.114-.18.35-.18.709zm20.841-1.059c-.49 0-.82.123-.994.367-.174.244-.26.621-.26 1.132v4.494c0 2.637-.88 4.25-2.638 4.836a6.228 6.228 0 01-1.97.309c-2.312 0-3.903-.662-4.77-1.987-.392-.597-.587-1.226-.587-1.889v-5.845c0-.619-.109-1.015-.326-1.189-.162-.13-.553-.206-1.172-.228v-.39h6.04v.39c-.586.022-.97.104-1.156.245-.238.184-.358.575-.358 1.172v6.09c0 .847.263 1.506.79 1.978.526.472 1.218.708 2.076.708 2.138 0 3.207-1.402 3.207-4.207v-4.502c0-.565-.132-.956-.398-1.174-.266-.217-.692-.32-1.278-.31v-.39h3.777c.12-.12.18-.266.18-.44 0-.25-.142-.374-.424-.374-.131 0-.245.076-.342.228l-.163-.147c.141-.358.434-.537.88-.537.423 0 .634.214.634.641 0 .417-.25.757-.748 1.02zm9.85-.146c.326-.195.488-.423.488-.684 0-.25-.141-.374-.422-.374-.13 0-.245.076-.342.228l-.164-.147c.141-.358.435-.537.88-.537.423 0 .634.211.634.634 0 .424-.255.766-.764 1.026.966.51 1.709 1.23 2.23 2.158s.782 1.951.782 3.07c0 1.725-.552 3.142-1.653 4.249-1.101 1.107-2.516 1.66-4.241 1.66-1.726 0-3.14-.553-4.242-1.66-1.102-1.107-1.653-2.524-1.653-4.25s.55-3.142 1.653-4.25c1.102-1.107 2.516-1.66 4.242-1.66.911 0 1.769.179 2.572.537zm-5.177 5.52c0 1.454.113 2.55.34 3.289.387 1.27 1.143 1.905 2.265 1.905 1.121 0 1.877-.635 2.265-1.905.227-.738.34-1.835.34-3.29 0-1.497-.113-2.637-.34-3.419-.399-1.378-1.155-2.068-2.265-2.068-1.111 0-1.867.69-2.266 2.068-.226.782-.34 1.922-.34 3.42zm2.263-6.953l-1.466-.895c-.413-.25-.618-.489-.618-.717 0-.119.051-.23.154-.334a.467.467 0 01.334-.154c.25 0 .472.114.668.342l1.546 1.758h-.618zm7.521 12.424v-.391c.956-.043 1.434-.56 1.434-1.547v-7.88c-.327-.424-.521-.668-.586-.733-.261-.24-.544-.337-.848-.294v-.39H138l6.009 6.708v-4.77c0-.598-.133-1.008-.4-1.23-.265-.222-.697-.328-1.294-.318v-.39h3.729v.39c-.836.044-1.255.56-1.255 1.547v9.59l-.395.005-8.266-9.181v6.944c0 .609.152 1.027.455 1.255.272.207.717.305 1.335.294v.39h-4.005zm25.499-4.902v.391c-.39-.043-.695.076-.911.359-.185.238-.278.559-.278.96v2.459c-1.508.684-3.142 1.026-4.901 1.026-1.726 0-3.18-.56-4.364-1.677-1.215-1.14-1.822-2.568-1.822-4.283 0-1.769.656-3.207 1.97-4.314 1.248-1.032 2.773-1.547 4.574-1.547.901 0 1.77.174 2.606.52.26.11.482.163.667.163.37 0 .635-.227.798-.683h.391v3.81h-.439a5.213 5.213 0 00-1.381-2.177c-.725-.709-1.483-1.064-2.275-1.064-1.223 0-2.161.576-2.81 1.727-.542.955-.813 2.11-.813 3.468 0 1.4.25 2.594.746 3.582.639 1.27 1.586 1.905 2.84 1.905.607 0 1.002-.244 1.186-.733.108-.282.161-.824.161-1.628 0-.684-.13-1.159-.39-1.425s-.738-.415-1.433-.448v-.39h5.878zm5.113 4.902v-.391c.564-.022.922-.098 1.075-.228.205-.174.308-.575.308-1.205v-3.826h-1.383v-.945h1.383v-2.817c0-.63-.103-1.03-.308-1.205-.153-.13-.51-.206-1.075-.228v-.39h5.031c1.378 0 2.371.065 2.98.195a5.812 5.812 0 012.588 1.303c1.151.988 1.727 2.312 1.727 3.973 0 1.747-.614 3.185-1.84 4.315a4.98 4.98 0 01-2.312 1.22c-.684.153-1.78.229-3.29.229h-4.884zm4.412-9.477v2.882h2.735v.945h-2.735v3.273c0 .792.059 1.275.179 1.449.161.238.584.358 1.265.358 2.12 0 3.18-1.715 3.18-5.146 0-1.335-.211-2.426-.632-3.273-.563-1.117-1.444-1.676-2.645-1.676-.574 0-.93.054-1.07.162-.185.141-.277.484-.277 1.026zm9.199 9.477v-.391c.532-.065.917-.261 1.156-.586.087-.12.299-.56.635-1.32l4.087-9.231h.554l4.037 8.304.848 1.79c.423.695.922 1.043 1.497 1.043v.39h-6.187v-.39c.402 0 .673-.022.814-.065.326-.098.489-.293.489-.586 0-.174-.217-.744-.652-1.71l-.211-.472h-4.087c-.402.803-.603 1.427-.603 1.872 0 .64.489.96 1.466.96v.392h-3.843zm3.274-3.876h3.435l-1.775-3.792-1.66 3.792zm.91 5.585c0-.293.104-.543.31-.749.207-.206.456-.309.749-.309s.542.103.749.31c.206.205.31.455.31.748s-.104.543-.31.75c-.207.205-.456.309-.75.309s-.541-.104-.748-.31a1.02 1.02 0 01-.31-.749zm9.379-1.709v-.391c.565-.022.923-.098 1.075-.228.207-.174.31-.575.31-1.205v-7.588c0-.63-.103-1.03-.31-1.205-.152-.13-.51-.206-1.075-.228v-.39h5.797v.39c-.565.022-.923.098-1.075.228-.205.174-.309.576-.309 1.205v7.588c0 .63.104 1.031.309 1.205.152.13.51.206 1.075.228v.39h-5.797zm10.568 0v-.391c.565-.022.922-.098 1.075-.228.205-.174.308-.575.308-1.205v-7.588c0-.63-.103-1.03-.308-1.205-.153-.13-.51-.206-1.075-.228v-.39h5.797v.39c-.565.022-.923.098-1.075.228-.207.174-.31.576-.31 1.205v3.224h4.2v-3.224c0-.63-.102-1.03-.309-1.205-.152-.13-.51-.206-1.074-.228v-.39h5.796v.39c-.564.022-.922.098-1.074.228-.206.174-.31.576-.31 1.205v7.588c0 .63.104 1.031.31 1.205.152.13.51.206 1.074.228v.39h-5.796v-.39c.564-.022.922-.098 1.074-.228.207-.174.31-.575.31-1.205v-3.615h-4.201v3.615c0 .63.103 1.031.31 1.205.152.13.51.206 1.075.228v.39h-5.797zm14.263-5.618c0-1.726.55-3.142 1.653-4.25 1.101-1.107 2.516-1.66 4.241-1.66s3.14.553 4.241 1.66 1.654 2.524 1.654 4.25-.552 3.143-1.654 4.25-2.515 1.66-4.24 1.66-3.14-.553-4.242-1.66c-1.103-1.107-1.653-2.524-1.653-4.25zm3.29.147c0 1.454.112 2.55.339 3.289.388 1.27 1.144 1.905 2.265 1.905 1.122 0 1.878-.635 2.266-1.905.226-.738.339-1.835.339-3.29 0-1.497-.113-2.637-.34-3.419-.398-1.378-1.154-2.068-2.265-2.068s-1.867.69-2.265 2.068c-.227.782-.34 1.922-.34 3.42zm1.497 7.424c0-.293.103-.542.31-.748.205-.207.455-.31.749-.31.293 0 .542.103.748.31.207.206.31.455.31.748 0 .294-.103.543-.31.75a1.02 1.02 0 01-.748.309c-.294 0-.544-.103-.75-.31a1.02 1.02 0 01-.31-.749zm18.953-13.466v3.86h-.423c-.346-.875-.823-1.604-1.43-2.187-.714-.68-1.494-1.02-2.339-1.02-1.84 0-2.761 1.712-2.761 5.136 0 3.436.92 5.154 2.761 5.154 1.668 0 3.07-.793 4.207-2.378v1.124c-.477.662-1.122 1.183-1.936 1.563-.772.37-1.58.554-2.427.554-1.759 0-3.18-.545-4.266-1.634-1.085-1.09-1.629-2.513-1.629-4.268 0-1.724.557-3.147 1.67-4.27 1.112-1.121 2.531-1.666 4.258-1.633.802.01 1.66.196 2.573.556.216.085.407.128.57.128.422 0 .683-.228.78-.684h.392z" fill="#32409a"/><path class="cls-4" d="M85.397 84.016h-2.744v-.995h6.62v.995h-2.744v7.007h-1.132v-7.007zm12.049-.995v8.002h-1.143v-3.567h-4.596v3.567h-1.143v-8.002h1.143v3.44h4.596v-3.44h1.143zm3.269 7.179c-.594-.61-.892-1.486-.892-2.629v-4.55h1.144v4.504c0 1.715.75 2.572 2.252 2.572.731 0 1.291-.212 1.68-.634.39-.424.583-1.07.583-1.938v-4.504h1.11v4.55c0 1.15-.298 2.028-.893 2.635-.594.606-1.425.909-2.492.909s-1.897-.305-2.492-.915zm11.385-7.179h3.373c.846 0 1.596.168 2.253.502a3.704 3.704 0 011.526 1.413c.362.606.542 1.301.542 2.086 0 .785-.18 1.48-.542 2.086a3.697 3.697 0 01-1.526 1.412c-.657.336-1.407.503-2.253.503h-3.372v-8.002zm3.304 7.008c.648 0 1.218-.126 1.71-.377.492-.252.87-.604 1.137-1.058s.4-.978.4-1.572c0-.595-.133-1.118-.4-1.571s-.645-.807-1.138-1.058c-.491-.251-1.06-.377-1.709-.377h-2.16v6.013h2.16zm11.284-1.006h-4.252l-.881 2h-1.177L124 83.021h1.132l3.635 8.002h-1.2l-.88-2zm-.4-.915l-1.727-3.921-1.725 3.92h3.452zm4.538 2.092c-.595-.61-.893-1.486-.893-2.629v-4.55h1.144v4.504c0 1.715.75 2.572 2.251 2.572.733 0 1.293-.212 1.682-.634.388-.424.583-1.07.583-1.938v-4.504h1.108v4.55c0 1.15-.297 2.028-.891 2.635-.595.606-1.425.909-2.492.909s-1.898-.305-2.492-.915zm18.804.823l-.012-5.83-2.892 4.859h-.525l-2.892-4.824v5.795h-1.098v-8.002h.937l3.339 5.624 3.292-5.624h.937l.012 8.002h-1.098zm4.973-.44a3.932 3.932 0 01-1.527-1.469 4.035 4.035 0 01-.554-2.092c0-.77.185-1.467.554-2.092a3.94 3.94 0 011.527-1.47c.648-.353 1.375-.53 2.183-.53.801 0 1.525.177 2.173.53a3.913 3.913 0 011.52 1.465c.366.62.548 1.32.548 2.097s-.182 1.476-.548 2.098a3.918 3.918 0 01-1.52 1.463c-.648.355-1.372.532-2.173.532-.808 0-1.535-.177-2.183-.532zm3.766-.886a2.928 2.928 0 001.11-1.103c.27-.468.406-.993.406-1.572s-.136-1.103-.406-1.571a2.94 2.94 0 00-1.11-1.104 3.14 3.14 0 00-1.583-.4 3.21 3.21 0 00-1.595.4c-.476.267-.85.635-1.12 1.104-.27.468-.406.992-.406 1.57s.135 1.105.406 1.573c.27.469.644.837 1.12 1.103a3.21 3.21 0 001.595.4 3.14 3.14 0 001.583-.4zm6.043-5.681h-2.744v-.995h6.619v.995h-2.744v7.007h-1.131v-7.007zm9.11 6.184c-.594-.61-.892-1.486-.892-2.629v-4.55h1.144v4.504c0 1.715.75 2.572 2.251 2.572.732 0 1.292-.212 1.682-.634.388-.424.582-1.07.582-1.938v-4.504h1.109v4.55c0 1.15-.297 2.028-.891 2.635-.595.606-1.426.909-2.493.909-1.066 0-1.897-.305-2.492-.915zm15.148-7.179v8.002h-.938l-4.801-5.968v5.968h-1.143v-8.002h.937l4.802 5.967v-5.967h1.143zm2.445 0h1.144v8.002h-1.144v-8.002zm10.541 0l-3.51 8.002h-1.132l-3.52-8.002h1.234l2.881 6.574 2.903-6.574h1.144zm7.042 7.008v.994h-5.808v-8.002h5.647v.995h-4.503v2.458h4.012v.972h-4.012v2.583h4.664zm7.247.994l-1.727-2.457a7.328 7.328 0 01-.502.022h-1.978v2.435h-1.143v-8.002h3.121c1.036 0 1.852.247 2.446.743.595.495.891 1.178.891 2.046 0 .617-.152 1.143-.457 1.577-.305.435-.739.752-1.303.95l1.898 2.686h-1.246zm-.607-3.875c.381-.312.572-.759.572-1.338s-.19-1.023-.572-1.331c-.38-.309-.932-.463-1.656-.463h-1.944v3.6h1.944c.724 0 1.276-.155 1.656-.468zm4.202 3.687c-.56-.187-1.001-.429-1.32-.727l.422-.89c.305.273.696.497 1.173.667a4.29 4.29 0 001.468.258c.663 0 1.158-.113 1.487-.337.327-.226.49-.525.49-.897a.889.889 0 00-.267-.67 1.81 1.81 0 00-.664-.394 12.194 12.194 0 00-1.114-.308 11.483 11.483 0 01-1.458-.434 2.404 2.404 0 01-.949-.67c-.263-.301-.395-.707-.395-1.217 0-.426.113-.812.338-1.155.225-.343.565-.617 1.023-.822.457-.207 1.025-.309 1.703-.309.473 0 .938.06 1.395.183.458.12.85.297 1.178.526l-.377.913a4.176 4.176 0 00-2.196-.651c-.648 0-1.133.118-1.457.355-.324.236-.485.54-.485.915 0 .274.091.497.274.668.183.172.41.305.68.4.27.096.638.197 1.102.303.603.145 1.087.29 1.453.435.365.145.68.365.943.662.263.298.394.698.394 1.2 0 .42-.114.803-.343 1.15-.229.346-.575.62-1.04.823-.464.202-1.036.303-1.715.303a5.49 5.49 0 01-1.744-.28zm6.556-7.814h1.143v8.002h-1.143v-8.002zm5.179.995h-2.744v-.995h6.618v.995h-2.743v7.007h-1.131v-7.007zm8.23 4.241v2.766h-1.131v-2.79l-3.178-5.212h1.222l2.56 4.218 2.574-4.218h1.13l-3.177 5.236z"/><path class="cls-3" d="M73.125 44.5c.704-1.638 1.574-1.56 2.2-2.773v27.615C72.1 74.9 68.759 74.119 63.38 80.667c3.555-7.356 9.205-8.08 9.619-12.411.051-8.17.074-15.585.126-23.756zm-30.72 0c-.705-1.638-1.575-1.56-2.202-2.773v27.615c3.226 5.559 6.568 4.777 11.946 11.325-3.555-7.356-9.205-8.08-9.619-12.411-.051-8.17-.074-15.585-.126-23.756zM56.647 56c-3.904-8.895-8.72-8.946-11.48-15.98v25.133c2.226 8.543 8.457 7.39 11.79 17.841l-.187-16.32a2.91 2.91 0 01-.064-5.505L56.647 56zm2.173 5.234l.048.021.008.004.014.006.04.019.024.011.027.014.03.015.047.025.008.004.006.003.046.026.019.01.042.026.009.005.006.004.045.028.008.005.007.004.045.03.013.01.038.025.013.01.006.004.042.03.009.007.007.005.038.03.018.013.04.032.007.006.005.004.04.034.008.007.008.008.038.033.012.01.045.043.005.004.037.037.008.008.008.008.033.033.014.015.041.045.004.004.035.039.008.009.026.03.008.01.019.023.027.034.009.01.003.005.032.041.007.01.007.01.03.04.008.012.035.05.001.002.003.004.029.044.007.01.005.009.028.046.007.01.026.045.007.01.002.004.03.056.005.007.024.047.006.01.01.02.021.044.002.003.022.047.006.014.004.01.018.04.012.029.002.005.02.046v.003l.02.05v.003l.01.025.016.045.004.014.014.043.006.019v.002l.004.01.016.055.001.004.017.061.002.008.017.068v.001l.012.053.003.016.002.012.01.049.003.018.01.065.008.055v.005l.006.037.003.025.003.037v.005l.006.055v.007l.004.066v.003l.003.057v.03l.001.06v.063l-.001.032-.002.043-.001.02-.004.056v.014l-.006.056v.007l-.003.029-.004.032-.005.036v.008l-.007.048-.01.062-.002.01-.002.01-.01.048-.005.027-.01.044-.003.016c-.01.044-.022.088-.034.132l-.003.011-.014.045-.005.017-.004.014a2.782 2.782 0 01-.04.115l-.005.016-.016.042-.01.026-.002.005-.02.049-.001.001-.005.013-.022.048-.003.007-.025.053-.005.012-.025.049-.004.009-.002.004-.03.057-.003.004-.027.049-.01.018c-.02.035-.042.07-.064.104l-.004.007-.005.008-.032.049-.003.004-.035.05-.004.005-.006.01-.032.043-.003.004-.03.039-.005.006-.016.022-.028.035-.01.011-.04.047-.002.002v.001l-.035.04-.012.012-.01.011-.029.031-.013.014-.044.045-.001.002-.039.037-.01.01-.012.011-.028.027-.018.016-.04.036-.005.004-.005.004-.04.034-.002.002-.027.021-.02.016-.027.022-.024.018-.026.02-.043.032-.006.004-.01.007-.04.028-.018.011-.035.024-.017.01-.052.033-.003.002-.01.006-.044.026-.02.01-.033.02-.025.013-.005.003-.047.025-.049.024-.004.002-.034.016-.02.01-.033.015-.024.01-.032.014-.05.02-.188 16.382c3.333-10.45 9.564-9.298 11.79-17.84V40.02c-2.76 7.033-7.576 7.084-11.48 15.979l-.06 5.234z"/><path d="M51.04 85.236v5.987h-1.112v-5.056H48.66v-.931h2.378zm5.119.684c.453.513.68 1.249.68 2.207 0 .673-.123 1.247-.368 1.723a2.56 2.56 0 01-1.03 1.087c-.443.248-.955.371-1.536.371a3.63 3.63 0 01-.868-.098 2.347 2.347 0 01-.706-.286l.41-.838c.297.193.676.29 1.138.29.576 0 1.027-.176 1.351-.53.326-.353.488-.864.488-1.53v-.01a1.67 1.67 0 01-.676.466 2.549 2.549 0 01-.924.158 2.4 2.4 0 01-1.06-.227 1.736 1.736 0 01-.736-.645 1.766 1.766 0 01-.265-.966c0-.388.097-.729.29-1.023a1.94 1.94 0 01.788-.68 2.537 2.537 0 011.112-.239c.82 0 1.458.257 1.912.77zm-.95 1.847a.928.928 0 00.338-.736c0-.29-.11-.531-.33-.722-.219-.191-.522-.286-.91-.286-.348 0-.63.092-.847.277a.925.925 0 00-.325.74c0 .314.108.562.325.745.216.181.508.273.873.273.359 0 .651-.096.876-.29zm6.857-2.531v.744l-2.327 5.243H58.55l2.25-5.047h-2.352v1.018h-1.035v-1.958h4.653zm4.294 2.518c.313.152.558.367.735.647.177.279.265.601.265.966 0 .388-.097.728-.29 1.022a1.928 1.928 0 01-.787.68 2.537 2.537 0 01-1.113.24c-.821 0-1.458-.257-1.912-.77-.453-.514-.68-1.25-.68-2.207 0-.673.123-1.247.368-1.724a2.548 2.548 0 011.031-1.086c.442-.248.954-.372 1.536-.372.308 0 .597.032.868.098.27.066.506.161.706.287l-.41.838c-.297-.194-.677-.291-1.139-.291-.576 0-1.026.177-1.351.53-.325.354-.488.864-.488 1.531v.01c.177-.206.402-.361.676-.467.274-.105.582-.159.924-.159.393 0 .747.076 1.06.227zm-.402 2.404a.925.925 0 00.325-.74c0-.313-.109-.561-.325-.744-.218-.182-.508-.273-.873-.273-.36 0-.652.096-.877.29a.928.928 0 00-.338.736c0 .291.11.532.33.723.219.191.523.286.91.286.349 0 .63-.093.848-.278z" fill="#2e3192"/><path class="cls-4" d="M90.513 3.854C68.406 14.481 58.856 38.946 58.856 38.946c-2.143-5.496-4.007-9.2-7.265-12.928-8.977-10.46-25.21-11.247-25.21-11.247 19.158 8.312 23.987 26.893 25.053 32.726 1.875 1.879 3.904 4.172 5.71 8.285l.046.212.06 5.57a2.383 2.383 0 00.453 4.723 2.38 2.38 0 00.585-4.687l.097-5.818c.992-2.26 2.053-3.963 3.118-5.358-.064-1.018-.388-4.612-1.954-9.474 7.025-18.647 25.496-26.31 36.136-29.236 3.547-.975 9.225-1.787 12.455-2.334 5.937-1.004 7.82-3.225 7.7-5.183-.235-3.876-10.08-6.936-25.327-.343z"/><path class="cls-3" d="M60.146 41.043c1.784 5.64 1.91 9.504 1.915 9.668v.452c.24-.333.48-.655.722-.955l.018-.411c.923-20.324 22.27-32.046 35.562-37.622.766-.314 1.475-.616 2.16-.913-8.763 1.793-32.033 8.544-40.377 29.781z"/><path class="cls-3" d="M58.815 37.377c1.76-4.086 11.48-24.819 31.358-34.374A50.76 50.76 0 0196.636.7C68.531 4.846 59.007 28.294 57.265 31.956 43.578 3.255 22.664 3.876 19.127 3.876 7.487 4.348 2.912 7.256.995 9.772c-2.311 3.033-.141 5.604 1.9 5.688 2.277.094 5.419-.164 8.534-.717 2.178-.387 10.62-1.762 14.952-1.406 7.74.636 13.374 2.612 17.182 4.788 3.508 2.005 10.94 7.942 15.252 19.252z"/></svg>