<svg width="220" height="204" fill="none" xmlns="http://www.w3.org/2000/svg"><path d="M205.743 114.037c0 32.944-17.772 61.906-44.249 77.473 0 0-.181.181-.363.181-1.813 1.086-3.627 1.991-5.44 2.896-.907.543-1.813.905-2.72 1.267l-1.088.543h-.182c-.362.181-.906.362-1.269.543-2.72 1.267-5.622 2.173-8.524 3.078-.362.181-.906.362-1.269.362-.181 0-.363.181-.544.181-.181 0-.363 0-.363.181-.181 0-.362 0-.544.181-3.808 1.086-7.798 1.81-11.969 2.353-3.808.543-7.616.724-11.425.724-6.166 0-12.15-.543-17.953-1.81-.363 0-.726-.181-1.088-.181-1.27-.181-2.54-.543-3.809-.905l-3.808-1.086c-5.078-1.63-10.156-3.621-14.87-5.974-29.017-15.024-48.784-45.253-48.784-80.007 0-49.778 40.441-89.963 90.131-89.963 49.871 0 90.13 40.185 90.13 89.963z" fill="#141B4D"/><path d="M107.814 73.129c-8.705-7.06-13.238-18.825-11.606-29.867 1.813-12.49 10.699-14.843 15.233-12.852 3.264 1.448 5.259 5.792 3.446 9.05-3.083 5.793-14.871 3.44-17.228-6.516-.907-3.62 0-7.602 2.176-10.68 3.627-4.887 10.337-6.697 16.321-7.602 1.27-.181 2.72-.362 4.171-.543 3.264-.362 7.254-.905 11.425-1.448" stroke="#BFD3CC" stroke-miterlimit="10" stroke-linecap="round" stroke-linejoin="round"/><path d="M140.819 15.024l-5.622 2.534.907-9.594" fill="#1D634A" fill-opacity=".2"/><path d="M176.908 3.258l-2.539 1.448-29.378 16.472-7.617-11.222-1.269-1.991L130.664 0l41.529 2.896 4.715.362z" fill="#E8EFED"/><path d="M176.909 3.258l-2.539 1.448-36.995 5.25-1.27-1.991 36.089-5.069 4.715.362z" fill="#1D634A" fill-opacity=".2"/><path d="M28.689 61.31a4.523 4.523 0 002.91-5.703 4.535 4.535 0 00-5.713-2.904 4.523 4.523 0 00-2.91 5.702 4.535 4.535 0 005.713 2.905zm9.895-14.765a3.076 3.076 0 001.979-3.878 3.084 3.084 0 00-3.885-1.975 3.076 3.076 0 00-1.979 3.877 3.084 3.084 0 003.885 1.976zM75.836 25.29a6.87 6.87 0 00.438-9.718 6.9 6.9 0 00-9.736-.438 6.87 6.87 0 00-.438 9.718 6.9 6.9 0 009.736.438zM217.43 60.582a2.893 2.893 0 00.184-4.092 2.905 2.905 0 00-4.099-.184 2.893 2.893 0 00-.185 4.092 2.906 2.906 0 004.1.184z" fill="#E8EFED"/><path d="M142.815 150.783v49.778c-.362.181-.725.181-1.088.362-4.171 1.086-8.523 1.991-12.875 2.534v-52.674h13.963z" fill="#4988FD"/><path d="M142.815 150.783v49.778c-.362.181-.725.181-1.088.362-4.171 1.086-8.523 1.991-12.875 2.534v-52.674h13.963z" fill="#fff"/><path d="M155.691 150.783v43.986c-.907.543-1.814.905-2.721 1.267l-1.088.543h-.181c-.363.181-.907.362-1.269.543-2.721 1.267-5.622 2.172-8.524 3.077v-49.416h13.783z" fill="#2767F4"/><path d="M155.691 150.783v43.986c-.907.543-1.814.905-2.721 1.267l-1.088.543h-.181c-.363.181-.907.362-1.269.543-2.721 1.267-5.622 2.172-8.524 3.077v-49.416h13.783z" fill="#E8EFED"/><path opacity=".4" d="M155.691 150.783h-26.839v15.567h26.839v-15.567z" fill="#E8EFED"/><path d="M212.635 95.755v55.752h-43.523v.181h-87.23v-100.1h82.877c1.088-.18 2.176-.18 3.446-.18 1.451 0 2.72 0 4.171.18 1.813.181 3.446.362 5.078.724 8.523 1.81 16.14 6.155 22.124 11.947a44.445 44.445 0 0113.057 31.496z" fill="#F0EAE0"/><path d="M177.998 107.521c5.508 0 9.974-4.457 9.974-9.956 0-5.498-4.466-9.955-9.974-9.955-5.509 0-9.975 4.457-9.975 9.955 0 5.499 4.466 9.956 9.975 9.956z" fill="#fff"/><path d="M182.894 88.696c3.083 1.629 5.259 5.068 5.259 8.87 0 5.611-4.533 9.955-9.974 9.955a9.935 9.935 0 01-9.974-9.956c0-2.534.907-4.706 2.358-6.516" stroke="#182052" stroke-miterlimit="10" stroke-linecap="round" stroke-linejoin="round"/><path d="M125.224 91.41v60.278h-88.86V91.411c0-19.006 13.42-34.935 31.191-38.918 2.902-.724 5.803-.905 8.886-.905h9.068c19.948 0 36.451 14.481 39.534 33.669 0 1.81.181 3.982.181 6.154z" fill="#F0EAE0"/><path d="M175.82 49.235h5.078v47.968c0 1.448-1.088 2.534-2.539 2.534s-2.539-1.086-2.539-2.534V59.01" fill="#fff"/><path d="M175.82 49.235h5.078v47.968c0 1.448-1.088 2.534-2.539 2.534s-2.539-1.086-2.539-2.534V59.01" stroke="#182052" stroke-miterlimit="10" stroke-linecap="round" stroke-linejoin="round"/><path d="M204.474 48.511c.725.543.362 1.81-.726 1.81h-29.016v-19.73h29.016c.907 0 1.451 1.086.726 1.81l-7.617 6.335a2.22 2.22 0 000 3.44l7.617 6.335z" fill="#C33130"/><path d="M104.369 185.718c-2.539 3.801-5.622 9.955-7.435 15.205-.182.362-.363.905-.363 1.267-1.27-.181-2.539-.543-3.808-.905-1.088-2.535-1.814-5.25-1.814-5.25.726-.905 1.27-1.629 1.995-2.353 3.446-4.344 7.073-7.24 11.425-7.964z" fill="#BFD3CC"/><path d="M97.659 202.371c-.363 0-.726-.181-1.089-.181-1.269-.181-2.538-.543-3.808-.905-.907-.181-1.632-.543-2.539-.724-.362-.181-.725-.181-1.088-.362-.363-.181-.725-.181-1.27-.362-4.714-1.448-9.248-3.44-13.6-5.612-4.534-7.602-7.073-17.015-11.425-29.867 0-.181 0-.181-.182-.362 0 0 .363 0 1.27.362.544.362 1.45.724 2.538 1.449 2.177 1.448 5.622 3.982 10.7 8.145 6.347 5.249 11.788 13.033 15.596 19.549 1.632 2.896 3.083 5.431 4.171 7.422.363.362.544.905.726 1.448z" fill="#E8EFED"/><path d="M90.223 200.38c-.362-.181-.725-.181-1.088-.362-.363-.181-.725-.181-1.27-.362-8.341-16.834-17.771-27.514-23.393-33.668-.544-.724-1.088-1.268-1.632-1.811 0-.181 0-.181-.182-.362 0 0 .363 0 1.27.362.544.362 1.45.724 2.538 1.449 5.804 6.516 15.415 17.558 23.757 34.754z" fill="#BFD3CC"/><path d="M142.814 200.561h.363c-.182 0-.544.181-.726.181 0-.181.182-.181.363-.181zm.545-.181c.181 0 .181 0 .362-.181-.181 0-.544.181-.725.181h.363z" fill="#D5DAE8"/><path d="M175.094 160.738l-.545 1.086c-2.176 3.983-9.611 17.74-13.057 29.505 0 0-.181.181-.362.181-1.814 1.086-3.627 1.991-5.441 2.897-.907.543-1.813.905-2.72 1.267l-1.088.543h-.182c-.362.181-.906.362-1.269.543-2.72 1.267-5.622 2.172-8.523 3.077-.363.181-.907.362-1.27.362-.181 0-.362.181-.544.181-.181 0-.363 0-.363.181.726-2.353 1.451-4.706 2.358-6.697 2.72-7.06 6.166-12.671 10.156-17.378 1.269-1.448 2.538-2.896 3.808-4.163 5.259-5.249 10.881-8.688 16.14-10.499.725-.362 1.813-.724 2.902-1.086z" fill="#E8EFED"/><path d="M175.095 160.738l-.544 1.086c-6.891 5.974-13.238 15.386-18.86 27.514-.907 2.172-1.814 4.163-2.72 6.517l-1.089.543h-.181c-.363.181-.907.362-1.269.543a2.24 2.24 0 01.362-.543c1.632-3.983 3.265-7.784 4.897-11.223 4.896-9.956 10.337-17.92 16.14-23.351l3.264-1.086z" fill="#BFD3CC"/><path d="M140.096 199.113c.544-1.81 1.088-3.439 1.813-5.068 2.72-7.06 6.166-12.671 10.156-17.378 1.269-1.448 2.539-2.896 3.808-4.163 5.259-5.249 10.881-8.688 16.14-10.498l3.264-1.087-.544 1.087c-1.994 3.801-8.704 16.11-12.331 27.513" stroke="#BFD3CC" stroke-miterlimit="10" stroke-linecap="round" stroke-linejoin="round"/><path d="M150.069 200.742c-.363.905-.544 1.81-.907 2.715" stroke="#fff" stroke-miterlimit="10"/><path d="M72.995 191.872c-3.808-7.24-6.347-16.11-10.156-27.876 0-.181 0-.181-.18-.362 0 0 .362 0 1.269.362.544.362 1.45.724 2.538 1.449 2.177 1.448 5.622 3.982 10.7 8.145 6.347 5.249 11.788 13.033 15.596 19.549 1.632 2.896 3.083 5.431 4.171 7.422" stroke="#BFD3CC" stroke-miterlimit="10" stroke-linecap="round" stroke-linejoin="round"/><path d="M125.224 85.076c-3.083-19.007-19.948-33.669-39.897-33.669H76.26c-3.083 0-5.985.362-8.886.905-12.694 2.897-23.031 11.766-28.11 23.35.545-.361 1.452-.542 3.265-.723 4.897-9.956 14.145-17.558 25.389-20.092 2.539-.544 5.44-.906 8.16-.906h9.068c18.498 0 33.912 13.214 36.814 31.316.363 1.81.544 3.8.544 5.792v57.562h-83.42v-15.929c-1.451 0-2.177-.181-2.72-.362v19.006h89.404V91.411c0-2.172-.181-4.344-.544-6.335z" fill="#051040"/><path d="M125.768 145.352v6.336H4.264C2.451 151.688 1 150.24 1 148.61c0-1.81 1.45-3.258 3.264-3.258h121.504z" fill="#F0EAE0"/><path d="M36.363 133.587v11.946H4.446a3.248 3.248 0 00-3.264 3.259c0 1.81 1.45 3.077 3.264 3.077H169.11v-.181h43.524V95.755c0-12.309-5.078-23.35-13.058-31.315-5.984-5.973-13.601-10.136-22.124-11.947-1.632-.362-3.446-.543-5.078-.724-1.451-.18-2.72-.18-4.171-.18-1.088 0-2.176 0-3.446.18h-76.71c-.907 0-1.814-.18-2.72-.18H76.26c-3.083 0-5.984.361-8.886.904-11.969 2.715-21.943 10.68-27.202 21.54" stroke="#182052" stroke-miterlimit="10" stroke-linecap="round" stroke-linejoin="round"/><path d="M111.078 126.165c0 3.801-3.083 6.878-6.891 6.878-71.09 0-66.555.362-68.913-1.086-1.995-1.267-3.264-3.439-3.264-5.792 4.17-47.244 3.445-46.701 6.347-49.416 2.72-2.353-1.088-1.63 69.638-1.63 2.176 0 4.171 1.087 5.44 2.535 2.358 3.077 1.814 1.99-2.357 48.511z" fill="#fff"/><path d="M114.162 78.74c-.363.362-.726.543-1.088.905-34.82 29.505-34.094 30.048-39.172 30.048-5.259 0-5.078-.543-29.197-23.532" stroke="#182052" stroke-miterlimit="10" stroke-linecap="round" stroke-linejoin="round"/><path d="M111.078 126.165c0 3.801-3.083 6.878-6.891 6.878-71.09 0-66.555.362-68.913-1.086-1.995-1.267-3.264-3.439-3.264-5.792 4.17-47.244 3.445-46.701 6.347-49.416 2.72-2.353-1.088-1.63 69.638-1.63 2.176 0 4.171 1.087 5.44 2.535 2.358 3.077 1.814 1.99-2.357 48.511z" stroke="#182052" stroke-miterlimit="10" stroke-linecap="round" stroke-linejoin="round"/><path d="M27.658 88.696H4.083a2.01 2.01 0 01-1.995-1.992 2.01 2.01 0 011.995-1.99h23.575a2.01 2.01 0 011.995 1.99 2.01 2.01 0 01-1.995 1.992zm-1.089 11.222H12.968a2.01 2.01 0 01-1.995-1.991 2.01 2.01 0 011.994-1.991H26.57a2.01 2.01 0 011.995 1.991 2.01 2.01 0 01-1.995 1.991zm-1.268 10.68h-7.617a2.01 2.01 0 01-1.995-1.991 2.01 2.01 0 011.995-1.991h7.798a2.01 2.01 0 011.995 1.991c0 1.086-.907 1.991-2.176 1.991z" fill="#C33130"/><path d="M100.742 110.055h-8.16c-.545 0-.907.362-.907.905l-.182 1.086c-1.995 1.086-3.264.362-4.896-.362-1.632-.724-3.627-1.629-5.622.543-.544.543-.363 1.267.181 1.81.544.543 1.27.362 1.814-.181.544-.724.907-.724 2.539.181 1.088.543 2.357 1.086 3.99 1.086.543 0 1.088 0 1.632-.181l-.182 1.991c-1.45.544-2.72 0-3.99-.724-1.632-.724-3.627-1.629-5.44.543-.544.544-.363 1.268.181 1.811.544.543 1.27.362 1.814-.181.544-.543.907-.543 2.539.181 1.088.543 2.357 1.086 3.99 1.086h.906c.181.362.544.724.907.724h8.161c.544 0 .906-.362.906-.905l1.088-8.146c-.181-.724-.544-1.267-1.269-1.267zm-1.995 7.422c0 .181-.181.543-.544.543H93.67c-.362 0-.544-.362-.544-.543l.182-1.449.181-1.991.181-.905c0-.181.182-.543.544-.543h4.534c.363 0 .544.362.544.543l-.544 4.345z" fill="#E8EFED"/><path d="M122.504 92.316v53.036h-72.54" stroke="url(#paint0_linear_5594_697)" stroke-miterlimit="10" stroke-linecap="round" stroke-linejoin="round"/><path d="M128.852 152.955v42.357m26.839-30.772v-11.585" stroke="#BFD3CC" stroke-miterlimit="10" stroke-linecap="round" stroke-linejoin="round"/><defs><linearGradient id="paint0_linear_5594_697" x1="120.473" y1="119.659" x2="31.25" y2="126.456" gradientUnits="userSpaceOnUse"><stop stop-color="#8026F2"/><stop offset=".815" stop-color="#26F4D0"/></linearGradient></defs></svg>