<svg width="180" height="180" fill="none" xmlns="http://www.w3.org/2000/svg"><path fill-rule="evenodd" clip-rule="evenodd" d="M158.902 100.648l2.734-7.248-24.193-5.856-3.638 7.27-56.83-12.05-5.823 15.52-28.143-7.077 13.936 61.079 72.927 23.214 38.394-72.542-9.364-2.31z" fill="#205CD4"/><path fill-rule="evenodd" clip-rule="evenodd" d="M79.238 43.246l-4.623 10.727S90 51.667 98.713 53.474c14.065 2.918 4.732 18.305 4.732 18.305l-8.91-.927 8.531 25.11 24.225-19.777-9.732-1.677s9.187-13.14-.947-24.646c-11.446-13-37.374-6.616-37.374-6.616z" fill="#54D6FF"/><path fill-rule="evenodd" clip-rule="evenodd" d="M157.968 20.64l-21.903-5.7s-14.337 11.112-6.358 31.728l20.245 4.266s-8.623-20.394 8.016-30.294zM11.734 103.927L30.1 97.225s8.195 16.581 12.38 23.285L26.71 132.8s-6.979-8.51-14.976-28.873zm38.167-63.325L49.617 67.5s-32.143 11.926-35.91 13.716c0 0-2.668-21.656-1.8-29.399 0 .003 21.821-8.303 37.994-11.215z" fill="#fff"/><path d="M87.13 20.953s-19.472 11.7-21.39 13.116c0 0-8.71-14.508-10.46-19.228 0 0 13.47-8.29 23.137-11.492l8.714 17.604z" fill="#fff"/><path d="M87.535 20.754L78.82 3.15a.444.444 0 00-.545-.228C68.67 6.104 55.179 14.374 55.044 14.457a.45.45 0 00-.186.54c1.745 4.706 10.14 18.71 10.496 19.305a.45.45 0 00.654.13c1.877-1.384 21.16-12.975 21.355-13.092a.45.45 0 00.172-.586zM65.88 33.426C64.49 31.09 57.627 19.5 55.835 15.03c2.07-1.25 13.7-8.177 22.352-11.129l8.357 16.88c-2.59 1.558-17.559 10.571-20.664 12.645z" fill="#111827"/><path opacity=".5" fill-rule="evenodd" clip-rule="evenodd" d="M15.14 77.75s-1.35-19.17-.908-24.272c0 0 22.727-7.52 33.382-10.204V65.55L15.14 77.751zm51.31-47.848s-6.608-11.371-7.844-14.472c0 0 12.51-6.547 18.655-9.115l6.75 13.342-17.56 10.245z" fill="#54D6FF"/><path fill-rule="evenodd" clip-rule="evenodd" d="M14.765 71.933l7.188-11.024 8.96 6.327 9.209-11.886 7.56 8.556-.072 1.644-32.47 12.2-.375-5.818zM66.45 29.902l-2.112-3.684 1.674-7.076 7.818 2.862 2.244-7.589 7.252 3.89.684 1.35-17.56 10.247zM21.363 54.11a2.494 2.494 0 010 4.966 2.495 2.495 0 010-4.966zM63.44 15.167a2.35 2.35 0 012.213 1.286c.41.821.083 1.58-.728 1.692a2.348 2.348 0 01-2.211-1.287c-.41-.821-.084-1.579.727-1.69z" fill="#205CD4"/><path d="M58.748 76.266l6.259.522a16.316 16.316 0 00.338 10.903L60.34 89.19s-3.026-4.904-1.592-12.924zM17.69 18.305a42.3 42.3 0 00-2.137 6.07l8.898 4.399a47.044 47.044 0 013.18-6.536l-9.941-3.933zM153.116 75.25s2.316-3.474 4.921-7.548l5.895 1.996a70.43 70.43 0 01-4.691 7.328l-6.125-1.776z" fill="#E7F7EF"/><path d="M125.55 111.813a.45.45 0 00-.339-.403L43.119 90.77a.45.45 0 00-.548.54l13.936 61.079a.45.45 0 00.301.329c75.756 24.132 72.954 23.232 73.062 23.232a.447.447 0 00.331-.144.46.46 0 00.119-.34l-4.77-63.653zm-68.22 40.123L43.611 91.822l81.062 20.382 4.7 62.665-72.043-22.933z" fill="#fff"/><path d="M102.638 96.106a.451.451 0 00.426.305c.237 0-.351.423 7.914-6.328a.45.45 0 00-.239-.798.453.453 0 00-.331.1l-7.126 5.818-2.662-7.84a.449.449 0 00-.571-.282.45.45 0 00-.282.572l2.871 8.453zm55.443-75.901L136.178 14.5a.443.443 0 00-.389.079c-.146.113-14.509 11.558-6.501 32.246a.45.45 0 00.326.278l20.245 4.267a.45.45 0 00.507-.616c-.085-.2-8.28-20.14 7.83-29.729a.447.447 0 00.216-.448.451.451 0 00-.331-.373zm-8.839 30.117l-19.203-4.05c-7.11-18.702 4.582-29.52 6.136-30.844l20.667 5.382c-13.814 9.025-8.94 25.707-7.6 29.512z" fill="#111827"/><path d="M136.607 18.829c16.276 4.144 15.319 3.905 15.412 3.905a.452.452 0 00.444-.394.448.448 0 00-.333-.492l-15.3-3.891a.449.449 0 00-.49.664.45.45 0 00.268.208h-.001zm13.219 6.003l-15.588-3.796a.456.456 0 00-.355.04.454.454 0 00-.154.636.446.446 0 00.296.197l15.588 3.797a.454.454 0 00.491-.16.441.441 0 00.085-.346.454.454 0 00-.363-.367zm-2.141 3.083l-15.589-3.795a.453.453 0 00-.568.324.444.444 0 00.059.35.457.457 0 00.295.199l15.589 3.796a.452.452 0 00.565-.506.457.457 0 00-.187-.297.452.452 0 00-.164-.07zm-2.23 7.238l-15.585-3.795a.451.451 0 10-.212.873l15.588 3.796a.449.449 0 00.502-.674.453.453 0 00-.29-.2h-.003zm0 3.797l-15.585-3.797a.447.447 0 00-.484.164.446.446 0 00-.083.342.46.46 0 00.189.297.45.45 0 00.166.07l15.588 3.797a.449.449 0 00.502-.674.453.453 0 00-.29-.2h-.003zm0 3.8l-15.585-3.8a.449.449 0 00-.567.505.46.46 0 00.189.298c.05.034.106.058.166.07l15.588 3.796a.447.447 0 00.483-.164.433.433 0 00.077-.162.444.444 0 00-.182-.477.457.457 0 00-.166-.07l-.003.004zM13.904 81.624c3.702-1.76 35.55-13.58 35.87-13.7a.45.45 0 00.293-.417l.284-26.9a.448.448 0 00-.529-.45c-16.029 2.886-37.857 11.16-38.07 11.24a.45.45 0 00-.288.37c-.861 7.707 1.695 28.62 1.8 29.504a.45.45 0 00.64.353zm-1.574-29.48c2.475-.934 22.171-8.224 37.116-11l-.276 26.044c-3.28 1.218-29.746 11.055-35.085 13.369-.416-3.517-2.446-21.337-1.755-28.414z" fill="#111827"/><path d="M15.3 78.172L47.842 65.97a.45.45 0 00.293-.423c0-.21.015 2.437-.143-22.275a.45.45 0 00-.562-.432c-10.547 2.655-33.113 10.135-33.34 10.21a.45.45 0 00-.307.389c-.441 5.079.853 23.56.908 24.343a.45.45 0 00.609.39zm.25-1.055a910.27 910.27 0 01-.322-5.063l6.849-10.507 8.58 6.057a.45.45 0 00.614-.09l8.876-11.456 7.085 8.01v1.17l-31.683 11.88zm-.89-23.31c2.605-.86 22.433-7.366 32.499-9.958v18.848l-6.698-7.643a.45.45 0 00-.692.021L30.821 66.62l-8.61-6.077a.449.449 0 00-.636.121l-6.439 9.877c-.333-5.807-.694-13.525-.479-16.73l.003-.004zm51.4-23.679a.45.45 0 00.389.224c.189 0-1.006.638 17.786-10.306a.45.45 0 00.175-.592c-13.602-26.934-1.537-3.06-6.75-13.342a.45.45 0 00-.575-.213c-6.086 2.547-18.562 9.068-18.688 9.131a.45.45 0 00-.208.566c1.233 3.096 7.601 14.068 7.871 14.532zm.552-.841a505.26 505.26 0 01-1.672-2.918l1.26-6.563 7.226 2.79a.45.45 0 00.593-.287l2.28-7.409 6.868 4.082.252.498-16.807 9.807zM77.049 6.893l5.36 10.595-6.144-3.651a.45.45 0 00-.66.253l-2.307 7.494-7.279-2.813a.45.45 0 00-.603.336L64.26 25.16c-1.866-3.303-4.204-7.538-5.075-9.522 2.06-1.073 12.297-6.368 17.864-8.745z" fill="#111827"/><path d="M21.363 59.525a2.943 2.943 0 000-5.865 2.942 2.942 0 000 5.865zm0-4.965a2.046 2.046 0 010 4.065 2.047 2.047 0 010-4.065zm44.75-36.718c.733-1.388-1.03-3.354-2.734-3.12a1.511 1.511 0 00-1.069 2.34c.796 1.594 3.091 2.126 3.803.78zm-3.06-1.952c.307-.584 1.698-.244 2.2.764.246.49.16.969-.386 1.045-1.044.147-2.169-1.14-1.818-1.809h.004zM29.945 96.802l-18.366 6.703a.438.438 0 00-.256.237.452.452 0 00-.008.349c7.931 20.196 14.977 28.908 15.047 28.995a.45.45 0 00.624.069l15.774-12.291a.451.451 0 00.104-.594c-4.128-6.606-12.28-23.078-12.361-23.245a.45.45 0 00-.558-.223zm11.943 23.6l-15.1 11.766c-1.343-1.775-7.535-10.44-14.466-27.977l17.55-6.405c1.207 2.422 8.157 16.339 12.016 22.616z" fill="#111827"/><path d="M29.584 101.333l-13.734 5.8a.454.454 0 00-.24.59.45.45 0 00.59.24l13.734-5.8a.452.452 0 00.24-.59.45.45 0 00-.59-.24zm-12.471 9.849a.459.459 0 00.257.231.44.44 0 00.344-.019l13.297-6.341a.45.45 0 00-.387-.81l-13.298 6.34a.448.448 0 00-.213.599zm1.504 3.303a.453.453 0 00.6.212l13.543-6.472a.45.45 0 00-.388-.81l-13.545 6.472a.45.45 0 00-.21.598zm2.747 5.221a.449.449 0 00.61.18l12.89-7.026a.451.451 0 00-.092-.82.446.446 0 00-.338.03l-12.89 7.03a.453.453 0 00-.18.606zm1.975 3.677a.447.447 0 00.28.199.452.452 0 00.34-.058l12.88-8.13a.448.448 0 00-.141-.819.446.446 0 00-.34.058L23.48 122.76a.462.462 0 00-.2.282.45.45 0 00.06.341zm2.076 2.76a.452.452 0 00.62.142l12.723-7.96a.455.455 0 00.222-.461.454.454 0 00-.352-.371.455.455 0 00-.347.07l-12.721 7.959a.45.45 0 00-.145.621zm27.353 31.977a.448.448 0 00-.496-.382.455.455 0 00-.212.082l-7.02 5.05a.45.45 0 00.525.732l6.001-4.316c-.962 2.728-4.26 9.952-12.29 10.309a8.614 8.614 0 01-8.44-4.942c11.099-1.134 9.753-10.734 3.034-10.328-4.384.237-5.799 5.193-4.345 9.5-1.975.064-3.95-.07-5.897-.401-4.495-.728-7.712-2.7-9.56-5.858-4.05-6.923-.278-17.392-.24-17.497a.449.449 0 00-.61-.564.45.45 0 00-.235.253c-.163.445-3.955 10.967.307 18.26 1.99 3.404 5.42 5.522 10.195 6.293 2.109.365 4.25.505 6.39.417a9.484 9.484 0 008.92 5.778c6.415 0 11.047-4.358 13.377-10.28l.855 5.754a.451.451 0 00.803.198.45.45 0 00.087-.33l-1.15-7.728zm-18.54-2.904c3.414 0 4.933 3.015 3.207 5.472-1.222 1.738-3.682 2.79-6.98 3.078-1.416-3.865-.289-8.55 3.774-8.55h-.001z" fill="#111827"/></svg>