<svg width="28" height="28" fill="none" xmlns="http://www.w3.org/2000/svg"><g clip-path="url(#clip0_148_819)" stroke="#fff" stroke-miterlimit="10" stroke-linecap="square"><path d="M26.556 10.938c.066-.368.1-.74.102-1.114a6.65 6.65 0 00-12.22-3.747 6.763 6.763 0 00-5.54-3.014 6.729 6.729 0 00-6.68 6.761 6.5 6.5 0 00.1 1.114m3.617 7a62.505 62.505 0 008.502 8.75 62.444 62.444 0 008.503-8.75"/><path d="M1.313 14.438h7.875l2.624-4.376 5.25 7.876 2.625-3.5h7.875"/></g><defs><clipPath id="clip0_148_819"><path fill="#fff" d="M0 0h28v28H0z"/></clipPath></defs></svg>