<svg width="24" height="16" fill="none" xmlns="http://www.w3.org/2000/svg"><path d="M24 0H0v16h24V0z" fill="#0052B4"/><path d="M10.472 8l.038-.043-.038.043zM8.87 9.965l.513 1.074 1.16-.268-.52 1.071.934.74-1.162.262.003 1.19-.928-.745-.93.745.004-1.19-1.161-.262.933-.74-.52-1.071 1.16.268.514-1.074zm9.274 1.335l.245.511.553-.127-.248.51.445.353-.554.125.002.568-.443-.355-.443.355.001-.568-.554-.125.445-.353-.247-.51.553.128.245-.513zm-2.278-5.435l.245.512.553-.128-.248.511.445.353-.554.125.002.568-.443-.356-.444.356.002-.568-.554-.125.445-.353-.248-.511.553.128.246-.512zm2.278-3.105l.245.512.553-.128-.248.51.445.353-.554.125.002.568-.443-.355-.443.355.001-.568-.554-.125.445-.352-.247-.511.553.128.245-.513zm1.991 2.328l.245.513.553-.128-.248.51.445.354-.554.124.002.568-.443-.355-.443.355.001-.568-.554-.124.445-.353-.248-.511.554.128.245-.513zm-1.423 2.718l.192.593h.624l-.504.366.192.593-.504-.366-.505.366.193-.593-.505-.366h.624l.193-.593zM12 0v1.432L9.883 2.61H12v2.78H9.23L12 6.931V8h-1.25L7.303 6.086V8H4.696V5.723L.597 8H0V6.568L2.117 5.39H0V2.609h2.77L0 1.069V0h1.25l3.446 1.914V0h2.608v2.277L11.403 0H12z" fill="#F0F0F0"/><path d="M6.75 0h-1.5v3.25H0v1.5h5.25V8h1.5V4.75H12v-1.5H6.75V0z" fill="#D80027"/><path d="M7.305 5.391L12 8v-.738l-3.367-1.87H7.305z" fill="#0052B4"/><path d="M7.305 5.391L12 8v-.738l-3.367-1.87H7.305z" fill="#F0F0F0"/><path d="M7.305 5.391L12 8v-.738l-3.367-1.87H7.305zm-3.937 0L0 7.262V8l4.696-2.61H3.368z" fill="#D80027"/><path d="M4.696 2.609L0-.001v.739l3.368 1.87h1.328z" fill="#0052B4"/><path d="M4.696 2.609L0-.001v.739l3.368 1.87h1.328z" fill="#F0F0F0"/><path d="M4.696 2.609L0-.001v.739l3.368 1.87h1.328zm3.937 0L12 .738V0L7.305 2.609h1.328z" fill="#D80027"/></svg>