<svg width="24" height="16" fill="none" xmlns="http://www.w3.org/2000/svg"><path d="M24 0H0v16h24V0z" fill="#F0F0F0"/><path d="M24 2H0v2h24V2zm0 4H0v2h24V6zm0 4H0v2h24v-2zm0 4H0v2h24v-2z" fill="#D80027"/><path d="M12 0H0v8.615h12V0z" fill="#2E52B2"/><path d="M4.68 3.53l-.194.594h-.625l.506.367-.194.595.506-.368.506.368-.193-.595.505-.367h-.625l-.193-.595zm.192 2.74l-.193-.595-.193.594h-.625l.506.368-.194.594.506-.367.506.367-.193-.594.505-.368h-.625zm-2.642 0l-.193-.595-.193.594h-.625l.506.368-.194.594.506-.367.506.367-.194-.594.506-.368H2.23zm-.193-2.74l-.193.594h-.625l.506.367-.194.595.506-.368.506.368-.194-.595.506-.367H2.23l-.193-.595zM4.68 1.384l-.194.594h-.625l.506.368-.194.594.506-.367.506.367-.193-.594.505-.368h-.625l-.193-.594zm-2.643 0l-.193.594h-.625l.506.368-.194.594.506-.367.506.367-.194-.594.506-.368H2.23l-.193-.594zM7.321 3.53l-.193.594h-.625l.506.367-.193.595.505-.368.506.368-.193-.595.505-.367h-.625l-.193-.595zm.193 2.74l-.193-.595-.193.594h-.625l.506.368-.193.594.505-.367.506.367-.193-.594.505-.368h-.625zm2.643 0l-.193-.595-.193.594h-.625l.505.368-.193.594.506-.367.505.367-.193-.594.506-.368h-.625zm-.193-2.74l-.193.594h-.625l.505.367-.193.595.506-.368.505.368-.193-.595.506-.367h-.625l-.193-.595zM7.321 1.384l-.193.594h-.625l.506.368-.193.594.505-.367.506.367-.193-.594.505-.368h-.625l-.193-.594zm2.643 0l-.193.594h-.625l.505.368-.193.594.506-.367.505.367-.193-.594.506-.368h-.625l-.193-.594z" fill="#F0F0F0"/></svg>