<svg width="110" height="93" fill="none" xmlns="http://www.w3.org/2000/svg"><g clip-path="url(#clip0_579_3064)"><path d="M54.027 92.468c-.185-.102-4.6-2.521-10.899-6.653a197.376 197.376 0 01-10.067-7.042 162.132 162.132 0 01-8.528-6.805 122.815 122.815 0 01-7.556-7.003c-2.362-2.391-4.485-4.772-6.313-7.072-1.869-2.358-3.482-4.695-4.795-6.94a43.008 43.008 0 01-2.42-4.73C1.13 40.863-.03 35.513 0 30.316.094 14.511 11.406 1.859 26.896.232A40.406 40.406 0 0131.175 0c14.073 0 20.87 7.844 23.818 13.013a25.945 25.945 0 014.223-5.533C64.212 2.518 70.808 0 78.824 0c1.39 0 2.83.077 4.284.232 6.19.65 11.922 3.125 16.572 7.152a29.461 29.461 0 016.152 7.4 29.977 29.977 0 013.039 7.213 31.72 31.72 0 011.11 7.362c.013.314.022.64.022.97a35.392 35.392 0 01-.545 6.342 40.811 40.811 0 01-1.911 7.07c-.275.769-.6 1.583-.985 2.479a42.708 42.708 0 01-2.426 4.742c-1.31 2.24-2.923 4.575-4.79 6.931-1.822 2.298-3.944 4.678-6.309 7.075a124.35 124.35 0 01-7.56 7.006 162.61 162.61 0 01-8.525 6.804 200.532 200.532 0 01-10.064 7.042c-6.299 4.13-10.714 6.551-10.899 6.653l-.977.535-.977-.535-.008-.005z" fill="#EFEFEF"/><path d="M107.957 30.327a33.257 33.257 0 01-.514 5.983 38.59 38.59 0 01-1.817 6.719 40.063 40.063 0 01-3.251 6.887c-1.327 2.27-2.896 4.51-4.63 6.7-1.878 2.37-3.962 4.678-6.164 6.907a122.533 122.533 0 01-7.433 6.887 159.513 159.513 0 01-8.42 6.719 195.295 195.295 0 01-9.963 6.97c-6.301 4.135-10.758 6.567-10.758 6.567S50.55 88.231 44.249 84.1a197.751 197.751 0 01-9.965-6.97 158.456 158.456 0 01-8.421-6.72 120.944 120.944 0 01-7.433-6.886c-2.202-2.232-4.283-4.538-6.166-6.907-1.737-2.19-3.304-4.427-4.63-6.7a40.32 40.32 0 01-2.307-4.51c-2.29-5.298-3.304-10.382-3.276-15.079.082-15.344 11.256-26.612 25.056-28.06a38.388 38.388 0 014.069-.22c18.956 0 23.602 15.19 23.82 15.942l.003.011c.035-.127.28-.957.845-2.181a23.846 23.846 0 014.812-6.888c3.62-3.597 9.34-6.887 18.166-6.887 1.29 0 2.642.069 4.068.22 5.833.616 11.196 2.98 15.452 6.667a27.395 27.395 0 015.726 6.888 27.845 27.845 0 012.83 6.719c.6 2.173.955 4.476 1.037 6.887.011.298.02.599.02.9l.002.002z" fill="#fff"/><path d="M97.742 56.619c-1.878 2.369-3.962 4.678-6.164 6.906H18.425c-2.203-2.231-4.284-4.537-6.167-6.906h85.484zM84.145 70.413a159.659 159.659 0 01-8.42 6.719H34.28a158.477 158.477 0 01-8.421-6.72h58.288-.002zM65.762 84.102c-6.301 4.135-10.758 6.567-10.758 6.567s-4.457-2.435-10.758-6.567h21.516zm41.681-47.79H54.996v-6.884h52.939l-.495 6.884h.003zM98.342 8.934H60.656c3.62-3.597 9.34-6.887 18.166-6.887 1.29 0 2.642.069 4.068.22 5.833.615 11.196 2.98 15.452 6.667zm8.555 13.606H54.993v-4.55l.003.01c.036-.127.28-.957.845-2.181h48.224a27.845 27.845 0 012.83 6.719l.002.003zm-1.271 20.492a40.036 40.036 0 01-3.251 6.887h-47.38v-6.887h50.631z" fill="#E52A27"/><path d="M31.176 2.047c-1.291 0-2.643.069-4.069.22-13.8 1.448-24.974 12.716-25.064 28.06-.028 4.697.985 9.78 3.275 15.08a40.328 40.328 0 002.307 4.51h47.37v-31.93c-.217-.753-4.863-15.943-23.82-15.943v.003zM7.149 41.203l.413 1.271-1.15-.744-1.132.744.355-1.271-.96-.795h1.252l.482-1.26.495 1.26h1.253l-1.008.795zm0-10.17l.413 1.26-1.14-.733-1.142.734.355-1.26-.96-.795h1.252l.482-1.264.495 1.264h1.253l-1.008.794zm0-9.662l.413 1.271-1.14-.744-1.142.744.355-1.271-.96-.794h1.252l.482-1.26.495 1.26h1.253l-1.008.794zm5.25 25.983l-1.143-.734-1.14.734.356-1.242-.961-.813h1.25l.487-1.26.495 1.26h1.25l-1.007.813.415 1.242H12.4zm-.416-11.124l.416 1.252-1.143-.742-1.14.742.356-1.252-.961-.814h1.25l.487-1.26.495 1.26h1.25l-1.007.814h-.003zm0-9.883l.416 1.244-1.143-.734-1.14.734.356-1.244-.961-.811h1.25l.487-1.263.495 1.263h1.25l-1.007.81h-.003zm0-9.9l.416 1.261-1.143-.734-1.14.734.356-1.26-.961-.795h1.25l.487-1.263.495 1.263h1.25l-1.007.795h-.003zm5.252 26.027l-1.14-.744-1.139.744.352-1.271-.96-.795H15.6l.482-1.26.495 1.26h1.253l-1.008.795.413 1.271zm-.413-11.44l.413 1.268-1.14-.742-1.139.742.352-1.269-.96-.794H15.6l.482-1.264.495 1.264h1.253l-1.008.794zm0-9.663l.413 1.271-1.14-.744-1.139.744.352-1.271-.96-.794H15.6l.482-1.26.495 1.26h1.253l-1.008.794zm0-9.916l.413 1.272-1.14-.745-1.139.734.352-1.261-.96-.794H15.6l.482-1.26.495 1.26h1.253l-1.008.794zm3.615-5.685l.487-1.26.496 1.26h1.25l-1.008.814.416 1.25-1.143-.743-1.14.734.356-1.241-.961-.814h1.25-.003zm1.79 41.584l-1.14-.734-1.14.734.352-1.242-.955-.813h1.25l.487-1.26.496 1.26h1.25l-1.008.813.413 1.242h-.006zm-.414-11.124l.413 1.252-1.14-.742-1.14.742.353-1.252-.955-.814h1.25l.487-1.26.496 1.26h1.25l-1.008.814h-.006zm0-9.883l.413 1.244-1.14-.734-1.14.734.353-1.244-.955-.811h1.25l.487-1.263.496 1.263h1.25l-1.008.81h-.006zm0-9.9l.413 1.27-1.14-.743-1.14.742.353-1.268-.955-.795h1.25l.487-1.263.496 1.263h1.25l-1.008.795h-.006zm5.253 26.027l-1.14-.744-1.14.744.353-1.271-.961-.795h1.252l.482-1.26.496 1.26h1.252l-1.007.795.413 1.271zm-.413-11.44l.413 1.268-1.14-.742-1.14.742.353-1.269-.961-.794h1.252l.482-1.264.496 1.264h1.252l-1.007.794zm0-9.663l.413 1.271-1.14-.744-1.14.744.353-1.271-.961-.794h1.252l.482-1.26.496 1.26h1.252l-1.007.794zm0-9.916l.413 1.272-1.14-.745-1.14.734.353-1.261-.961-.794h1.252l.482-1.26.496 1.26h1.252l-1.007.794zm3.529-5.685l.487-1.26.496 1.26h1.25l-1.008.814.413 1.25-1.14-.743-1.14.734.353-1.241-.955-.814h1.25-.006zm1.79 41.584l-1.14-.734-1.14.734.352-1.242-.96-.813h1.252l.482-1.26.498 1.26h1.25l-1.008.813.413 1.242zm-.414-11.124l.413 1.244-1.14-.734-1.14.734.353-1.244-.96-.814h1.252l.482-1.26.498 1.26h1.25l-1.008.814zm0-9.902l.413 1.263-1.14-.734-1.14.734.353-1.264-.96-.788h1.252l.482-1.264.498 1.264h1.25l-1.008.788zm0-9.88l.413 1.26-1.14-.734-1.14.734.353-1.26-.96-.795h1.252l.482-1.263.498 1.263h1.25l-1.008.795zm5.253 26.026l-1.143-.744-1.14.744.356-1.271-.961-.795h1.25l.487-1.26.496 1.26h1.252l-1.013.795.416 1.271zm-.416-11.44l.416 1.268-1.143-.742-1.14.742.356-1.269-.961-.794h1.25l.487-1.264.496 1.264h1.252l-1.013.794zm0-9.663l.416 1.271-1.143-.744-1.14.744.356-1.252-.961-.813h1.25l.487-1.26.496 1.26h1.252l-1.013.794zm0-9.897l.416 1.253-1.143-.745-1.14.734.356-1.242-.961-.813h1.25l.487-1.26.496 1.26h1.252l-1.013.813zm3.46-5.704l.488-1.26.495 1.26h1.25l-1.008.795.416 1.268-1.142-.742-1.14.734.355-1.26-.96-.795h1.249-.003zm1.79 41.595l-1.14-.745-1.14.745.353-1.253-.956-.813h1.25l.487-1.26.496 1.26h1.25l-1.008.813.413 1.253h-.005zm-.413-11.135l.413 1.252-1.14-.742-1.14.742.353-1.252-.956-.814h1.25l.487-1.26.496 1.26h1.25l-1.008.814h-.005zm0-9.883l.413 1.244-1.14-.734-1.14.734.353-1.244-.956-.811h1.25l.487-1.263.496 1.263h1.25l-1.008.81h-.005zm0-9.88l.413 1.241-1.14-.734-1.14.734.353-1.241-.956-.814h1.25l.487-1.263.496 1.263h1.25l-1.008.814h-.005zm5.252 26.007l-1.14-.744-1.14.744.353-1.271-.96-.795h1.252l.482-1.26.495 1.26h1.253l-1.008.795.413 1.271zm-.413-11.44l.413 1.268-1.14-.742-1.14.742.353-1.269-.96-.794h1.252l.482-1.264.495 1.264h1.253l-1.008.794zm0-9.663l.413 1.271-1.14-.744-1.14.744.353-1.271-.96-.794h1.252l.482-1.26.495 1.26h1.253l-1.008.794zm0-9.916l.413 1.272-1.14-.745-1.14.734.353-1.261-.96-.794h1.252l.482-1.26.495 1.26h1.253l-1.008.794zm5.404 35.899l-1.14-.734-1.14.734.353-1.242-.955-.813h1.25l.487-1.26.495 1.26h1.25l-1.008.813.413 1.242h-.005zm-.413-11.124l.413 1.252-1.14-.742-1.14.742.353-1.252-.955-.814h1.25l.487-1.26.495 1.26h1.25l-1.008.814h-.005zm0-9.883l.413 1.244-1.14-.734-1.14.734.353-1.244-.955-.811h1.25l.487-1.263.495 1.263h1.25l-1.008.81h-.005zm0-9.88l.413 1.25-1.14-.743-1.14.734.353-1.241-.955-.814h1.25l.487-1.263.495 1.263h1.25l-1.008.814h-.005z" fill="#2E4F9D"/></g><defs><clipPath id="clip0_579_3064"><path fill="#fff" d="M0 0h110v93H0z"/></clipPath></defs></svg>