<svg width="28" height="28" fill="none" xmlns="http://www.w3.org/2000/svg"><g clip-path="url(#clip0_158_3469)" stroke="#E4DDD4" stroke-miterlimit="10"><path d="M6.889 22.639l3.61 3.611.876-.875-.937-4.684m-5.077.42L1.75 17.5l.875-.875 4.684.937m9.633-2.172l6.683 10.86 2.625-2.625-4.386-13.158"/><path d="M10.362 9.675l2.249 1.383 4.922-4.922-3.7-1.233m-4.103.453a2.625 2.625 0 00-3.71-3.712l-.333.33-.331-.33a2.625 2.625 0 00-3.712 3.712l.33.332L5.688 9.4l4.044-4.044z" stroke-linecap="square"/><path d="M21.897 1.772a3.063 3.063 0 014.33 4.331L13.104 19.228 4.025 24.21a.175.175 0 01-.237-.237l4.982-9.076L21.897 1.772z" stroke-linecap="square"/></g><defs><clipPath id="clip0_158_3469"><path fill="#fff" d="M0 0h28v28H0z"/></clipPath></defs></svg>