<svg width="32" height="32" fill="none" xmlns="http://www.w3.org/2000/svg"><path d="M28.667 12.928a3.34 3.34 0 00-1.766-2.973l-8.629-4.708a4.726 4.726 0 00-4.544 0l-8.63 4.708a3.342 3.342 0 00-1.764 2.973c0 1.259.66 2.37 1.765 2.973l2.234 1.219v5.144a3.36 3.36 0 001.591 2.852c2.348 1.476 4.712 2.215 7.076 2.215s4.728-.739 7.076-2.215a3.36 3.36 0 001.59-2.852V17.12l2.235-1.219c.162-.088.291-.208.433-.316v5.747a.667.667 0 001.333 0v-8c0-.057-.019-.108-.032-.16.005-.083.032-.159.032-.244zm-5.334 9.337c0 .688-.37 1.348-.969 1.723-4.281 2.695-8.448 2.695-12.73 0a2.062 2.062 0 01-.968-1.723V17.85l5.06 2.762a4.724 4.724 0 004.545 0l5.061-2.762v4.416h.002zm2.93-7.533l-8.63 4.708a3.396 3.396 0 01-3.268 0l-8.629-4.708a2.026 2.026 0 01-1.07-1.804c0-.764.4-1.437 1.07-1.804l8.63-4.708a3.401 3.401 0 013.27 0l8.628 4.708c.67.365 1.07 1.04 1.07 1.804a2.03 2.03 0 01-1.071 1.804z" fill="#fff"/></svg>