<svg width="32" height="32" fill="none" xmlns="http://www.w3.org/2000/svg"><path d="M16 10.667a.667.667 0 01-.667.666H14A.667.667 0 0114 10h1.333c.368 0 .667.297.667.667zM10 10H8.667a.667.667 0 000 1.333H10A.667.667 0 0010 10zm5.333 4H14a.667.667 0 000 1.333h1.333a.667.667 0 000-1.333zM10 14H8.667a.667.667 0 000 1.333H10A.667.667 0 0010 14zm20 14a.667.667 0 01-.667.667H2.667a.667.667 0 010-1.334h.666V8c0-3.053 1.614-4.667 4.667-4.667h8c3.053 0 4.667 1.614 4.667 4.667v19.333h4.666v-4.068A3.337 3.337 0 0122.667 20v-4A3.337 3.337 0 0126 12.667 3.337 3.337 0 0129.333 16v4a3.337 3.337 0 01-2.666 3.265v4.068h2.666c.368 0 .667.299.667.667zm-4-6c1.103 0 2-.897 2-2v-4c0-1.103-.897-2-2-2s-2 .897-2 2v4c0 1.103.897 2 2 2zm-12 .667c0-1.103-.897-2-2-2s-2 .897-2 2v4.666h4v-4.666zm5.333 4.666V8c0-2.305-1.028-3.333-3.333-3.333H8C5.695 4.667 4.667 5.695 4.667 8v19.333h4v-4.666A3.337 3.337 0 0112 19.333a3.337 3.337 0 013.333 3.334v4.666h4z" fill="#fff"/></svg>