<svg width="32" height="32" fill="none" xmlns="http://www.w3.org/2000/svg"><path d="M29.95 17.005c.023-.333.05-.666.05-1.005 0-4.881-2.515-9.181-6.314-11.688-.022-.015-.044-.03-.067-.041a13.897 13.897 0 00-4.562-1.924c-.025-.01-.052-.014-.078-.02A13.987 13.987 0 0015.998 2c-7.72 0-14 6.28-14 14s6.28 14 14 14a14.01 14.01 0 003.122-.363.647.647 0 00.25-.065c5.749-1.43 10.098-6.41 10.573-12.475.001-.03.008-.061.005-.092zM28.665 16c0 .137-.015.27-.02.405a2.96 2.96 0 00-1.796.944c-.073.083-.12.106-.129.107-.02 0-.552-.036-1.764-2.27-.91-1.678-.513-2.533-.01-3.615.162-.352.325-.706.444-1.075.273-.81.057-2.105-.315-3.313A12.62 12.62 0 0128.666 16zM3.334 16c0-1.16.17-2.28.464-3.348.83 4.215 3.83 5.74 5.416 6.54.35.176.767.375.83.39.12.52.107.81.082 1.338-.02.43-.045.963-.005 1.795.07 1.456 1.261 2.077 2.219 2.577.625.327 1.217.636 1.545 1.121.223.319.384 1.228.245 2.102C8.03 27.604 3.333 22.347 3.333 16zm12.123 12.639c.159-1.111-.013-2.326-.475-2.983-.512-.756-1.316-1.176-2.027-1.547-.94-.49-1.472-.8-1.504-1.46-.037-.772-.013-1.269.006-1.668.027-.56.046-1.002-.116-1.702-.135-.575-.719-.87-1.527-1.278-1.899-.957-5.055-2.557-4.896-8.122C7.078 5.98 11.235 3.332 16 3.332c.705 0 1.392.072 2.067.184-.197.553-.727 1.019-1.255 1.192-2.53.83-2.556 3.045-2.575 4.663-.017 1.441-.101 1.876-.624 1.984-.184.029-.77-.286-1.085-.458-.66-.358-1.347-.73-1.988-.574-.528.124-1.201.638-1.41 1.345-.102.347-.172 1.036.51 1.741.564.584.59.863.63 1.287.029.292.063.653.258 1.101.665 1.468 2.584 1.427 3.98 1.268 1.463-.181 1.905-.238 2.79.684.345.359.534.788.734 1.242.34.774.765 1.74 2.08 1.892 1.117.138 2.05.51 2.377.948.11.145.144.289.113.464-.089.529-.651 1.064-1.305 1.684-1.068 1.014-2.367 2.272-2.779 4.432-.814.165-1.655.253-2.517.253-.185.003-.364-.017-.545-.025zm4.537-.627c.452-1.365 1.378-2.261 2.222-3.064.79-.752 1.538-1.461 1.7-2.43a1.902 1.902 0 00-.36-1.482c-.791-1.063-2.558-1.385-3.286-1.475-.518-.06-.673-.318-1.018-1.104-.227-.514-.483-1.098-.992-1.629-1.35-1.404-2.373-1.276-3.911-1.084-1.506.172-2.382.005-2.604-.487-.107-.244-.126-.438-.148-.685-.05-.52-.11-1.168-.999-2.087-.244-.252-.204-.392-.19-.438.06-.214.333-.4.435-.426.174-.02.723.271 1.047.448.656.358 1.328.728 1.992.592 1.653-.341 1.674-1.968 1.69-3.274.02-1.792.142-2.916 1.657-3.412.921-.302 1.844-1.119 2.146-2.172 1.246.345 2.414.872 3.474 1.556.672.988 1.587 3.798 1.277 4.717-.105.325-.248.63-.39.932-.552 1.193-1.18 2.545.049 4.812 1.07 1.973 1.901 2.86 2.779 2.96.049.005.1.01.157.01.32 0 .735-.113 1.128-.557.201-.228.45-.37.678-.452a12.69 12.69 0 01-8.533 10.231z" fill="#fff"/></svg>