<svg width="32" height="32" fill="none" xmlns="http://www.w3.org/2000/svg"><path d="M18 18.667a.667.667 0 01-.666.666h-8a.667.667 0 010-1.333h8c.367 0 .666.299.666.667zM13.334 22h-4a.667.667 0 000 1.333h4a.667.667 0 000-1.333zm15.333-6.667v10a3.338 3.338 0 01-3.334 3.334H8c-3.053 0-4.667-1.614-4.667-4.667V8c0-3.053 1.614-4.667 4.667-4.667h10.667c3.053 0 4.666 1.614 4.666 4.667v4.667H26a2.67 2.67 0 012.667 2.666zm-5.999 12a3.322 3.322 0 01-.668-2V8c0-2.305-1.028-3.333-3.333-3.333H8C5.695 4.667 4.667 5.695 4.667 8v16c0 2.305 1.028 3.333 3.333 3.333h14.668zm4.666-12c0-.734-.6-1.333-1.334-1.333h-2.666v11.333c0 1.103.897 2 2 2 1.102 0 2-.897 2-2v-10zM10.26 11.82l1.24.318c.35.092.595.424.595.808a.856.856 0 01-.236.595.75.75 0 01-.541.237h-.54c-.395 0-.727-.317-.774-.738a.666.666 0 10-1.325.144 2.146 2.146 0 001.685 1.885v.265a.667.667 0 001.333 0v-.26a2.083 2.083 0 001.122-.606c.393-.41.61-.95.61-1.52a2.16 2.16 0 00-1.591-2.1l-1.242-.32a.771.771 0 01-.427-.291.856.856 0 01-.168-.516c0-.459.35-.832.778-.832h.54c.394 0 .726.317.773.739a.666.666 0 101.325-.144c-.105-.968-.816-1.724-1.718-1.892v-.26a.667.667 0 00-1.333 0v.266c-.967.198-1.698 1.074-1.698 2.122 0 .48.156.95.437 1.32.286.384.697.66 1.155.78z" fill="#fff"/></svg>