<svg width="104" height="84" fill="none" xmlns="http://www.w3.org/2000/svg"><g opacity=".2"><mask id="a" maskUnits="userSpaceOnUse" x="-11" y="-2" width="118" height="88" fill="#000"><path fill="#fff" d="M-11-2h118v88H-11z"/><path d="M20.907 41.123c3.545.859 6.714 2.685 9.507 5.478 4.083 4.083 6.124 9.132 6.124 15.148 0 5.908-2.041 10.957-6.124 15.147-4.082 4.082-9.024 6.123-14.825 6.123-5.156 0-10.098-1.933-14.825-5.8-4.62-3.76-7.412-9.24-8.38-16.437a56.042 56.042 0 01-.483-7.251c0-8.595 2.095-17.028 6.285-25.3C6.028 12.87 15.804 3.953 27.514 1.481 30.629.838 33.69.516 36.699.516c1.719 0 3.545.107 5.479.322a2325.612 2325.612 0 00-6.285 17.565c-4.512.537-8.326 3.223-11.44 8.057-2.364 3.652-3.546 7.412-3.546 11.28v3.384zm61.234 0c3.545.859 6.714 2.685 9.507 5.478 4.082 4.083 6.124 9.132 6.124 15.148 0 5.908-2.042 10.957-6.124 15.147-4.082 4.082-9.024 6.123-14.825 6.123-5.156 0-10.098-1.933-14.825-5.8-4.62-3.76-7.412-9.24-8.38-16.437a56.039 56.039 0 01-.483-7.251c0-8.595 2.095-17.028 6.285-25.3C67.262 12.87 77.038 3.953 88.748 1.481c3.115-.644 6.177-.966 9.185-.966 1.718 0 3.545.107 5.478.322a2368.322 2368.322 0 00-6.284 17.565c-4.512.537-8.326 3.223-11.441 8.057-2.364 3.652-3.545 7.412-3.545 11.28v3.384z"/></mask><path d="M20.907 41.123h-2v1.573l1.529.37.471-1.943zm9.507 35.773l1.414 1.414.01-.009.009-.01-1.433-1.395zm-29.65.322l1.267-1.548-.004-.003-1.263 1.551zm-8.38-16.436l-1.982.259v.007l1.983-.266zm5.802-32.55l-1.781-.91-.003.006 1.784.903zm29.328-26.75l-.405-1.959-.008.002.413 1.957zM42.178.837l1.88.681.865-2.388-2.525-.28-.22 1.987zm-6.285 17.565l.237 1.986 1.235-.148.414-1.173-1.886-.665zm-11.44 8.057l1.678 1.086.002-.003-1.68-1.083zM82.14 41.123h-2v1.573l1.529.37.47-1.943zm9.507 5.478l1.414-1.414-1.414 1.414zm0 30.295l1.414 1.414.01-.009.009-.01-1.433-1.395zm-29.65.322l1.267-1.548-.004-.003-1.263 1.551zm-8.38-16.436l-1.983.259.002.007 1.982-.266zm5.802-32.55l-1.782-.91-.002.006 1.784.903zm29.328-26.75l-.406-1.959-.007.002.413 1.957zM103.41.837l1.881.681.865-2.388-2.525-.28-.221 1.987zm-6.284 17.565l.236 1.986 1.236-.148.414-1.173-1.886-.665zm-11.441 8.057l1.68 1.086.001-.003-1.681-1.083zm-65.25 16.607c3.158.766 6.008 2.394 8.564 4.95l2.828-2.829c-3.03-3.03-6.518-5.055-10.45-6.008l-.942 3.887zM29 48.016c3.69 3.69 5.538 8.222 5.538 13.733h4c0-6.522-2.235-12.087-6.71-16.562L29 48.016zm5.538 13.733c0 5.393-1.842 9.94-5.556 13.751l2.865 2.792c4.45-4.567 6.69-10.12 6.69-16.543h-4zM29 75.482c-3.705 3.705-8.137 5.537-13.41 5.537v4c6.328 0 11.78-2.25 16.238-6.709L29 75.482zm-13.41 5.537c-4.614 0-9.121-1.717-13.56-5.349l-2.532 3.096C4.513 82.87 9.889 85.02 15.589 85.02v-4zM2.026 75.667c-4.142-3.371-6.745-8.341-7.66-15.151l-3.964.532c1.019 7.585 4.002 13.573 9.099 17.721l2.525-3.102zm-7.659-15.144a54.044 54.044 0 01-.467-6.992h-4c0 2.454.168 4.958.5 7.51l3.967-.518zm-.467-6.992c0-8.256 2.01-16.382 6.07-24.396l-3.57-1.807c-4.32 8.53-6.5 17.27-6.5 26.203h4zm6.066-24.39C7.661 14.07 17.034 5.737 27.927 3.439L27.1-.475C14.574 2.168 4.396 11.669-3.595 27.322l3.562 1.819zM27.92 3.44c2.99-.62 5.916-.926 8.78-.926v-4c-3.152 0-6.35.338-9.59 1.008l.81 3.917zm8.78-.926c1.636 0 3.388.102 5.258.31l.441-3.976a51.722 51.722 0 00-5.7-.334v4zM40.297.156a2320.146 2320.146 0 00-6.29 17.58l3.772 1.331a2310.968 2310.968 0 016.28-17.549L40.296.156zm-4.64 16.26c-5.256.625-9.54 3.768-12.886 8.96l3.362 2.166c2.886-4.478 6.229-6.706 9.997-7.154l-.473-3.972zm-12.884 8.956c-2.546 3.935-3.866 8.067-3.866 12.367h4c0-3.435 1.043-6.823 3.224-10.194l-3.358-2.173zM18.907 37.74v3.383h4v-3.385h-4zm62.763 5.327c3.158.766 6.008 2.394 8.564 4.95l2.828-2.829c-3.03-3.03-6.518-5.055-10.45-6.008l-.942 3.887zm8.564 4.95c3.69 3.69 5.538 8.222 5.538 13.733h4c0-6.522-2.235-12.087-6.71-16.562l-2.828 2.829zm5.538 13.733c0 5.393-1.842 9.94-5.556 13.751l2.865 2.792c4.45-4.567 6.69-10.12 6.69-16.543h-4zm-5.538 13.733c-3.705 3.705-8.137 5.537-13.41 5.537v4c6.328 0 11.779-2.25 16.238-6.709l-2.828-2.828zm-13.41 5.537c-4.614 0-9.121-1.717-13.56-5.349l-2.532 3.096c5.015 4.104 10.391 6.253 16.091 6.253v-4zM63.26 75.667c-4.143-3.371-6.745-8.341-7.66-15.151l-3.965.532c1.02 7.585 4.003 13.573 9.1 17.721l2.525-3.102zM55.6 60.523a54.042 54.042 0 01-.466-6.992h-4c0 2.454.168 4.958.5 7.51l3.967-.518zm-.466-6.992c0-8.256 2.01-16.382 6.069-24.396l-3.568-1.807c-4.32 8.53-6.5 17.27-6.5 26.203h4zm6.066-24.39C68.895 14.07 78.268 5.737 89.161 3.439l-.826-3.914C75.808 2.168 65.629 11.669 57.639 27.322L61.2 29.14zm27.952-25.7c2.99-.62 5.915-.926 8.78-.926v-4c-3.152 0-6.35.338-9.59 1.008l.81 3.917zm8.78-.926c1.636 0 3.388.102 5.258.31l.441-3.976a51.707 51.707 0 00-5.7-.334v4zM101.53.156a2311.445 2311.445 0 00-6.29 17.58l3.772 1.331a2341.6 2341.6 0 016.279-17.549l-3.76-1.362zm-4.64 16.26c-5.256.625-9.541 3.768-12.886 8.96l3.362 2.166c2.886-4.478 6.228-6.706 9.996-7.154l-.472-3.972zm-12.884 8.956C81.46 29.307 80.14 33.44 80.14 37.74h4c0-3.435 1.043-6.823 3.224-10.194l-3.358-2.173zM80.14 37.74v3.383h4v-3.385h-4z" fill="#D00101" mask="url(#a)"/></g></svg>