<svg width="105" height="84" fill="none" xmlns="http://www.w3.org/2000/svg"><g opacity=".2"><mask id="a" maskUnits="userSpaceOnUse" x="-3" y="-2" width="118" height="88" fill="#000"><path fill="#fff" d="M-3-2h118v88H-3z"/><path d="M83.093 41.123c-3.545.859-6.714 2.685-9.507 5.478-4.083 4.083-6.124 9.132-6.124 15.148 0 5.908 2.041 10.957 6.124 15.147 4.082 4.082 9.024 6.123 14.825 6.123 5.156 0 10.098-1.933 14.825-5.8 4.619-3.76 7.412-9.24 8.379-16.437.322-2.47.484-4.888.484-7.251 0-8.595-2.095-17.028-6.285-25.3C97.972 12.87 88.196 3.953 76.486 1.481 73.371.838 70.31.516 67.301.516c-1.719 0-3.545.107-5.479.322a2325.612 2325.612 0 016.285 17.565c4.512.537 8.326 3.223 11.44 8.057 2.364 3.652 3.546 7.412 3.546 11.28v3.384zm-61.234 0c-3.545.859-6.714 2.685-9.507 5.478-4.082 4.083-6.124 9.132-6.124 15.148 0 5.908 2.042 10.957 6.124 15.147 4.082 4.082 9.024 6.123 14.825 6.123 5.156 0 10.098-1.933 14.825-5.8 4.62-3.76 7.412-9.24 8.38-16.437a56.08 56.08 0 00.483-7.251c0-8.595-2.095-17.028-6.285-25.3C36.738 12.87 26.962 3.953 15.252 1.481 12.137.838 9.075.516 6.067.516A49.44 49.44 0 00.588.837a2282.483 2282.483 0 016.285 17.565c4.512.537 8.326 3.223 11.441 8.057 2.363 3.652 3.545 7.412 3.545 11.28v3.384z"/></mask><path d="M83.093 41.123h2v1.573l-1.529.37-.471-1.943zm-9.507 35.773L72.17 78.31l-.009-.009-.009-.01 1.433-1.395zm29.65.322l-1.267-1.548.004-.003 1.263 1.551zm8.379-16.436l1.983.259-.001.007-1.982-.266zm-5.801-32.55l1.781-.91.003.006-1.784.903zM76.486 1.481l.405-1.959.008.002-.413 1.957zM61.822.837l-1.88.681-.865-2.388 2.525-.28.22 1.987zm6.285 17.565l-.237 1.986-1.235-.148-.414-1.173 1.886-.665zm11.44 8.057l-1.678 1.086-.002-.003 1.68-1.083zM21.86 41.123h2v1.573l-1.529.37-.47-1.943zM12.352 46.6l-1.414-1.414 1.414 1.414zm0 30.295l-1.414 1.414-.01-.009-.009-.01 1.433-1.395zm29.65.322l-1.267-1.548.004-.003 1.263 1.551zm8.38-16.436l1.983.259-.002.007-1.982-.266zm-5.802-32.55l1.782-.91.002.006-1.784.903zM15.252 1.481l.406-1.959.007.002-.413 1.957zM.59.837l-1.881.681-.865-2.388 2.525-.28.22 1.987zm6.284 17.565l-.236 1.986L5.4 20.24l-.414-1.173 1.886-.665zm11.441 8.057l-1.68 1.086-.001-.003 1.681-1.083zm65.25 16.607c-3.158.766-6.008 2.394-8.564 4.95l-2.829-2.829c3.031-3.03 6.52-5.055 10.45-6.008l.943 3.887zM75 48.016c-3.69 3.69-5.538 8.222-5.538 13.733h-4c0-6.522 2.235-12.087 6.71-16.562L75 48.016zm-5.538 13.733c0 5.393 1.842 9.94 5.556 13.751l-2.865 2.792c-4.45-4.567-6.69-10.12-6.69-16.543h4zM75 75.482c3.705 3.705 8.137 5.537 13.41 5.537v4c-6.328 0-11.78-2.25-16.239-6.709L75 75.482zm13.41 5.537c4.614 0 9.121-1.717 13.559-5.349l2.533 3.096c-5.015 4.104-10.391 6.253-16.091 6.253v-4zm13.563-5.352c4.142-3.371 6.745-8.341 7.66-15.151l3.964.532c-1.019 7.585-4.002 13.573-9.099 17.721l-2.525-3.102zm7.659-15.144c.312-2.39.467-4.72.467-6.992h4a58.02 58.02 0 01-.501 7.51l-3.966-.518zm.467-6.992c0-8.256-2.01-16.382-6.069-24.396l3.568-1.807c4.32 8.53 6.501 17.27 6.501 26.203h-4zm-6.066-24.39C96.339 14.07 86.966 5.737 76.073 3.439L76.9-.475c12.527 2.643 22.706 12.144 30.696 27.797l-3.562 1.819zM76.081 3.44c-2.99-.62-5.916-.926-8.78-.926v-4c3.152 0 6.35.338 9.59 1.008l-.81 3.917zm-8.78-.926c-1.636 0-3.388.102-5.258.31l-.441-3.976a51.722 51.722 0 015.7-.334v4zM63.703.156a2320.146 2320.146 0 016.29 17.58l-3.772 1.331a2310.968 2310.968 0 00-6.28-17.549L63.704.156zm4.64 16.26c5.256.625 9.54 3.768 12.886 8.96l-3.362 2.166c-2.886-4.478-6.229-6.706-9.997-7.154l.473-3.972zm12.884 8.956c2.546 3.935 3.866 8.067 3.866 12.367h-4c0-3.435-1.043-6.823-3.224-10.194l3.358-2.173zm3.866 12.367v3.384h-4v-3.385h4zM22.33 43.066c-3.158.766-6.008 2.394-8.564 4.95l-2.828-2.829c3.03-3.03 6.518-5.055 10.45-6.008l.942 3.887zm-8.564 4.95c-3.69 3.69-5.538 8.222-5.538 13.733h-4c0-6.522 2.235-12.087 6.71-16.562l2.828 2.829zM8.228 61.749c0 5.393 1.842 9.94 5.556 13.751l-2.865 2.792c-4.45-4.567-6.69-10.12-6.69-16.543h4zm5.538 13.733c3.705 3.705 8.137 5.537 13.41 5.537v4c-6.328 0-11.779-2.25-16.238-6.709l2.828-2.828zm13.41 5.537c4.614 0 9.121-1.717 13.56-5.349l2.532 3.096c-5.015 4.104-10.391 6.253-16.091 6.253v-4zm13.563-5.352c4.143-3.371 6.745-8.341 7.66-15.151l3.965.532c-1.02 7.585-4.003 13.573-9.1 17.721l-2.525-3.102zm7.66-15.144c.31-2.39.466-4.72.466-6.992h4c0 2.454-.168 4.958-.5 7.51l-3.967-.518zm.466-6.992c0-8.256-2.01-16.382-6.069-24.396l3.568-1.807c4.32 8.53 6.5 17.27 6.5 26.203h-4zm-6.066-24.39C35.105 14.07 25.732 5.737 14.839 3.439l.826-3.914c12.527 2.643 22.706 12.144 30.697 27.797l-3.563 1.819zM14.847 3.44c-2.99-.62-5.915-.926-8.78-.926v-4c3.152 0 6.35.338 9.59 1.008l-.81 3.917zm-8.78-.926c-1.636 0-3.388.102-5.258.31L.368-1.151a51.723 51.723 0 015.7-.334v4zM2.47.156a2312.273 2312.273 0 016.29 17.58l-3.772 1.331a2309.558 2309.558 0 00-6.28-17.549L2.469.156zm4.64 16.26c5.256.625 9.541 3.768 12.886 8.96l-3.362 2.166c-2.886-4.478-6.228-6.706-9.996-7.154l.472-3.972zm12.884 8.956c2.546 3.935 3.866 8.067 3.866 12.367h-4c0-3.435-1.043-6.823-3.224-10.194l3.358-2.173zM23.86 37.74v3.383h-4v-3.385h4z" fill="#D00101" mask="url(#a)"/></g></svg>