<svg width="31" height="71" fill="none" xmlns="http://www.w3.org/2000/svg"><g clip-path="url(#clip0_25_622)"><path d="M31 38.049c-.44 2.126-1.348 4.04-2.613 5.785-.57.786-1.23 1.483-2.102 1.944-.614.326-1.258.483-1.95.359-.185-.033-.253.07-.356.188-.58.663-.743 1.506-1.014 2.306-.81 2.4-1.793 4.723-3.052 6.935.276-.053.277-.052.436-.382.514-1.068 1.121-2.076 1.933-2.94 1.288-1.37 2.831-2.298 4.693-2.636.624-.113 1.257-.09 1.89-.088.22 0 .263.09.218.3-.163.76-.497 1.444-.92 2.084-.95 1.437-2.066 2.723-3.544 3.626-1.007.616-2.112.897-3.299.669-.215-.042-.442-.1-.625-.213-.247-.153-.43-.11-.654.044-.373.256-.713.518-.965.928a29.238 29.238 0 01-4.5 5.657c-.022.021-.035.05-.054.078.205.04.21.045.38-.14.507-.558 1.035-1.087 1.64-1.54 1.052-.791 2.247-1.19 3.534-1.333 1.584-.178 3.101.11 4.568.712.376.155.401.214.173.545-.472.682-1.09 1.209-1.773 1.66-1.152.764-2.369 1.383-3.729 1.678-1.116.24-2.225.345-3.312-.139-.393-.174-.722-.432-1.025-.732-.06-.059-.13-.16-.19-.157-.391.025-.815-.047-1.142.243a25.066 25.066 0 01-6.062 3.998c-.057.027-.114.053-.17.084-.013.008-.018.034-.03.06.175.09.32.014.467-.071.688-.395 1.397-.746 2.155-.983 1.426-.446 2.85-.35 4.258.076 1.37.415 2.582 1.13 3.675 2.058.207.177.184.298.003.455-.497.429-1.073.706-1.684.92-1.39.487-2.821.703-4.287.604-1.078-.072-2.13-.281-3.055-.906-.536-.361-.971-.815-1.268-1.393a.533.533 0 00-.384-.289 2.237 2.237 0 00-1.435.087c-1.423.567-2.91.92-4.423 1.149-.132.02-.33.122-.396-.111-.06-.21.13-.568.336-.616.46-.107.928-.191 1.39-.29 1.395-.302 2.732-.782 4.054-1.312.126-.05.21-.122.248-.263.119-.454.22-.909.163-1.383-.195-1.628.185-3.147.88-4.599.749-1.566 1.886-2.779 3.355-3.678.09-.055.179-.115.276-.154.13-.054.266-.219.395-.107.1.087.003.26-.021.391-.251 1.335-.367 2.693-.668 4.02-.258 1.132-.548 2.258-1.233 3.218-.46.645-1.034 1.178-1.747 1.536-.2.1-.405.192-.633.174-.222-.019-.298.109-.333.297-.011.06-.053.127 0 .18.057.055.119.004.172-.022.306-.144.615-.281.913-.439a24.686 24.686 0 005.48-3.96.687.687 0 00.212-.475c.045-.512.044-1.002-.15-1.501-.493-1.283-.567-2.618-.458-3.985.153-1.9.754-3.631 1.793-5.21.25-.38.546-.73.825-1.09.05-.063.108-.151.204-.12.104.032.066.142.076.221.164 1.37.355 2.738.484 4.111.136 1.422.178 2.857-.3 4.229-.351 1.007-.907 1.894-1.86 2.457-.21.124-.236.233-.197.668.336-.327.685-.625.985-.967a31.201 31.201 0 003.707-5.194c.139-.244.166-.467.139-.751-.06-.593-.294-1.08-.623-1.566-.822-1.212-1.174-2.601-1.36-4.038-.212-1.66-.03-3.286.445-4.882.157-.53.355-1.045.596-1.543.032-.065.055-.154.143-.152.07.001.093.075.116.136.588 1.66 1.345 3.257 1.81 4.964.227.833.45 1.679.42 2.537-.044 1.303-.224 2.592-1.18 3.604-.216.227.002.454-.002.686.35-.523.602-1.093.857-1.657.987-2.17 1.78-4.408 2.318-6.736.047-.203.002-.362-.062-.549-.222-.64-.604-1.113-1.148-1.53-1.104-.847-1.745-2.058-2.272-3.324-.841-2.024-1.011-4.13-.715-6.289.02-.134.056-.265.084-.396.152-.002.195.109.255.19.816 1.096 1.65 2.18 2.441 3.294.801 1.128 1.493 2.321 1.77 3.707.147.735.163 1.476.036 2.218-.044.254-.1.518-.256.714-.284.359-.143.66.078 1.047.08-.37.15-.675.208-.983.47-2.48.72-4.98.717-7.507a1.394 1.394 0 00-.243-.787c-.304-.486-.706-.756-1.23-.959-1.03-.398-1.806-1.149-2.485-2.01-1.352-1.718-2.047-3.691-2.267-5.856-.03-.297-.064-.592-.055-.89.005-.17.076-.225.212-.105 1.215 1.084 2.601 1.962 3.721 3.159 1.067 1.14 1.833 2.433 2.015 4.024.058.5.073 1.005-.05 1.492-.088.349.07.539.336.761.052-.36.031-.684.015-1.005a43.822 43.822 0 00-.688-5.88c-.135-.709-.299-1.412-.447-2.119-.027-.126-.124-.184-.204-.269-.455-.479-1.017-.548-1.648-.594-1.08-.078-1.994-.633-2.835-1.3-1.68-1.333-2.672-3.114-3.292-5.14-.024-.08-.07-.167-.01-.243.058-.075.137-.027.202 0 1.295.561 2.653.97 3.906 1.635.93.494 1.787 1.083 2.411 1.963.574.808.813 1.717.775 2.702-.014.353.288.325.503.44-.165-.578-.32-1.159-.495-1.733a44.233 44.233 0 00-2.25-5.852c-.113-.239-.268-.364-.518-.485-.459-.22-.863-.176-1.325-.055-1.31.343-2.528-.017-3.685-.615-1.42-.734-2.445-1.892-3.276-3.241-.088-.143-.241-.371.12-.338 1.486.138 2.993.04 4.45.446.995.278 1.886.723 2.539 1.57.33.43.53.915.625 1.446.02.106.021.221.13.275.13.065.294.196.404.11.132-.104-.031-.249-.088-.359a38.997 38.997 0 00-3.38-5.419c-.141-.188-.302-.231-.52-.284-.47-.112-.835.067-1.247.239-1.8.748-3.525.473-5.172-.488-.802-.468-1.47-1.099-2.047-1.83-.158-.2-.154-.31.118-.344 1.364-.171 2.708-.567 4.098-.47 1.33.091 2.507.539 3.325 1.685.13.182.223.384.309.59.037.09.068.18.17.216.12.044.278.115.36.028.109-.115-.065-.197-.128-.274-1.158-1.424-2.38-2.786-3.795-3.96-.107-.088-.207-.166-.36-.173-2.21-.11-3.847-1.233-5.11-2.992-.622-.868-1.054-1.836-1.354-2.864-.035-.12-.12-.27-.038-.363.098-.112.23.02.339.061 1.01.395 2.053.703 3.04 1.161 1.344.624 2.475 1.488 3.165 2.852.26.515.365 1.063.325 1.637-.014.203.062.335.21.463.959.821 1.819 1.74 2.666 2.674a39.86 39.86 0 012.374 2.891c-.009-.384-.072-.656-.297-.9-1.367-1.481-2.165-3.246-2.528-5.229-.228-1.25-.331-2.505-.246-3.772a11.5 11.5 0 01.146-1.17c.055-.32.138-.34.38-.127.836.733 1.5 1.605 2.068 2.56.782 1.317 1.37 2.709 1.578 4.24.146 1.078.172 2.18-.431 3.12-.328.511-.445.955-.304 1.522.046.187.073.364.188.527a39.962 39.962 0 013.721 6.474c.034.075.074.146.13.252.105-.286-.016-.487-.126-.686a11.301 11.301 0 01-1.308-3.838c-.355-2.445-.134-4.814.984-7.051.05-.1.064-.26.194-.266.142-.007.19.152.253.256.674 1.085 1.068 2.28 1.373 3.514.362 1.47.617 2.954.543 4.476-.054 1.087-.304 2.127-1.07 2.927-.349.365-.387.721-.4 1.179-.024.7.301 1.272.522 1.884a42.847 42.847 0 011.638 5.721c.017.081.043.16.073.271.117-.289.103-.542.033-.806-.373-1.413-.62-2.848-.57-4.314.082-2.393.86-4.534 2.398-6.375.348-.416.366-.416.54.122a12.47 12.47 0 01.578 3.25c.043.915.065 1.827-.008 2.74-.103 1.276-.262 2.538-.929 3.67-.33.562-.764 1.014-1.343 1.311-.16.082-.225.197-.259.367-.064.32-.095.65-.23.956-.06.14-.01.291.014.44.194 1.163.32 2.334.417 3.51.11 1.325.18 2.65.185 3.98 0 .027.016.056.031.102.155-.145.185-.311.168-.497-.3-3.212.516-6.087 2.554-8.589a9.744 9.744 0 011.85-1.73c.265-.194.33-.174.373.15.085.645.114 1.295.062 1.943-.098 1.23-.277 2.449-.623 3.635-.384 1.32-.832 2.614-1.704 3.706-.524.658-1.165 1.134-2.007 1.288-.082.015-.189.004-.223.094-.162.432-.47.819-.48 1.299-.04 2.257-.235 4.497-.68 6.711a.754.754 0 00.018.387c.126-.433.236-.872.382-1.298 1.018-2.965 2.963-5.072 5.795-6.347.248-.112.502-.216.782-.218l.001.895z" fill="#fff"/></g><defs><clipPath id="clip0_25_622"><path fill="#fff" d="M0 0h31v71H0z"/></clipPath></defs></svg>