<svg width="31" height="71" fill="none" xmlns="http://www.w3.org/2000/svg"><g clip-path="url(#clip0_25_626)"><path d="M0 38.049c.44 2.126 1.348 4.04 2.613 5.785.57.786 1.23 1.483 2.102 1.944.614.326 1.258.483 1.95.359.184-.033.252.07.356.188.58.663.743 1.506 1.014 2.306.81 2.4 1.793 4.723 3.051 6.935-.274-.053-.276-.052-.435-.382-.514-1.068-1.121-2.076-1.933-2.94-1.289-1.37-2.832-2.298-4.693-2.636-.624-.113-1.258-.09-1.89-.088-.22 0-.264.09-.219.3.164.76.498 1.444.92 2.084.951 1.437 2.067 2.723 3.545 3.626 1.007.616 2.112.897 3.299.669.215-.042.441-.1.624-.213.249-.153.43-.11.654.044.375.256.715.518.965.928a29.27 29.27 0 004.501 5.657c.022.021.036.05.054.078-.205.04-.21.045-.38-.14-.506-.558-1.035-1.087-1.64-1.54-1.053-.791-2.248-1.19-3.534-1.333-1.585-.178-3.101.11-4.568.712-.376.155-.401.214-.173.545.471.682 1.09 1.209 1.773 1.66 1.152.764 2.369 1.383 3.729 1.678 1.115.24 2.224.345 3.312-.139.393-.174.723-.432 1.026-.732.06-.059.129-.16.189-.157.392.025.815-.047 1.143.243a25.062 25.062 0 006.06 3.998c.058.027.115.053.17.084.014.008.019.034.031.06-.175.09-.32.014-.467-.071-.688-.395-1.396-.746-2.154-.983-1.427-.446-2.85-.35-4.259.076-1.37.415-2.582 1.13-3.676 2.058-.207.177-.184.298-.002.455.497.429 1.074.706 1.685.92 1.39.487 2.82.703 4.287.604 1.078-.072 2.129-.281 3.054-.906.536-.361.971-.815 1.269-1.393a.532.532 0 01.383-.289c.49-.121.943-.109 1.435.087 1.423.567 2.91.92 4.424 1.149.131.02.33.122.396-.111.059-.21-.132-.568-.337-.616-.461-.107-.928-.191-1.39-.29-1.394-.302-2.732-.782-4.054-1.312-.125-.05-.21-.122-.248-.263-.118-.454-.22-.909-.163-1.383.195-1.628-.185-3.147-.88-4.599-.749-1.566-1.886-2.779-3.355-3.678-.09-.055-.179-.115-.276-.154-.13-.054-.266-.219-.394-.107-.1.087-.004.26.02.391.252 1.335.367 2.693.669 4.02.257 1.132.548 2.258 1.233 3.218.46.645 1.033 1.178 1.746 1.536.2.1.405.192.633.174.222-.019.298.109.333.297.011.06.054.127 0 .18-.056.055-.12.004-.172-.022-.306-.144-.615-.281-.913-.439a24.667 24.667 0 01-5.48-3.96.686.686 0 01-.212-.475c-.045-.512-.043-1.002.15-1.501.493-1.283.567-2.618.458-3.985a10.913 10.913 0 00-1.793-5.21c-.25-.38-.545-.73-.825-1.09-.05-.063-.109-.151-.204-.12-.105.032-.067.142-.076.221-.165 1.37-.355 2.738-.485 4.111-.134 1.422-.177 2.857.301 4.229.351 1.007.907 1.894 1.86 2.457.21.124.236.233.197.668-.335-.327-.685-.625-.985-.967a31.237 31.237 0 01-3.706-5.194c-.14-.244-.168-.467-.14-.751.06-.593.294-1.08.624-1.566.822-1.212 1.173-2.601 1.358-4.038.213-1.66.031-3.286-.444-4.882a10.15 10.15 0 00-.596-1.543c-.032-.065-.056-.154-.144-.152-.07.001-.093.075-.114.136-.59 1.66-1.346 3.257-1.81 4.964-.227.833-.451 1.679-.421 2.537.044 1.303.224 2.592 1.18 3.604.215.227-.002.454.002.686-.35-.523-.601-1.093-.858-1.657-.987-2.17-1.779-4.408-2.317-6.736-.047-.203-.003-.362.062-.549.222-.64.603-1.113 1.148-1.53 1.103-.847 1.744-2.058 2.271-3.324.842-2.024 1.012-4.13.715-6.289-.018-.134-.056-.265-.083-.396-.153-.002-.194.109-.255.19-.816 1.096-1.65 2.18-2.441 3.294-.801 1.128-1.493 2.321-1.77 3.707a6.039 6.039 0 00-.036 2.218c.043.254.1.518.255.714.284.359.144.66-.078 1.047-.078-.37-.15-.675-.207-.983a40.11 40.11 0 01-.717-7.507c0-.297.08-.529.242-.787.305-.486.706-.756 1.23-.959 1.03-.398 1.806-1.149 2.485-2.01 1.353-1.718 2.049-3.691 2.268-5.856.03-.297.063-.592.054-.89-.005-.17-.076-.225-.211-.105-1.215 1.084-2.601 1.962-3.721 3.159-1.068 1.14-1.833 2.433-2.015 4.024-.058.5-.073 1.005.05 1.492.087.349-.07.539-.336.761-.052-.36-.031-.684-.015-1.005.103-1.974.319-3.937.688-5.88.134-.709.299-1.412.447-2.119.027-.126.124-.184.204-.269.455-.479 1.016-.548 1.648-.594 1.08-.078 1.994-.633 2.835-1.3 1.68-1.333 2.673-3.114 3.292-5.14.025-.08.07-.167.01-.243-.058-.075-.136-.027-.202 0-1.295.561-2.654.97-3.906 1.635-.93.494-1.788 1.083-2.411 1.963-.574.808-.813 1.717-.775 2.702.014.353-.288.325-.503.44.164-.578.32-1.159.494-1.733a44.263 44.263 0 012.251-5.852c.112-.239.268-.364.518-.485.458-.22.862-.176 1.325-.055 1.31.343 2.529-.017 3.685-.615 1.42-.734 2.446-1.892 3.277-3.241.087-.143.24-.371-.122-.338-1.484.138-2.992.04-4.45.446-.995.278-1.886.723-2.538 1.57-.33.43-.53.915-.625 1.446-.02.106-.021.221-.13.275-.13.065-.294.196-.404.11-.132-.104.032-.249.089-.359a39.004 39.004 0 013.38-5.419c.14-.188.301-.231.519-.284.47-.112.835.067 1.248.239 1.798.748 3.525.473 5.171-.488.803-.468 1.47-1.099 2.047-1.83.158-.2.154-.31-.118-.344-1.364-.171-2.707-.567-4.098-.47-1.331.091-2.506.539-3.325 1.685a2.927 2.927 0 00-.309.59c-.037.09-.067.18-.17.216-.12.044-.278.115-.36.028-.109-.115.066-.197.128-.274 1.159-1.424 2.38-2.786 3.796-3.96.107-.088.207-.166.358-.173 2.212-.11 3.848-1.233 5.11-2.992.624-.868 1.055-1.836 1.356-2.864.034-.12.12-.27.038-.363-.1-.112-.232.02-.34.061-1.01.395-2.053.703-3.04 1.161-1.344.624-2.475 1.488-3.165 2.852a3.083 3.083 0 00-.324 1.637c.014.203-.063.335-.212.463-.957.821-1.818 1.74-2.664 2.674a39.836 39.836 0 00-2.375 2.891c.008-.384.071-.656.296-.9 1.368-1.481 2.166-3.246 2.53-5.229.228-1.25.33-2.505.245-3.772a11.53 11.53 0 00-.146-1.17c-.054-.32-.138-.34-.38-.127-.835.733-1.5 1.605-2.068 2.56-.783 1.317-1.37 2.709-1.578 4.24-.146 1.078-.172 2.18.431 3.12.328.511.446.955.305 1.522-.047.187-.074.364-.189.527a39.942 39.942 0 00-3.721 6.474c-.034.075-.075.146-.13.252-.106-.286.016-.487.125-.686a11.284 11.284 0 001.31-3.838c.354-2.445.132-4.814-.985-7.051-.05-.1-.065-.26-.194-.266-.143-.007-.19.152-.254.256-.674 1.085-1.068 2.28-1.372 3.514-.363 1.47-.617 2.954-.543 4.476.053 1.087.304 2.127 1.07 2.927.349.365.386.721.4 1.179.024.7-.302 1.272-.522 1.884a42.837 42.837 0 00-1.638 5.721c-.017.081-.043.16-.073.271-.117-.289-.103-.542-.034-.806.374-1.413.621-2.848.57-4.314-.082-2.393-.86-4.534-2.397-6.375-.348-.416-.367-.416-.54.122a12.471 12.471 0 00-.578 3.25c-.043.915-.065 1.827.008 2.74.103 1.276.261 2.538.928 3.67.331.562.765 1.014 1.344 1.311.16.082.224.197.259.367.064.32.095.65.23.956.06.14.01.291-.015.44a42.72 42.72 0 00-.417 3.51 50.357 50.357 0 00-.184 3.98c0 .027-.017.056-.031.102-.156-.145-.186-.311-.169-.497.3-3.212-.515-6.087-2.553-8.589a9.777 9.777 0 00-1.85-1.73c-.266-.194-.33-.174-.373.15a9.187 9.187 0 00-.062 1.943c.098 1.23.277 2.449.622 3.635.384 1.32.832 2.614 1.704 3.706.525.658 1.166 1.134 2.008 1.288.082.015.189.004.222.094.162.432.472.819.48 1.299.041 2.257.235 4.497.682 6.711a.765.765 0 01-.02.387c-.126-.433-.236-.872-.382-1.298-1.017-2.965-2.962-5.072-5.794-6.347-.248-.112-.502-.216-.782-.218L0 38.05z" fill="#fff"/></g><defs><clipPath id="clip0_25_626"><path fill="#fff" d="M0 0h31v71H0z"/></clipPath></defs></svg>