<svg width="40" height="40" fill="none" xmlns="http://www.w3.org/2000/svg"><path d="M37.437 21.257c.03-.417.063-.834.063-1.257 0-6.102-3.143-11.477-7.892-14.61-.028-.018-.055-.037-.085-.052a17.37 17.37 0 00-5.701-2.405c-.032-.011-.065-.016-.099-.025a17.485 17.485 0 00-3.725-.408c-9.65 0-17.5 7.85-17.5 17.5s7.85 17.5 17.5 17.5a17.52 17.52 0 003.904-.453.809.809 0 00.313-.082c7.185-1.788 12.622-8.012 13.215-15.593.002-.039.01-.077.007-.115zM35.833 20c0 .172-.02.337-.025.507a3.7 3.7 0 00-2.245 1.18c-.091.103-.15.131-.161.133-.025 0-.69-.045-2.205-2.838-1.137-2.097-.642-3.165-.014-4.519.204-.44.407-.881.555-1.343.342-1.012.072-2.632-.393-4.142 2.772 2.854 4.488 6.739 4.488 11.022zM4.167 20c0-1.45.211-2.85.58-4.185 1.036 5.268 4.786 7.175 6.77 8.175.436.22.958.468 1.036.488.152.65.135 1.012.104 1.672-.025.537-.057 1.203-.007 2.243.088 1.82 1.577 2.597 2.773 3.222.782.408 1.522.795 1.932 1.402.278.398.48 1.535.307 2.626C10.038 34.505 4.167 27.933 4.167 20zM19.32 35.798c.198-1.388-.017-2.906-.593-3.728-.64-.945-1.645-1.47-2.534-1.933-1.175-.614-1.84-1-1.88-1.825-.046-.965-.016-1.587.007-2.085.033-.7.058-1.254-.145-2.129-.168-.718-.898-1.086-1.908-1.596-2.374-1.197-6.319-3.197-6.12-10.154C8.848 7.475 14.043 4.165 20 4.165c.882 0 1.74.09 2.583.23-.245.692-.908 1.273-1.568 1.49-3.162 1.037-3.195 3.807-3.218 5.828-.022 1.802-.127 2.345-.78 2.48-.23.037-.964-.356-1.357-.571-.825-.449-1.683-.914-2.485-.719-.66.155-1.502.799-1.762 1.682-.128.433-.215 1.295.637 2.177.705.73.737 1.078.788 1.608.035.365.079.817.322 1.377.832 1.835 3.23 1.783 4.975 1.585 1.828-.227 2.382-.299 3.488.855.43.448.667.985.917 1.551.425.969.957 2.175 2.6 2.365 1.397.174 2.563.639 2.972 1.185.136.182.18.362.141.58-.111.662-.815 1.33-1.631 2.105-1.335 1.269-2.959 2.84-3.474 5.54-1.018.207-2.07.317-3.146.317-.232.003-.455-.022-.682-.032zm5.672-.783c.565-1.707 1.721-2.827 2.776-3.83.989-.94 1.924-1.827 2.127-3.037a2.377 2.377 0 00-.45-1.853c-.99-1.328-3.198-1.732-4.108-1.843-.649-.075-.842-.399-1.274-1.38-.283-.644-.603-1.374-1.24-2.037-1.686-1.755-2.965-1.595-4.888-1.355-1.882.215-2.977.007-3.255-.608-.133-.305-.157-.549-.185-.857-.062-.65-.138-1.46-1.248-2.608-.305-.315-.255-.49-.239-.549.077-.266.417-.5.545-.531.217-.025.904.338 1.309.56.82.446 1.66.91 2.49.74 2.066-.427 2.091-2.46 2.111-4.094.027-2.24.179-3.645 2.072-4.265 1.152-.376 2.305-1.398 2.683-2.715a15.773 15.773 0 014.342 1.945c.84 1.235 1.983 4.749 1.597 5.897-.132.407-.31.787-.487 1.165-.692 1.492-1.477 3.182.06 6.015 1.338 2.467 2.377 3.575 3.473 3.7.062.007.127.012.197.012.4 0 .918-.14 1.41-.695a2.05 2.05 0 01.848-.565c-.851 5.998-5.06 10.918-10.666 12.788z" fill="#fff"/></svg>