<svg width="40" height="40" fill="none" xmlns="http://www.w3.org/2000/svg"><path d="M18.333 28.333c0 .46-.373.834-.833.834H8.333c-3.816 0-5.833-2.017-5.833-5.834V10c0-3.817 2.017-5.833 5.833-5.833h20c3.817 0 5.834 2.016 5.834 5.833a.834.834 0 01-1.667 0c0-2.882-1.285-4.167-4.167-4.167h-20c-2.881 0-4.166 1.285-4.166 4.167v13.333c0 2.882 1.285 4.167 4.166 4.167H17.5c.46 0 .833.373.833.833zM20 12.5H10a.834.834 0 000 1.667h10a.834.834 0 000-1.667zm-5 8.333a.834.834 0 000-1.666h-5a.834.834 0 000 1.666h5zm21.551 3.68l-.354.355a.37.37 0 00-.107.262v.498a3.24 3.24 0 01-2.039 3.003l1.75 6.142a.831.831 0 01-1.111 1.002l-3.078-1.233a5.856 5.856 0 00-4.34 0l-3.075 1.233a.833.833 0 01-1.112-1.002l1.752-6.142a3.24 3.24 0 01-2.037-3.003v-.498a.37.37 0 00-.107-.26l-.356-.355a3.243 3.243 0 010-4.582l.355-.355a.368.368 0 00.108-.261v-.499a3.243 3.243 0 013.238-3.24h.499c.1 0 .192-.038.262-.108l.353-.354c1.223-1.224 3.358-1.224 4.581 0l.355.354a.36.36 0 00.262.108h.498a3.243 3.243 0 013.239 3.24v.499c0 .098.04.193.108.265l.353.35a3.243 3.243 0 01.003 4.581zm-2.82 9.082l-1.346-4.729h-.033c-.1 0-.192.039-.26.107l-.357.355a3.214 3.214 0 01-2.29.949c-.867 0-1.68-.337-2.292-.949l-.353-.355a.374.374 0 00-.262-.107h-.035l-1.346 4.729 1.5-.602a7.49 7.49 0 015.575 0l1.5.602zm1.642-12.485l-.355-.353a2.041 2.041 0 01-.595-1.442v-.498c0-.869-.705-1.574-1.571-1.574h-.498a2.01 2.01 0 01-1.442-.598l-.354-.35c-.595-.595-1.63-.595-2.225 0l-.353.353a2.02 2.02 0 01-1.44.597h-.498c-.869 0-1.572.705-1.572 1.573v.499c0 .543-.212 1.055-.597 1.44l-.355.355a1.575 1.575 0 000 2.223l.355.355c.384.383.597.895.597 1.44v.498c0 .869.705 1.574 1.572 1.574h.498a2.02 2.02 0 011.439.595l.354.355c.595.591 1.63.593 2.225 0l.355-.355a2.02 2.02 0 011.44-.595h.499c.868 0 1.571-.706 1.571-1.574v-.498c0-.535.217-1.06.594-1.438l.356-.355a1.579 1.579 0 000-2.227zm-2.318 1.112a3.615 3.615 0 01-3.61 3.611 3.616 3.616 0 01-3.612-3.611 3.616 3.616 0 013.612-3.612 3.617 3.617 0 013.61 3.612zm-1.667 0a1.946 1.946 0 00-1.943-1.945 1.946 1.946 0 000 3.89 1.946 1.946 0 001.943-1.945z" fill="#fff"/></svg>