<svg width="40" height="40" fill="none" xmlns="http://www.w3.org/2000/svg"><path d="M31.963 20c1.155-1.753 2.102-3.505 2.765-5.19 1.599-4.055 1.46-7.305-.386-9.152-1.843-1.845-5.097-1.985-9.15-.386-1.685.663-3.437 1.61-5.19 2.765-1.753-1.155-3.505-2.102-5.19-2.765-4.053-1.599-7.307-1.459-9.15.386-1.847 1.845-1.985 5.097-.387 9.152.664 1.685 1.61 3.437 2.765 5.19-1.155 1.753-2.101 3.505-2.765 5.19-1.596 4.055-1.46 7.305.387 9.152.993.993 2.393 1.493 4.107 1.493 1.47 0 3.171-.368 5.043-1.107 1.685-.663 3.437-1.61 5.19-2.765 1.753 1.155 3.505 2.102 5.19 2.765 1.873.739 3.575 1.107 5.043 1.107 1.714 0 3.114-.498 4.107-1.493 1.846-1.847 1.983-5.097.386-9.152-.663-1.685-1.61-3.437-2.765-5.19zM25.8 6.822c1.668-.657 3.17-.985 4.424-.985 1.263 0 2.27.333 2.938 1.001 1.33 1.329 1.335 4.012.015 7.362-.553 1.405-1.312 2.862-2.237 4.328a43.632 43.632 0 00-4.372-5.098 43.783 43.783 0 00-5.096-4.371c1.468-.925 2.925-1.684 4.328-2.237zm-11.19 7.786A41.52 41.52 0 0120 10.045a41.646 41.646 0 015.39 4.563A41.533 41.533 0 0129.955 20a41.639 41.639 0 01-4.565 5.392A41.638 41.638 0 0120 29.955a41.638 41.638 0 01-5.39-4.563A41.532 41.532 0 0110.045 20a41.646 41.646 0 014.565-5.392zM6.824 14.2c-1.32-3.35-1.315-6.033.015-7.362.666-.666 1.674-1.001 2.938-1.001 1.253 0 2.755.328 4.423.985 1.405.553 2.862 1.312 4.329 2.237a43.598 43.598 0 00-5.097 4.371 43.486 43.486 0 00-4.372 5.098c-.926-1.468-1.685-2.925-2.236-4.328zM14.2 33.178c-3.351 1.32-6.031 1.314-7.361-.015-1.33-1.328-1.335-4.013-.015-7.361.553-1.405 1.311-2.862 2.236-4.328a43.625 43.625 0 004.372 5.098 43.613 43.613 0 005.097 4.37c-1.469.925-2.925 1.683-4.329 2.236zm18.962-.015c-1.33 1.327-4.01 1.334-7.362.015-1.405-.553-2.861-1.311-4.328-2.238a43.751 43.751 0 005.096-4.37 43.486 43.486 0 004.372-5.098c.925 1.466 1.684 2.925 2.237 4.328 1.32 3.35 1.315 6.035-.015 7.363zM18.334 20c0-.922.725-1.667 1.641-1.667h.033c.917 0 1.659.745 1.659 1.667s-.742 1.667-1.659 1.667A1.677 1.677 0 0118.334 20z" fill="#fff"/></svg>