<svg width="40" height="40" fill="none" xmlns="http://www.w3.org/2000/svg"><path d="M35.343 16.32a1.647 1.647 0 00-1.176-.487h-.004c-3.263.007-6.461.097-9.703 1.114A7.535 7.535 0 0020 20.68a7.535 7.535 0 00-4.46-3.733c-3.242-1.017-6.44-1.109-9.703-1.114h-.004c-.445 0-.863.174-1.176.487a1.66 1.66 0 00-.49 1.18v13.333c0 .914.74 1.662 1.65 1.667 7.001.032 11.575 1.07 13.593 3.088a.845.845 0 00.265.177c.002 0 .004.003.005.003h.002a.831.831 0 00.633 0h.002c.001 0 .003-.003.005-.003a.845.845 0 00.265-.177c2.018-2.018 6.591-3.056 13.595-3.088a1.667 1.667 0 001.648-1.667V17.5a1.637 1.637 0 00-.486-1.18zM5.835 17.5c3.13.007 6.188.092 9.207 1.038 2.466.774 4.125 3.02 4.125 5.587v9.188c-4.004-2.435-10.887-2.465-13.334-2.477L5.835 17.5zm14.998 15.812v-9.189c0-2.566 1.657-4.812 4.126-5.587 3.02-.946 6.078-1.031 9.208-1.038l.01 13.335c-2.455.012-9.339.042-13.344 2.479zM20 14.167c2.757 0 5-2.244 5-5 0-2.757-2.243-5-5-5s-5 2.243-5 5c0 2.756 2.243 5 5 5zm0-8.334a3.337 3.337 0 013.333 3.334A3.337 3.337 0 0120 12.5a3.337 3.337 0 01-3.333-3.333A3.337 3.337 0 0120 5.833z" fill="#fff"/></svg>