<svg width="40" height="40" fill="none" xmlns="http://www.w3.org/2000/svg"><path d="M22.5 23.333c0 .46-.373.834-.833.834h-10a.834.834 0 010-1.667h10c.46 0 .833.373.833.833zM16.667 27.5h-5a.834.834 0 000 1.667h5a.834.834 0 000-1.667zm19.166-8.333v12.5a4.172 4.172 0 01-4.166 4.166H10c-3.817 0-5.833-2.016-5.833-5.833V10c0-3.817 2.016-5.833 5.833-5.833h13.333c3.817 0 5.834 2.016 5.834 5.833v5.833H32.5a3.337 3.337 0 013.333 3.334zm-7.498 15a4.152 4.152 0 01-.835-2.5V10c0-2.882-1.285-4.167-4.167-4.167H10c-2.882 0-4.167 1.285-4.167 4.167v20c0 2.882 1.285 4.167 4.167 4.167h18.335zm5.832-15A1.67 1.67 0 0032.5 17.5h-3.333v14.167c0 1.378 1.121 2.5 2.5 2.5 1.378 0 2.5-1.122 2.5-2.5v-12.5zm-21.342-4.394l1.55.399c.438.115.743.53.743 1.01 0 .28-.105.545-.295.743a.937.937 0 01-.676.297h-.675c-.494 0-.909-.397-.967-.924a.837.837 0 00-.918-.738.832.832 0 00-.739.918c.13 1.194.999 2.13 2.107 2.357v.332a.834.834 0 001.667 0v-.325a2.608 2.608 0 001.401-.759 2.73 2.73 0 00.764-1.9c0-1.236-.817-2.315-1.99-2.623l-1.552-.4a.964.964 0 01-.533-.365 1.071 1.071 0 01-.21-.645c0-.573.436-1.04.971-1.04h.675c.494 0 .909.397.967.923a.832.832 0 101.657-.18c-.132-1.21-1.02-2.155-2.149-2.365v-.323a.834.834 0 00-1.666 0v.332c-1.209.246-2.122 1.341-2.122 2.651 0 .6.195 1.189.547 1.65.356.48.87.825 1.443.975z" fill="#fff"/></svg>