<svg width="40" height="40" fill="none" xmlns="http://www.w3.org/2000/svg"><path d="M29.05 2.5H17.618c-3.298 0-5.116 1.817-5.116 5.117v1.55h-1.549c-3.3 0-5.118 1.818-5.118 5.118v22.382a.837.837 0 00.833.833.83.83 0 00.414-.11l9.586-5.478 9.587 5.478a.835.835 0 001.247-.723v-9.045l5.42 3.103a.833.833 0 001.247-.724V7.619c-.002-3.301-1.82-5.118-5.12-5.118zm-3.217 32.73l-8.753-5.002a.832.832 0 00-.827 0L7.5 35.23V14.285c0-2.388 1.065-3.452 3.452-3.452H22.38c2.388 0 3.452 1.065 3.452 3.452V35.23h.001zm6.667-6.667l-5-2.863V14.285c0-3.3-1.818-5.118-5.118-5.118h-8.215v-1.55c0-2.387 1.065-3.45 3.45-3.45h11.431c2.387 0 3.45 1.063 3.45 3.45v20.946h.002zM16.667 20.5a3.17 3.17 0 003.166-3.167 3.17 3.17 0 00-3.166-3.166 3.17 3.17 0 00-3.167 3.166 3.17 3.17 0 003.167 3.167zm0-4.667c.826 0 1.5.674 1.5 1.5 0 .827-.674 1.5-1.5 1.5-.827 0-1.5-.673-1.5-1.5 0-.826.673-1.5 1.5-1.5zm5.033 10.41v.424a.834.834 0 01-1.667 0v-.424c0-1.08-.771-2.243-2.466-2.243H15.77c-1.697 0-2.467 1.163-2.467 2.243v.424a.834.834 0 01-1.666 0v-.424c0-1.943 1.42-3.91 4.133-3.91h1.797c2.713 0 4.133 1.967 4.133 3.91z" fill="#fff"/></svg>