<svg width="40" height="40" fill="none" xmlns="http://www.w3.org/2000/svg"><path d="M20.833 30.81v3.357h5.834a.834.834 0 010 1.666H13.333a.834.834 0 010-1.666h5.834v-3.39a15.279 15.279 0 01-9.155-3.96l-2.755 2.755a.834.834 0 01-1.179-1.179l3.334-3.333a.833.833 0 01.59-.243c.185-.022.434.088.591.246a13.668 13.668 0 009.792 4.102c7.6 0 13.783-6.175 13.783-13.767 0-3.695-1.458-7.18-4.105-9.81a.834.834 0 011.175-1.181c2.964 2.945 4.597 6.848 4.597 10.991-.002 8.36-6.692 15.172-15.002 15.412zM10 15.417c0-5.515 4.485-10 10-10s10 4.485 10 10-4.485 10-10 10-10-4.485-10-10zm1.667 0c0 4.595 3.738 8.333 8.333 8.333 4.595 0 8.333-3.738 8.333-8.333 0-4.595-3.738-8.334-8.333-8.334-4.595 0-8.333 3.739-8.333 8.334z" fill="#fff"/></svg>