<svg width="28" height="28" fill="none" xmlns="http://www.w3.org/2000/svg"><g clip-path="url(#clip0_158_3461)" stroke="#E4DDD4" stroke-miterlimit="10"><path d="M17.899 3.258l6.816 6.816M15.137 4.7C11.157 3.258 7 4.12 3.5 8.75l3.644 3.652m8.454 8.455L19.25 24.5c4.63-3.5 5.492-7.656 4.05-11.637"/><path d="M12.25 22.75l-7-7S10.931 2.005 26.824 1.176C25.925 17 12.25 22.75 12.25 22.75z" stroke-linecap="square"/><path d="M16.188 14a2.188 2.188 0 100-4.375 2.188 2.188 0 000 4.375zM2.519 21.77a2.625 2.625 0 013.712 3.71c-1.025 1.026-5.206 1.494-5.206 1.494s.469-4.18 1.494-5.205z" stroke-linecap="square"/></g><defs><clipPath id="clip0_158_3461"><path fill="#fff" d="M0 0h28v28H0z"/></clipPath></defs></svg>