<svg width="24" height="16" viewBox="0 0 24 16" fill="none" xmlns="http://www.w3.org/2000/svg">
<path d="M24 0H0V16H24V0Z" fill="#F0F0F0"/>
<path d="M24 1.99976H0V3.99956H24V1.99976Z" fill="#D80027"/>
<path d="M24 5.99988H0V7.99968H24V5.99988Z" fill="#D80027"/>
<path d="M24 9.99951H0V11.9993H24V9.99951Z" fill="#D80027"/>
<path d="M24 13.9996H0V15.9994H24V13.9996Z" fill="#D80027"/>
<path d="M12 0H0V8.61539H12V0Z" fill="#2E52B2"/>
<path d="M4.67923 3.5293L4.48596 4.12385H3.86084L4.36667 4.49112L4.1734 5.08562L4.67923 4.71836L5.18473 5.08562L4.99151 4.49112L5.49734 4.12385H4.87217L4.67923 3.5293Z" fill="#F0F0F0"/>
<path d="M4.87217 6.26944L4.67923 5.67493L4.48596 6.26944H3.86084L4.36667 6.63674L4.1734 7.23125L4.67923 6.86395L5.18473 7.23125L4.99151 6.63674L5.49734 6.26944H4.87217Z" fill="#F0F0F0"/>
<path d="M2.23012 6.26944L2.03714 5.67493L1.84388 6.26944H1.21875L1.72458 6.63674L1.53131 7.23125L2.03714 6.86395L2.54269 7.23125L2.34947 6.63674L2.8552 6.26944H2.23012Z" fill="#F0F0F0"/>
<path d="M2.03714 3.5293L1.84388 4.12385H1.21875L1.72458 4.49112L1.53131 5.08562L2.03714 4.71836L2.54269 5.08562L2.34947 4.49112L2.8552 4.12385H2.23012L2.03714 3.5293Z" fill="#F0F0F0"/>
<path d="M4.67923 1.38367L4.48596 1.97827H3.86084L4.36667 2.34558L4.1734 2.94009L4.67923 2.57278L5.18473 2.94009L4.99151 2.34558L5.49734 1.97827H4.87217L4.67923 1.38367Z" fill="#F0F0F0"/>
<path d="M2.03714 1.38367L1.84388 1.97827H1.21875L1.72458 2.34558L1.53131 2.94009L2.03714 2.57278L2.54269 2.94009L2.34947 2.34558L2.8552 1.97827H2.23012L2.03714 1.38367Z" fill="#F0F0F0"/>
<path d="M7.32127 3.5293L7.12805 4.12385H6.50293L7.00871 4.49112L6.81554 5.08562L7.32127 4.71836L7.82687 5.08562L7.6336 4.49112L8.13943 4.12385H7.5143L7.32127 3.5293Z" fill="#F0F0F0"/>
<path d="M7.5143 6.26944L7.32127 5.67493L7.12805 6.26944H6.50293L7.00871 6.63674L6.81554 7.23125L7.32127 6.86395L7.82687 7.23125L7.6336 6.63674L8.13943 6.26944H7.5143Z" fill="#F0F0F0"/>
<path d="M10.1568 6.26944L9.96385 5.67493L9.77059 6.26944H9.14551L9.65124 6.63674L9.45802 7.23125L9.96385 6.86395L10.4694 7.23125L10.2761 6.63674L10.782 6.26944H10.1568Z" fill="#F0F0F0"/>
<path d="M9.96385 3.5293L9.77059 4.12385H9.14551L9.65124 4.49112L9.45802 5.08562L9.96385 4.71836L10.4694 5.08562L10.2761 4.49112L10.782 4.12385H10.1568L9.96385 3.5293Z" fill="#F0F0F0"/>
<path d="M7.32127 1.38367L7.12805 1.97827H6.50293L7.00871 2.34558L6.81554 2.94009L7.32127 2.57278L7.82687 2.94009L7.6336 2.34558L8.13943 1.97827H7.5143L7.32127 1.38367Z" fill="#F0F0F0"/>
<path d="M9.96385 1.38367L9.77059 1.97827H9.14551L9.65124 2.34558L9.45802 2.94009L9.96385 2.57278L10.4694 2.94009L10.2761 2.34558L10.782 1.97827H10.1568L9.96385 1.38367Z" fill="#F0F0F0"/>
</svg>
