<svg width="24" height="16" viewBox="0 0 24 16" fill="none" xmlns="http://www.w3.org/2000/svg">
<path d="M24 0H0V15.9999H24V0Z" fill="#0052B4"/>
<path d="M10.472 7.99972C10.4848 7.98547 10.4975 7.97118 10.5101 7.95679C10.4975 7.97122 10.4845 7.98538 10.4717 7.99972H10.472Z" fill="#F0F0F0"/>
<path d="M8.86964 9.96497L9.38329 11.039L10.5433 10.771L10.0238 11.8422L10.9566 12.5819L9.79523 12.8437L9.79846 14.0342L8.86964 13.2894L7.94086 14.0342L7.94409 12.8437L6.78271 12.5819L7.71553 11.8422L7.19601 10.771L8.35598 11.039L8.86964 9.96497Z" fill="#F0F0F0"/>
<path d="M18.1438 11.2992L18.3888 11.8115L18.9421 11.6836L18.6943 12.1945L19.1393 12.5474L18.5853 12.6722L18.5868 13.2401L18.1438 12.8849L17.7009 13.2401L17.7024 12.6722L17.1484 12.5474L17.5933 12.1945L17.3456 11.6836L17.8989 11.8115L18.1438 11.2992Z" fill="#F0F0F0"/>
<path d="M15.8656 5.86462L16.1106 6.37696L16.6638 6.24904L16.4161 6.76001L16.8609 7.11288L16.307 7.23771L16.3085 7.80559L15.8656 7.45028L15.4225 7.80559L15.4241 7.23771L14.8701 7.11288L15.315 6.76001L15.0673 6.24904L15.6205 6.37696L15.8656 5.86462Z" fill="#F0F0F0"/>
<path d="M18.1438 2.75928L18.3888 3.27161L18.9421 3.14364L18.6943 3.65467L19.1392 4.00749L18.5853 4.13236L18.5868 4.70019L18.1438 4.34489L17.7009 4.70019L17.7024 4.13236L17.1484 4.00749L17.5933 3.65467L17.3456 3.14364L17.8989 3.27161L18.1438 2.75928Z" fill="#F0F0F0"/>
<path d="M20.1346 5.08838L20.3796 5.60067L20.9328 5.47279L20.6851 5.98372L21.13 6.33654L20.576 6.46141L20.5776 7.02925L20.1346 6.67404L19.6916 7.02925L19.6931 6.46141L19.1392 6.33654L19.5841 5.98372L19.3363 5.47279L19.8895 5.60067L20.1346 5.08838Z" fill="#F0F0F0"/>
<path d="M18.7119 7.80566L18.9045 8.39871H19.5282L19.0236 8.76527L19.2164 9.35832L18.7119 8.99181L18.2073 9.35832L18.4 8.76527L17.8955 8.39871H18.5191L18.7119 7.80566Z" fill="#F0F0F0"/>
<path d="M12 0V1.43214L9.8828 2.60864H12V5.39103H9.22955L12 6.93015V7.99967H10.7494L7.30434 6.08599V7.99967H4.69566V5.72286L0.597375 7.99967H0V6.56753L2.1172 5.39103H0V2.60864H2.77045L0 1.06901V0H1.25063L4.69566 1.91373V0H7.30434V2.27681L11.4026 0H12Z" fill="#F0F0F0"/>
<path d="M6.75 -0.00012207H5.25V3.24975H0V4.74972H5.25V7.99969H6.75V4.74972H12V3.24975H6.75V-0.00012207Z" fill="#D80027"/>
<path d="M7.30469 5.39111L12.0003 7.99975V7.26209L8.63252 5.39111H7.30469Z" fill="#0052B4"/>
<path d="M7.30469 5.39111L12.0003 7.99975V7.26209L8.63252 5.39111H7.30469Z" fill="#F0F0F0"/>
<path d="M7.30469 5.39111L12.0003 7.99975V7.26209L8.63252 5.39111H7.30469Z" fill="#D80027"/>
<path d="M3.36778 5.39111L0 7.26209V7.99975L4.69566 5.39111H3.36778Z" fill="#D80027"/>
<path d="M4.69566 2.60851L0 -0.00012207V0.737535L3.36783 2.60851H4.69566Z" fill="#0052B4"/>
<path d="M4.69566 2.60851L0 -0.00012207V0.737535L3.36783 2.60851H4.69566Z" fill="#F0F0F0"/>
<path d="M4.69566 2.60851L0 -0.00012207V0.737535L3.36783 2.60851H4.69566Z" fill="#D80027"/>
<path d="M8.63256 2.60851L12.0003 0.737535V-0.00012207L7.30469 2.60851H8.63256Z" fill="#D80027"/>
</svg>
