<svg width="110" height="93" viewBox="0 0 110 93" fill="none" xmlns="http://www.w3.org/2000/svg">
<g clip-path="url(#clip0_579_3064)">
<path d="M54.0267 92.4677C53.8423 92.3656 49.4268 89.9466 43.1283 85.8148C39.6377 83.5282 36.249 81.1588 33.0612 78.7729C30.0331 76.5139 27.1619 74.2218 24.533 71.9683C21.8132 69.6431 19.2696 67.2876 16.9765 64.9651C14.6146 62.5737 12.4922 60.1933 10.6643 57.893C8.79511 55.5347 7.18196 53.1984 5.86886 50.9532C4.93566 49.3672 4.11807 47.7729 3.44913 46.2228C1.1285 40.8635 -0.0304351 35.5125 -0.000154081 30.316C0.0934419 14.5112 11.4048 1.85906 26.8949 0.231693C28.3456 0.0772311 29.7854 0 31.1756 0C45.248 0 52.0447 7.84447 54.993 13.0134C55.9454 11.3419 57.3136 9.37254 59.2158 7.48038C64.2122 2.51829 70.8079 0 78.8241 0C80.2143 0 81.654 0.0772311 83.1075 0.231693C89.2986 0.882641 95.03 3.35679 99.6795 7.38384C102.127 9.50218 104.197 11.9929 105.832 14.7842C107.153 17.0377 108.175 19.465 108.871 21.9971C109.521 24.3499 109.895 26.8268 109.981 29.3588C109.994 29.6733 110.003 29.9988 110.003 30.3297C110.016 32.4122 109.832 34.5499 109.458 36.671C109.056 38.9962 108.414 41.3765 107.547 43.7404C107.272 44.5099 106.947 45.3236 106.562 46.22C105.893 47.7729 105.075 49.3672 104.136 50.9615C102.826 53.2012 101.213 55.5374 99.3464 57.893C97.5241 60.1906 95.4016 62.571 93.037 64.9679C90.7163 67.3124 88.1755 69.6679 85.4777 71.9738C82.8515 74.2246 79.9831 76.5167 76.9522 78.7785C73.7727 81.1561 70.3867 83.5254 66.8879 85.8203C60.5895 89.9494 56.1739 92.3711 55.9895 92.4732L55.0122 93.0083L54.035 92.4732L54.0267 92.4677Z" fill="#EFEFEF"/>
<path d="M107.957 30.327C107.968 32.2578 107.806 34.2548 107.443 36.3097C107.068 38.4914 106.465 40.7367 105.626 43.0288C105.345 43.8149 105.026 44.6092 104.682 45.4064C104.029 46.9207 103.253 48.4267 102.375 49.9161C101.048 52.1862 99.4787 54.4259 97.7444 56.6159C95.867 58.9852 93.7831 61.2939 91.5809 63.5226C89.2079 65.9195 86.7001 68.2282 84.1482 70.4099C81.3459 72.8124 78.4967 75.0631 75.7274 77.129C72.179 79.7852 68.7627 82.1353 65.7649 84.0991C59.4637 88.2338 55.0069 90.6665 55.0069 90.6665C55.0069 90.6665 50.5501 88.231 44.2488 84.0991C41.251 82.1353 37.8375 79.7852 34.2836 77.129C31.5143 75.0631 28.6624 72.8124 25.8627 70.4099C23.3109 68.2282 20.7976 65.9195 18.4301 63.5226C16.2279 61.2911 14.1467 58.9852 12.2638 56.6159C10.5268 54.4259 8.96042 52.1889 7.63356 49.9161C6.75541 48.4267 5.97912 46.9207 5.3267 45.4064C3.03635 40.1078 2.02331 35.0243 2.05084 30.327C2.13342 14.9828 13.3071 3.71539 27.107 2.2673C28.533 2.1156 29.8846 2.04664 31.1757 2.04664C50.1316 2.04664 54.7784 17.2363 54.9959 17.9893C54.9959 17.9921 54.9986 17.9976 54.9986 18.0004C55.0344 17.8735 55.2794 17.0433 55.8437 15.8186C56.6641 14.034 58.1589 11.4109 60.6557 8.93124C64.2756 5.33448 69.996 2.04388 78.8215 2.04388C80.1126 2.04388 81.4642 2.11284 82.8902 2.26454C88.7234 2.87963 94.0859 5.24346 98.3418 8.93124C100.594 10.8786 102.532 13.1955 104.068 15.8186C105.276 17.8818 106.237 20.127 106.898 22.5377C107.498 24.7112 107.853 27.0143 107.935 29.4251C107.946 29.7229 107.955 30.0236 107.955 30.3242L107.957 30.327Z" fill="white"/>
<path d="M97.7417 56.6187C95.8643 58.988 93.7804 61.2966 91.5781 63.5253H18.4246C16.2224 61.2939 14.1412 58.988 12.2583 56.6187H97.7417Z" fill="#E52A27"/>
<path d="M84.1455 70.4127C81.3431 72.8151 78.4939 75.0658 75.7246 77.1318H34.2809C31.5115 75.0658 28.6596 72.8151 25.86 70.4127H84.1482H84.1455Z" fill="#E52A27"/>
<path d="M65.7621 84.1019C59.4609 88.2365 55.0041 90.6693 55.0041 90.6693C55.0041 90.6693 50.5473 88.2337 44.2461 84.1019H65.7621Z" fill="#E52A27"/>
<path d="M107.443 36.3124H54.9958V29.4278H107.935L107.44 36.3124H107.443Z" fill="#E52A27"/>
<path d="M98.3418 8.93399H60.6556C64.2756 5.33723 69.996 2.04663 78.8215 2.04663C80.1126 2.04663 81.4642 2.11559 82.8902 2.26729C88.7234 2.88238 94.0859 5.2462 98.3418 8.93399Z" fill="#E52A27"/>
<path d="M106.897 22.5405H54.993V17.9893C54.993 17.9893 54.9958 17.9976 54.9958 18.0004C55.0316 17.8735 55.2766 17.0433 55.8409 15.8186H104.065C105.273 17.8818 106.234 20.127 106.895 22.5377L106.897 22.5405Z" fill="#E52A27"/>
<path d="M105.626 43.0315C105.345 43.8176 105.026 44.612 104.682 45.4091C104.029 46.9234 103.253 48.4294 102.375 49.9189H54.9958V43.0315H105.626Z" fill="#E52A27"/>
<path d="M31.1757 2.04664C29.8846 2.04664 28.5329 2.1156 27.107 2.2673C13.3071 3.71539 2.13338 14.9828 2.04254 30.327C2.01501 35.0243 3.02805 40.1078 5.3184 45.4064C5.97081 46.9206 6.74711 48.4267 7.62526 49.9161H54.9958V17.9866C54.7783 17.2336 50.1316 2.04388 31.1757 2.04388V2.04664ZM7.14902 41.2028L7.56194 42.4743L6.41127 41.7296L5.27986 42.4743L5.63497 41.2028L4.67424 40.4084H5.92677L6.40851 39.1479L6.90402 40.4084H8.15655L7.14902 41.2028ZM7.14902 31.0331L7.56194 32.2936L6.42228 31.5599L5.27986 32.2936L5.63497 31.0331L4.67424 30.2387H5.92677L6.40851 28.9755L6.90402 30.2387H8.15655L7.14902 31.0331ZM7.14902 21.371L7.56194 22.6425L6.42228 21.8978L5.27986 22.6425L5.63497 21.371L4.67424 20.5766H5.92677L6.40851 19.3161L6.90402 20.5766H8.15655L7.14902 21.371ZM12.3987 47.3537L11.2562 46.62L10.1166 47.3537L10.4717 46.1125L9.51094 45.2988H10.7607L11.248 44.0383L11.7435 45.2988H12.9933L11.9857 46.1125L12.4014 47.3537H12.3987ZM11.983 36.2297L12.3987 37.4819L11.2562 36.7399L10.1166 37.4819L10.4717 36.2297L9.51094 35.416H10.7607L11.248 34.1555L11.7435 35.416H12.9933L11.9857 36.2297H11.983ZM11.983 26.3468L12.3987 27.5908L11.2562 26.8571L10.1166 27.5908L10.4717 26.3468L9.51094 25.5359H10.7607L11.248 24.2726L11.7435 25.5359H12.9933L11.9857 26.3468H11.983ZM11.983 16.4475L12.3987 17.708L11.2562 16.9743L10.1166 17.708L10.4717 16.4475L9.51094 15.6531H10.7607L11.248 14.3898L11.7435 15.6531H12.9933L11.9857 16.4475H11.983ZM17.2354 42.4743L16.0957 41.7296L14.956 42.4743L15.3084 41.2028L14.3477 40.4084H15.6002L16.0819 39.1479L16.5774 40.4084H17.83L16.8224 41.2028L17.2354 42.4743ZM16.8224 31.0331L17.2354 32.3019L16.0957 31.5599L14.956 32.3019L15.3084 31.0331L14.3477 30.2387H15.6002L16.0819 28.9755L16.5774 30.2387H17.83L16.8224 31.0331ZM16.8224 21.371L17.2354 22.6425L16.0957 21.8978L14.956 22.6425L15.3084 21.371L14.3477 20.5766H15.6002L16.0819 19.3161L16.5774 20.5766H17.83L16.8224 21.371ZM16.8224 11.455L17.2354 12.7266L16.0957 11.9819L14.956 12.7156L15.3084 11.455L14.3477 10.6607H15.6002L16.0819 9.40014L16.5774 10.6607H17.83L16.8224 11.455ZM20.4369 5.77028L20.9241 4.50976L21.4197 5.77028H22.6694L21.6619 6.58397L22.0776 7.83346L20.9352 7.09149L19.7955 7.82518L20.1506 6.58397L19.1899 5.77028H20.4396H20.4369ZM22.2262 47.3537L21.0866 46.62L19.9469 47.3537L20.2993 46.1125L19.344 45.2988H20.5938L21.0811 44.0383L21.5766 45.2988H22.8263L21.8188 46.1125L22.2317 47.3537H22.2262ZM21.8133 36.2297L22.2262 37.4819L21.0866 36.7399L19.9469 37.4819L20.2993 36.2297L19.344 35.416H20.5938L21.0811 34.1555L21.5766 35.416H22.8263L21.8188 36.2297H21.8133ZM21.8133 26.3468L22.2262 27.5908L21.0866 26.8571L19.9469 27.5908L20.2993 26.3468L19.344 25.5359H20.5938L21.0811 24.2726L21.5766 25.5359H22.8263L21.8188 26.3468H21.8133ZM21.8133 16.4475L22.2262 17.7163L21.0866 16.9743L19.9469 17.7163L20.2993 16.4475L19.344 15.6531H20.5938L21.0811 14.3898L21.5766 15.6531H22.8263L21.8188 16.4475H21.8133ZM27.0657 42.4743L25.926 41.7296L24.7864 42.4743L25.1387 41.2028L24.178 40.4084H25.4305L25.9123 39.1479L26.4078 40.4084H27.6603L26.6528 41.2028L27.0657 42.4743ZM26.6528 31.0331L27.0657 32.3019L25.926 31.5599L24.7864 32.3019L25.1387 31.0331L24.178 30.2387H25.4305L25.9123 28.9755L26.4078 30.2387H27.6603L26.6528 31.0331ZM26.6528 21.371L27.0657 22.6425L25.926 21.8978L24.7864 22.6425L25.1387 21.371L24.178 20.5766H25.4305L25.9123 19.3161L26.4078 20.5766H27.6603L26.6528 21.371ZM26.6528 11.455L27.0657 12.7266L25.926 11.9819L24.7864 12.7156L25.1387 11.455L24.178 10.6607H25.4305L25.9123 9.40014L26.4078 10.6607H27.6603L26.6528 11.455ZM30.1819 5.77028L30.6691 4.50976L31.1646 5.77028H32.4144L31.4069 6.58397L31.8198 7.83346L30.6801 7.09149L29.5405 7.82518L29.8928 6.58397L28.9376 5.77028H30.1874H30.1819ZM31.9712 47.3537L30.8315 46.62L29.6919 47.3537L30.0442 46.1125L29.0835 45.2988H30.336L30.8178 44.0383L31.316 45.2988H32.5658L31.5583 46.1125L31.9712 47.3537ZM31.5583 36.2297L31.9712 37.4736L30.8315 36.7399L29.6919 37.4736L30.0442 36.2297L29.0835 35.416H30.336L30.8178 34.1555L31.316 35.416H32.5658L31.5583 36.2297ZM31.5583 26.3275L31.9712 27.5908L30.8315 26.8571L29.6919 27.5908L30.0442 26.3275L29.0835 25.5387H30.336L30.8178 24.2754L31.316 25.5387H32.5658L31.5583 26.3275ZM31.5583 16.4475L31.9712 17.708L30.8315 16.9743L29.6919 17.708L30.0442 16.4475L29.0835 15.6531H30.336L30.8178 14.3898L31.316 15.6531H32.5658L31.5583 16.4475ZM36.8107 42.4743L35.6683 41.7296L34.5286 42.4743L34.8837 41.2028L33.923 40.4084H35.1727L35.66 39.1479L36.1555 40.4084H37.408L36.395 41.2028L36.8107 42.4743ZM36.395 31.0331L36.8107 32.3019L35.6683 31.5599L34.5286 32.3019L34.8837 31.0331L33.923 30.2387H35.1727L35.66 28.9755L36.1555 30.2387H37.408L36.395 31.0331ZM36.395 21.371L36.8107 22.6425L35.6683 21.8978L34.5286 22.6425L34.8837 21.3903L33.923 20.5766H35.1727L35.66 19.3161L36.1555 20.5766H37.408L36.395 21.371ZM36.395 11.4743L36.8107 12.7266L35.6683 11.9819L34.5286 12.7156L34.8837 11.4743L33.923 10.6607H35.1727L35.66 9.40014L36.1555 10.6607H37.408L36.395 11.4743ZM39.8553 5.77028L40.3425 4.50976L40.8381 5.77028H42.0878L41.0803 6.56466L41.496 7.83346L40.3536 7.09149L39.2139 7.82518L39.569 6.56466L38.6083 5.77028H39.858H39.8553ZM41.6446 47.3647L40.505 46.62L39.3653 47.3647L39.7177 46.1125L38.7624 45.2988H40.0122L40.4995 44.0383L40.995 45.2988H42.2448L41.2372 46.1125L41.6501 47.3647H41.6446ZM41.2317 36.2297L41.6446 37.4819L40.505 36.7399L39.3653 37.4819L39.7177 36.2297L38.7624 35.416H40.0122L40.4995 34.1555L40.995 35.416H42.2448L41.2372 36.2297H41.2317ZM41.2317 26.3468L41.6446 27.5908L40.505 26.8571L39.3653 27.5908L39.7177 26.3468L38.7624 25.5359H40.0122L40.4995 24.2726L40.995 25.5359H42.2448L41.2372 26.3468H41.2317ZM41.2317 16.4668L41.6446 17.708L40.505 16.9743L39.3653 17.708L39.7177 16.4668L38.7624 15.6531H40.0122L40.4995 14.3898L40.995 15.6531H42.2448L41.2372 16.4668H41.2317ZM46.4841 42.4743L45.3444 41.7296L44.2048 42.4743L44.5571 41.2028L43.5964 40.4084H44.8489L45.3307 39.1479L45.8262 40.4084H47.0787L46.0712 41.2028L46.4841 42.4743ZM46.0712 31.0331L46.4841 32.3019L45.3444 31.5599L44.2048 32.3019L44.5571 31.0331L43.5964 30.2387H44.8489L45.3307 28.9755L45.8262 30.2387H47.0787L46.0712 31.0331ZM46.0712 21.371L46.4841 22.6425L45.3444 21.8978L44.2048 22.6425L44.5571 21.371L43.5964 20.5766H44.8489L45.3307 19.3161L45.8262 20.5766H47.0787L46.0712 21.371ZM46.0712 11.455L46.4841 12.7266L45.3444 11.9819L44.2048 12.7156L44.5571 11.455L43.5964 10.6607H44.8489L45.3307 9.40014L45.8262 10.6607H47.0787L46.0712 11.455ZM51.475 47.3537L50.3353 46.62L49.1956 47.3537L49.548 46.1125L48.5928 45.2988H49.8425L50.3298 44.0383L50.8253 45.2988H52.0751L51.0675 46.1125L51.4805 47.3537H51.475ZM51.062 36.2297L51.475 37.4819L50.3353 36.7399L49.1956 37.4819L49.548 36.2297L48.5928 35.416H49.8425L50.3298 34.1555L50.8253 35.416H52.0751L51.0675 36.2297H51.062ZM51.062 26.3468L51.475 27.5908L50.3353 26.8571L49.1956 27.5908L49.548 26.3468L48.5928 25.5359H49.8425L50.3298 24.2726L50.8253 25.5359H52.0751L51.0675 26.3468H51.062ZM51.062 16.4668L51.475 17.7163L50.3353 16.9743L49.1956 17.708L49.548 16.4668L48.5928 15.6531H49.8425L50.3298 14.3898L50.8253 15.6531H52.0751L51.0675 16.4668H51.062Z" fill="#2E4F9D"/>
</g>
<defs>
<clipPath id="clip0_579_3064">
<rect width="110" height="93" fill="white"/>
</clipPath>
</defs>
</svg>
