<svg width="32" height="32" viewBox="0 0 32 32" fill="none" xmlns="http://www.w3.org/2000/svg">
<path d="M29.9491 17.0053C29.9731 16.672 29.9998 16.3387 29.9998 16C29.9998 11.1187 27.4852 6.81868 23.6865 4.31201C23.6639 4.29735 23.6425 4.28267 23.6185 4.27067C22.2452 3.37467 20.7065 2.71601 19.0572 2.34668C19.0319 2.33735 19.0052 2.33333 18.9785 2.32666C18.0172 2.11733 17.0212 2 15.9985 2C8.27854 2 1.99854 8.28 1.99854 16C1.99854 23.72 8.27854 30 15.9985 30C17.0732 30 18.1158 29.8667 19.1212 29.6373C19.2105 29.6333 19.2932 29.6093 19.3718 29.572C25.1198 28.1413 29.4692 23.1627 29.9438 17.0973C29.9452 17.0667 29.9518 17.036 29.9491 17.0053ZM28.6665 16C28.6665 16.1373 28.6505 16.2693 28.6465 16.4053C27.9998 16.4893 27.3198 16.8187 26.8505 17.3493C26.7772 17.432 26.7305 17.4547 26.7212 17.456C26.7012 17.456 26.1692 17.42 24.9572 15.1853C24.0479 13.508 24.4439 12.6533 24.9465 11.5707C25.1092 11.2187 25.2719 10.8653 25.3905 10.496C25.6639 9.68668 25.4478 8.39066 25.0758 7.18266C27.2932 9.46532 28.6665 12.5733 28.6665 16ZM3.33317 16C3.33317 14.84 3.50253 13.72 3.7972 12.652C4.62653 16.8667 7.62647 18.392 9.21313 19.192C9.56247 19.368 9.97981 19.5667 10.0425 19.5827C10.1638 20.1027 10.1505 20.392 10.1252 20.92C10.1052 21.3493 10.0799 21.8827 10.1199 22.7147C10.1905 24.1707 11.3812 24.792 12.3385 25.292C12.9639 25.6187 13.5559 25.928 13.8839 26.4133C14.1065 26.732 14.2678 27.6413 14.1292 28.5146C8.03048 27.604 3.33317 22.3467 3.33317 16ZM15.4558 28.6387C15.6145 27.528 15.4425 26.3133 14.9812 25.656C14.4692 24.9 13.6652 24.48 12.9545 24.1093C12.0145 23.6187 11.4825 23.3093 11.4505 22.6493C11.4132 21.8773 11.4371 21.38 11.4558 20.9813C11.4825 20.4213 11.5025 19.9787 11.3398 19.2787C11.2052 18.704 10.6212 18.4093 9.81315 18.0013C7.91448 17.044 4.75849 15.444 4.91716 9.87866C7.07849 5.98 11.2345 3.33199 15.9998 3.33199C16.7052 3.33199 17.3918 3.40399 18.0665 3.51599C17.8705 4.06932 17.3398 4.53467 16.8118 4.70801C14.2825 5.53734 14.2558 7.75335 14.2371 9.37069C14.2198 10.812 14.1359 11.2467 13.6132 11.3547C13.4292 11.384 12.8425 11.0693 12.5278 10.8973C11.8678 10.5387 11.1812 10.1667 10.5399 10.3227C10.0119 10.4467 9.33853 10.9613 9.13053 11.668C9.02787 12.0147 8.95848 12.704 9.63981 13.4093C10.2038 13.9933 10.2292 14.272 10.2705 14.696C10.2985 14.988 10.3332 15.3493 10.5278 15.7973C11.1932 17.2653 13.1118 17.224 14.5078 17.0653C15.9705 16.884 16.4132 16.8267 17.2985 17.7493C17.6425 18.108 17.8318 18.5373 18.0318 18.9907C18.3718 19.7653 18.7971 20.7306 20.1118 20.8827C21.2292 21.0213 22.1625 21.3933 22.4892 21.8306C22.5985 21.976 22.6332 22.12 22.6025 22.2947C22.5132 22.824 21.9505 23.3587 21.2972 23.9787C20.2292 24.9933 18.9305 26.2507 18.5185 28.4107C17.7038 28.576 16.8625 28.664 16.0011 28.664C15.8158 28.6666 15.6371 28.6467 15.4558 28.6387ZM19.9932 28.012C20.4452 26.6467 21.3705 25.7507 22.2145 24.948C23.0052 24.196 23.7532 23.4867 23.9159 22.5187C24.0052 21.9853 23.8812 21.472 23.5558 21.036C22.7638 19.9733 20.9972 19.6507 20.2692 19.5613C19.7505 19.5013 19.5958 19.2426 19.2505 18.4573C19.0238 17.9426 18.7678 17.3587 18.2585 16.828C16.9091 15.424 15.8865 15.552 14.3478 15.744C12.8425 15.916 11.9665 15.7493 11.7438 15.2573C11.6371 15.0133 11.6185 14.8186 11.5959 14.572C11.5465 14.052 11.4852 13.404 10.5972 12.4854C10.3532 12.2334 10.3932 12.0933 10.4065 12.0467C10.4678 11.8333 10.7399 11.6467 10.8425 11.6213C11.0159 11.6013 11.5652 11.892 11.8892 12.0693C12.5452 12.4267 13.2172 12.7973 13.8812 12.6613C15.5345 12.32 15.5545 10.6933 15.5705 9.38668C15.5918 7.59468 15.7132 6.47065 17.2279 5.97465C18.1492 5.67332 19.0718 4.85599 19.3745 3.80265C20.6198 4.14799 21.7878 4.67468 22.8478 5.35868C23.5198 6.34668 24.4345 9.15734 24.1252 10.076C24.0198 10.4013 23.8772 10.7053 23.7358 11.008C23.1825 12.2013 22.5545 13.5533 23.7839 15.82C24.8545 17.7933 25.6852 18.68 26.5625 18.78C26.6118 18.7853 26.6638 18.7893 26.7198 18.7893C27.0398 18.7893 27.4545 18.6773 27.8478 18.2333C28.0492 18.0053 28.2985 17.8627 28.5265 17.7813C27.8452 22.58 24.4785 26.516 19.9932 28.012Z" fill="white"/>
</svg>
