<svg width="32" height="32" viewBox="0 0 32 32" fill="none" xmlns="http://www.w3.org/2000/svg">
<path d="M16 10.6666C16 11.0346 15.7013 11.3333 15.3333 11.3333H14C13.632 11.3333 13.3333 11.0346 13.3333 10.6666C13.3333 10.2986 13.632 9.99992 14 9.99992H15.3333C15.7013 9.99992 16 10.2973 16 10.6666ZM10 9.99992H8.66667C8.29867 9.99992 8 10.2986 8 10.6666C8 11.0346 8.29867 11.3333 8.66667 11.3333H10C10.368 11.3333 10.6667 11.0346 10.6667 10.6666C10.6667 10.2986 10.368 9.99992 10 9.99992ZM15.3333 13.9999H14C13.632 13.9999 13.3333 14.2986 13.3333 14.6666C13.3333 15.0346 13.632 15.3333 14 15.3333H15.3333C15.7013 15.3333 16 15.0346 16 14.6666C16 14.2986 15.7013 13.9999 15.3333 13.9999ZM10 13.9999H8.66667C8.29867 13.9999 8 14.2986 8 14.6666C8 15.0346 8.29867 15.3333 8.66667 15.3333H10C10.368 15.3333 10.6667 15.0346 10.6667 14.6666C10.6667 14.2986 10.368 13.9999 10 13.9999ZM30 27.9999C30 28.3679 29.7013 28.6666 29.3333 28.6666H2.66667C2.29867 28.6666 2 28.3679 2 27.9999C2 27.6319 2.29867 27.3333 2.66667 27.3333H3.33333V7.99992C3.33333 4.94659 4.94667 3.33325 8 3.33325H16C19.0533 3.33325 20.6667 4.94659 20.6667 7.99992V27.3333H25.3333V23.2652C23.8133 22.9559 22.6667 21.6093 22.6667 19.9999V15.9999C22.6667 14.1626 24.1613 12.6666 26 12.6666C27.8387 12.6666 29.3333 14.1626 29.3333 15.9999V19.9999C29.3333 21.6093 28.1867 22.9559 26.6667 23.2652V27.3333H29.3333C29.7013 27.3333 30 27.6319 30 27.9999ZM26 21.9999C27.1027 21.9999 28 21.1026 28 19.9999V15.9999C28 14.8973 27.1027 13.9999 26 13.9999C24.8973 13.9999 24 14.8973 24 15.9999V19.9999C24 21.1026 24.8973 21.9999 26 21.9999ZM14 22.6666C14 21.5639 13.1027 20.6666 12 20.6666C10.8973 20.6666 10 21.5639 10 22.6666V27.3333H14V22.6666ZM19.3333 27.3333V7.99992C19.3333 5.69459 18.3053 4.66659 16 4.66659H8C5.69467 4.66659 4.66667 5.69459 4.66667 7.99992V27.3333H8.66667V22.6666C8.66667 20.8293 10.1613 19.3333 12 19.3333C13.8387 19.3333 15.3333 20.8293 15.3333 22.6666V27.3333H19.3333Z" fill="white"/>
</svg>
