<svg width="32" height="32" viewBox="0 0 32 32" fill="none" xmlns="http://www.w3.org/2000/svg">
<path d="M28.6668 12.9281C28.6668 11.6694 28.0069 10.5573 26.9015 9.95464L18.2723 5.24679C16.851 4.47079 15.1494 4.47079 13.728 5.24679L5.0988 9.95464C3.99346 10.5573 3.3335 11.6694 3.3335 12.9281C3.3335 14.1868 3.99346 15.2988 5.0988 15.9014L7.3335 17.12V22.264C7.3335 23.4227 7.92832 24.4894 8.92432 25.1161C11.2723 26.5921 13.6362 27.3308 16.0002 27.3308C18.3642 27.3308 20.728 26.5921 23.076 25.1161C24.072 24.4894 24.6668 23.4227 24.6668 22.264V17.12L26.9015 15.9014C27.0629 15.8134 27.1922 15.6933 27.3335 15.5853V21.3321C27.3335 21.7001 27.6322 21.9987 28.0002 21.9987C28.3682 21.9987 28.6668 21.7001 28.6668 21.3321V13.3321C28.6668 13.2747 28.6483 13.2241 28.6349 13.1721C28.6403 13.0894 28.6668 13.0134 28.6668 12.9281ZM23.3335 22.2654C23.3335 22.9534 22.9628 23.6133 22.3641 23.988C18.0828 26.6827 13.9163 26.6827 9.63493 23.988C9.0376 23.612 8.66553 22.952 8.66553 22.2654V17.8493L13.7267 20.6107C14.4374 21.0001 15.2189 21.1934 15.9989 21.1934C16.7789 21.1934 17.56 20.9987 18.2707 20.6107L23.3322 17.8493V22.2654H23.3335ZM26.2629 14.732L17.6336 19.44C16.6096 19.9987 15.3881 19.9987 14.3654 19.44L5.73617 14.732C5.0655 14.3667 4.66553 13.6921 4.66553 12.9281C4.66553 12.1641 5.0655 11.4907 5.73617 11.1241L14.3654 6.41607C14.8774 6.1374 15.4388 5.99745 16.0002 5.99745C16.5615 5.99745 17.1229 6.13607 17.6349 6.41607L26.2642 11.1241C26.9348 11.4894 27.3348 12.1641 27.3348 12.9281C27.3348 13.6921 26.9335 14.3653 26.2629 14.732Z" fill="white"/>
</svg>
