<svg width="32" height="32" viewBox="0 0 32 32" fill="none" xmlns="http://www.w3.org/2000/svg">
<path d="M18.0002 18.6666C18.0002 19.0346 17.7015 19.3333 17.3335 19.3333H9.3335C8.9655 19.3333 8.66683 19.0346 8.66683 18.6666C8.66683 18.2986 8.9655 17.9999 9.3335 17.9999H17.3335C17.7015 17.9999 18.0002 18.2986 18.0002 18.6666ZM13.3335 21.9999H9.3335C8.9655 21.9999 8.66683 22.2986 8.66683 22.6666C8.66683 23.0346 8.9655 23.3333 9.3335 23.3333H13.3335C13.7015 23.3333 14.0002 23.0346 14.0002 22.6666C14.0002 22.2986 13.7015 21.9999 13.3335 21.9999ZM28.6668 15.3333V25.3333C28.6668 27.1706 27.1708 28.6666 25.3335 28.6666H8.00016C4.94683 28.6666 3.3335 27.0533 3.3335 23.9999V7.99992C3.3335 4.94659 4.94683 3.33325 8.00016 3.33325H18.6668C21.7202 3.33325 23.3335 4.94659 23.3335 7.99992V12.6666H26.0002C27.4708 12.6666 28.6668 13.8626 28.6668 15.3333ZM22.6681 27.3333C22.2495 26.7759 22.0002 26.0826 22.0002 25.3333V7.99992C22.0002 5.69459 20.9722 4.66659 18.6668 4.66659H8.00016C5.69483 4.66659 4.66683 5.69459 4.66683 7.99992V23.9999C4.66683 26.3053 5.69483 27.3333 8.00016 27.3333H22.6681ZM27.3335 15.3333C27.3335 14.5986 26.7348 13.9999 26.0002 13.9999H23.3335V25.3333C23.3335 26.4359 24.2308 27.3333 25.3335 27.3333C26.4362 27.3333 27.3335 26.4359 27.3335 25.3333V15.3333ZM10.2602 11.8186L11.5002 12.1373C11.8508 12.2293 12.0948 12.5612 12.0948 12.9452C12.0948 13.1692 12.0108 13.3813 11.8588 13.54C11.7108 13.6933 11.5188 13.7773 11.3175 13.7773H10.7775C10.3828 13.7773 10.0508 13.46 10.0042 13.0387C9.96415 12.672 9.63086 12.4093 9.26953 12.448C8.90286 12.488 8.63879 12.8159 8.67879 13.1825C8.78279 14.1372 9.47751 14.8866 10.3642 15.068V15.3333C10.3642 15.7013 10.6628 15.9999 11.0308 15.9999C11.3988 15.9999 11.6975 15.7013 11.6975 15.3333V15.0733C12.1188 14.9947 12.5082 14.7879 12.8188 14.4666C13.2122 14.0572 13.4295 13.5172 13.4295 12.9465C13.4295 11.9572 12.7762 11.0946 11.8375 10.8479L10.5962 10.5279C10.4269 10.4839 10.2802 10.3839 10.1695 10.2359C10.0615 10.0933 10.0015 9.91064 10.0015 9.71997C10.0015 9.2613 10.3508 8.88794 10.7788 8.88794H11.3188C11.7135 8.88794 12.0455 9.20521 12.0921 9.62655C12.1321 9.99188 12.4642 10.2545 12.8268 10.2172C13.1935 10.1772 13.4575 9.84933 13.4175 9.48267C13.3121 8.51467 12.6015 7.75858 11.6988 7.59058V7.33195C11.6988 6.96395 11.4001 6.66528 11.0321 6.66528C10.6641 6.66528 10.3655 6.96395 10.3655 7.33195V7.59725C9.39881 7.79458 8.66813 8.67051 8.66813 9.71851C8.66813 10.1985 8.82414 10.6693 9.10547 11.0387C9.3908 11.4227 9.80151 11.6986 10.2602 11.8186Z" fill="white"/>
</svg>
