<svg width="28" height="28" fill="none" xmlns="http://www.w3.org/2000/svg"><path d="M24.5 14.875v8.75a2.625 2.625 0 01-2.625 2.625H6.125A2.625 2.625 0 013.5 23.625v-8.75M27.125 7H.875v4.375h26.25V7zm-21-2.625A2.625 2.625 0 018.75 1.75C12.633 1.75 14 7 14 7H8.75a2.625 2.625 0 01-2.625-2.625v0zm15.75 0A2.625 2.625 0 0019.25 1.75C15.367 1.75 14 7 14 7h5.25a2.625 2.625 0 002.625-2.625v0z" stroke="#fff" stroke-miterlimit="10" stroke-linecap="square"/><path d="M16.625 7h-5.25v19.25h5.25V7z" stroke="#fff" stroke-miterlimit="10" stroke-linecap="square"/></svg>