<svg width="40" height="40" viewBox="0 0 40 40" fill="none" xmlns="http://www.w3.org/2000/svg">
<path d="M32.0833 32.0833H8.75V29.8958C8.75 27.8733 9.95833 26.05 11.8267 25.2758C13.7183 24.4917 16.5342 23.75 20.4167 23.75C24.2992 23.75 27.115 24.4917 29.0067 25.2758C30.875 26.05 32.0833 27.8733 32.0833 29.8958V32.0833Z" stroke="white" stroke-linecap="round" stroke-linejoin="round"/>
<path d="M13.75 12.0837C13.75 8.40199 16.735 5.41699 20.4167 5.41699C24.0983 5.41699 27.0833 8.40199 27.0833 12.0837C27.0833 15.7653 24.0983 19.5837 20.4167 19.5837C16.735 19.5837 13.75 15.7653 13.75 12.0837Z" stroke="white" stroke-linecap="round" stroke-linejoin="round"/>
<path d="M2.08333 8.75016V2.0835H8.75" stroke="white" stroke-linecap="round" stroke-linejoin="round"/>
<path d="M38.75 8.75016V2.0835H32.0833" stroke="white" stroke-linecap="round" stroke-linejoin="round"/>
<path d="M2.08333 32.0835V38.7502H8.75" stroke="white" stroke-linecap="round" stroke-linejoin="round"/>
<path d="M38.75 32.0835V38.7502H32.0833" stroke="white" stroke-linecap="round" stroke-linejoin="round"/>
</svg>
