<svg width="40" height="40" viewBox="0 0 40 40" fill="none" xmlns="http://www.w3.org/2000/svg">
<path d="M27.9167 27.0835H16.25C16.25 24.3218 18.4883 22.0835 21.25 22.0835H22.9167C25.6783 22.0835 27.9167 24.3218 27.9167 27.0835Z" stroke="white" stroke-linecap="round" stroke-linejoin="round"/>
<path d="M22.0833 19.5837C23.9243 19.5837 25.4167 18.0913 25.4167 16.2503C25.4167 14.4094 23.9243 12.917 22.0833 12.917C20.2424 12.917 18.75 14.4094 18.75 16.2503C18.75 18.0913 20.2424 19.5837 22.0833 19.5837Z" stroke="white" stroke-linecap="round" stroke-linejoin="round"/>
<path d="M37.9167 8.75V13.75" stroke="white" stroke-linecap="round" stroke-linejoin="round"/>
<path d="M37.9167 19.5835V24.5835" stroke="white" stroke-linecap="round" stroke-linejoin="round"/>
<path d="M4.58334 38.7502V2.0835H29.5833C32.345 2.0835 34.5833 4.32183 34.5833 7.0835V33.7502C34.5833 36.5118 32.345 38.7502 29.5833 38.7502H4.58334Z" stroke="white" stroke-linecap="round" stroke-linejoin="round"/>
<path d="M9.58334 2.0835V38.7502" stroke="white" stroke-linecap="round" stroke-linejoin="round"/>
</svg>
