<svg width="31" height="71" viewBox="0 0 31 71" fill="none" xmlns="http://www.w3.org/2000/svg">
<g clip-path="url(#clip0_25_626)">
<path d="M0 38.0486C0.44033 40.1748 1.34756 42.089 2.61288 43.8336C3.1829 44.6197 3.84339 45.317 4.71456 45.7784C5.32887 46.1037 5.97292 46.261 6.66505 46.137C6.84915 46.1037 6.91748 46.2066 7.0206 46.3249C7.60011 46.9876 7.76398 47.8306 8.03475 48.6307C8.84581 51.0305 9.8277 53.3542 11.0861 55.5656C10.8115 55.5125 10.8096 55.5138 10.6508 55.184C10.1371 54.1161 9.52972 53.1075 8.71802 52.2442C7.42929 50.874 5.88625 49.946 4.02497 49.6079C3.40053 49.4948 2.76725 49.5178 2.13585 49.5197C1.91568 49.5203 1.87139 49.6098 1.91631 49.8194C2.07954 50.5806 2.41359 51.2638 2.83683 51.9036C3.78708 53.3408 4.9031 54.6274 6.38099 55.5304C7.38755 56.1459 8.49279 56.4271 9.67966 56.1989C9.89476 56.1574 10.1212 56.0992 10.3041 55.9861C10.5527 55.8327 10.7343 55.8762 10.9583 56.0296C11.3328 56.2865 11.6726 56.5485 11.9231 56.9582C13.1928 59.0288 14.6897 60.9199 16.4245 62.6154C16.446 62.6365 16.4599 62.6659 16.4782 62.6934C16.2732 62.733 16.2676 62.7381 16.098 62.5521C15.5919 61.9949 15.0629 61.4657 14.4587 61.0126C13.4053 60.222 12.2103 59.8239 10.9235 59.6801C9.33929 59.5024 7.82281 59.7893 6.35568 60.392C5.97988 60.5467 5.95457 60.6061 6.18296 60.9372C6.65429 61.6191 7.27367 62.1457 7.95567 62.5975C9.10774 63.3606 10.325 63.9805 11.6846 64.2745C12.8005 64.5155 13.909 64.6203 14.9971 64.1365C15.39 63.962 15.7197 63.7038 16.0227 63.404C16.0822 63.3452 16.1518 63.2436 16.2119 63.2475C16.6035 63.2718 17.0274 63.2002 17.3545 63.4897C19.1879 65.113 21.2004 66.4571 23.4159 67.4879C23.4728 67.5147 23.5304 67.5409 23.5855 67.5722C23.5994 67.5799 23.6038 67.6055 23.6165 67.6317C23.4412 67.7218 23.2963 67.6457 23.1489 67.5607C22.4612 67.1657 21.7527 66.8149 20.9948 66.5779C19.5681 66.1318 18.1446 66.2276 16.7364 66.6538C15.366 67.0686 14.1538 67.7831 13.0605 68.7124C12.853 68.8888 12.8764 69.0102 13.058 69.1668C13.5547 69.5956 14.1317 69.873 14.7428 70.0871C16.1322 70.5741 17.5638 70.7895 19.0297 70.6911C20.1078 70.6189 21.1586 70.4099 22.0841 69.7855C22.62 69.4237 23.0553 68.97 23.3526 68.3916C23.4393 68.2235 23.5614 68.1468 23.736 68.1033C24.2251 67.9819 24.6787 67.994 25.1709 68.1896C26.5943 68.7571 28.0811 69.1093 29.5945 69.3387C29.7261 69.3585 29.9241 69.4608 29.9905 69.2275C30.05 69.0179 29.8589 68.66 29.6539 68.6121C29.1927 68.5053 28.7264 68.421 28.264 68.3213C26.8696 68.0202 25.5322 67.5396 24.2099 67.0098C24.0846 66.9593 23.9999 66.8877 23.9625 66.7471C23.8436 66.2935 23.7424 65.8384 23.7993 65.3642C23.9942 63.7357 23.6139 62.2173 22.9193 60.7653C22.1702 59.1994 21.0334 57.9864 19.5643 57.0873C19.4745 57.0323 19.3853 56.9722 19.2885 56.9326C19.1588 56.8789 19.0221 56.714 18.8937 56.8259C18.7937 56.9128 18.8899 57.086 18.9145 57.217C19.1657 58.552 19.2815 59.9101 19.5826 61.2363C19.8401 62.3693 20.1305 63.4948 20.8157 64.4554C21.2757 65.1002 21.8489 65.6326 22.5624 65.9912C22.7611 66.0909 22.9667 66.1835 23.1951 66.165C23.4172 66.1465 23.4931 66.2737 23.5279 66.4616C23.5393 66.5229 23.5817 66.5887 23.5285 66.6411C23.4716 66.6974 23.4089 66.6456 23.3558 66.6201C23.0502 66.4763 22.7415 66.3388 22.4435 66.181C20.4368 65.1149 18.6109 63.7933 16.9629 62.2205C16.8243 62.0882 16.768 61.9406 16.7509 61.7457C16.706 61.2337 16.7079 60.7442 16.9002 60.245C17.3942 58.9623 17.4683 57.6267 17.3589 56.2603C17.2064 54.3602 16.6054 52.629 15.5659 51.0491C15.316 50.6694 15.0206 50.3199 14.7409 49.9607C14.6916 49.8974 14.6321 49.8086 14.5366 49.8392C14.4322 49.8725 14.4701 49.9818 14.4606 50.061C14.2961 51.4313 14.1057 52.799 13.976 54.1723C13.8419 55.5943 13.7989 57.0285 14.2772 58.4006C14.6283 59.4078 15.1844 60.2955 16.1379 60.8579C16.3479 60.9819 16.3732 61.0912 16.334 61.5258C15.9987 61.1992 15.6494 60.9008 15.3489 60.5588C13.9387 58.9559 12.7018 57.226 11.6428 55.3655C11.5036 55.1214 11.4752 54.8977 11.5036 54.6139C11.5637 54.0208 11.7972 53.5338 12.1268 53.0475C12.9486 51.8358 13.3003 50.447 13.4851 49.0097C13.6983 47.35 13.5161 45.7241 13.0409 44.1283C12.8834 43.5985 12.6867 43.0828 12.445 42.5849C12.4134 42.5204 12.3894 42.4309 12.3014 42.4328C12.2312 42.4341 12.2084 42.5076 12.1869 42.5689C11.5979 44.2292 10.8412 45.8264 10.3762 47.5334C10.1497 48.3656 9.92576 49.2116 9.9555 50.07C10.0004 51.3725 10.1795 52.6616 11.1361 53.6738C11.3512 53.9013 11.1342 54.1282 11.138 54.3602C10.7881 53.8368 10.5369 53.2667 10.28 52.7025C9.2931 50.5333 8.50102 48.2952 7.96262 45.967C7.91581 45.7637 7.96009 45.6046 8.02463 45.418C8.24669 44.7789 8.62818 44.3053 9.1729 43.8873C10.2763 43.0406 10.9171 41.8301 11.4442 40.5641C12.2862 38.5401 12.4564 36.4336 12.1591 34.2754C12.1407 34.1412 12.1034 34.0095 12.0756 33.8792C11.9231 33.8772 11.882 33.9878 11.8212 34.069C11.0051 35.165 10.1712 36.2482 9.37978 37.3628C8.57883 38.4909 7.8867 39.684 7.6096 41.0696C7.46282 41.8046 7.44637 42.5459 7.57354 43.2879C7.6172 43.5417 7.67414 43.8055 7.82914 44.0017C8.1132 44.3609 7.97275 44.6619 7.75132 45.0486C7.67287 44.6785 7.60138 44.3737 7.54381 44.0663C7.07501 41.5866 6.82448 39.0858 6.82701 36.5595C6.82764 36.2617 6.90673 36.0303 7.06931 35.7715C7.37363 35.2857 7.77536 35.016 8.2992 34.8134C9.32916 34.4154 10.1054 33.6644 10.7843 32.8023C12.1369 31.085 12.8328 29.1115 13.0523 26.9468C13.0827 26.6503 13.1149 26.355 13.1061 26.0566C13.101 25.8878 13.0302 25.8322 12.8948 25.9524C11.6795 27.0357 10.294 27.9138 9.17354 29.1109C8.10624 30.2509 7.34073 31.5439 7.15852 33.1352C7.10095 33.635 7.08576 34.1399 7.2085 34.6269C7.29644 34.9758 7.13891 35.1656 6.87256 35.388C6.82068 35.0288 6.84156 34.7043 6.85801 34.3834C6.96113 32.4086 7.17687 30.4459 7.5457 28.5031C7.68046 27.7943 7.84496 27.0906 7.99299 26.3844C8.01956 26.2579 8.117 26.1997 8.19671 26.1154C8.65159 25.636 9.21339 25.567 9.84478 25.521C10.9247 25.443 11.8389 24.8877 12.6798 24.2205C14.3594 22.888 15.3527 21.1068 15.9721 19.0815C15.9968 19.001 16.0411 18.9141 15.9822 18.838C15.924 18.7632 15.8456 18.8105 15.7804 18.8387C14.4847 19.3992 13.1263 19.8075 11.8737 20.4729C10.9431 20.9674 10.0865 21.5561 9.46266 22.4355C8.88884 23.2439 8.6497 24.1534 8.68766 25.1376C8.70157 25.4909 8.39979 25.4635 8.18469 25.5785C8.34918 25.0002 8.50418 24.4193 8.67943 23.8447C9.28994 21.8392 10.0441 19.89 10.9304 17.9931C11.0424 17.7541 11.1981 17.6288 11.448 17.508C11.906 17.2875 12.3103 17.3316 12.7733 17.4531C14.0823 17.7956 15.3015 17.4365 16.458 16.8382C17.8776 16.104 18.9038 14.9459 19.7345 13.5968C19.8224 13.4543 19.9749 13.2255 19.613 13.2587C18.1288 13.3967 16.6212 13.2983 15.1635 13.7054C14.1683 13.9834 13.2769 14.4283 12.6254 15.2757C12.2945 15.7058 12.0945 16.1896 11.9996 16.7213C11.9807 16.8274 11.9788 16.9424 11.8706 16.9961C11.7409 17.0607 11.5764 17.1917 11.4663 17.1054C11.3341 17.0019 11.4979 16.8574 11.5549 16.7475C12.5387 14.8501 13.6559 13.0382 14.9345 11.328C15.075 11.1401 15.2363 11.0967 15.4539 11.0443C15.9234 10.9324 16.2891 11.1114 16.7016 11.2827C18.5001 12.031 20.2267 11.7555 21.8735 10.795C22.6757 10.3272 23.3431 9.69639 23.9201 8.96463C24.0783 8.76459 24.0745 8.6553 23.8025 8.62079C22.4378 8.44952 21.0947 8.05392 19.7041 8.15041C18.373 8.24244 17.1976 8.68981 16.3789 9.83571C16.2479 10.0185 16.1562 10.2205 16.0702 10.4269C16.0335 10.5157 16.0025 10.6052 15.8993 10.6423C15.7791 10.6857 15.6222 10.7567 15.54 10.6704C15.4312 10.5554 15.6058 10.4729 15.6684 10.3962C16.8268 8.9723 18.0484 7.60975 19.4637 6.43636C19.5706 6.34752 19.6706 6.26955 19.8224 6.26252C22.0335 6.15261 23.6702 5.02971 24.9324 3.27092C25.5556 2.40303 25.9871 1.4348 26.2876 0.407132C26.3224 0.287621 26.4072 0.137434 26.3256 0.0441257C26.2269 -0.0677161 26.094 0.0632985 25.9864 0.105479C24.9761 0.50044 23.9328 0.808484 22.9458 1.26607C21.6021 1.88983 20.4709 2.75389 19.7813 4.11836C19.5206 4.63347 19.4163 5.18118 19.4567 5.75508C19.4707 5.95832 19.3941 6.08997 19.2448 6.21843C18.2876 7.03903 17.4271 7.95869 16.5807 8.89177C15.7576 9.79929 14.9826 10.7471 14.2057 11.783C14.2145 11.399 14.2772 11.1274 14.5024 10.8832C15.8702 9.40177 16.668 7.63722 17.0312 5.65411C17.2596 4.40467 17.362 3.14885 17.2773 1.88153C17.2514 1.4904 17.1969 1.09928 17.1311 0.71262C17.0767 0.391793 16.9932 0.372621 16.7509 0.585439C15.9158 1.31848 15.2515 2.19021 14.6833 3.14502C13.9001 4.46155 13.3136 5.8535 13.1055 7.38414C12.9587 8.46294 12.9334 9.56409 13.5363 10.5049C13.864 11.0162 13.9817 11.4603 13.8406 12.0271C13.7944 12.2138 13.7666 12.3914 13.6521 12.5538C12.2122 14.5944 10.9684 16.7513 9.93082 19.0278C9.89666 19.1026 9.85617 19.1736 9.80113 19.2796C9.69547 18.994 9.81694 18.7933 9.9264 18.5945C10.5875 17.393 11.038 16.1154 11.2354 14.7561C11.5903 12.3109 11.3682 9.94244 10.2509 7.70496C10.201 7.60527 10.1864 7.44549 10.0567 7.4391C9.91437 7.43207 9.86756 7.59121 9.80302 7.69474C9.12925 8.77993 8.7351 9.97567 8.43079 11.2092C8.06828 12.6797 7.81396 14.163 7.88797 15.6854C7.94111 16.7724 8.19165 17.8116 8.95716 18.6118C9.30702 18.9773 9.34435 19.3333 9.3589 19.7909C9.38168 20.4901 9.05649 21.0633 8.83569 21.6749C8.16065 23.545 7.60771 25.4494 7.19774 27.3961C7.18066 27.4773 7.15472 27.5566 7.12499 27.6671C7.00794 27.3782 7.02186 27.1252 7.09146 26.8612C7.46472 25.4481 7.7121 24.0128 7.66148 22.5473C7.57924 20.1539 6.8017 18.0129 5.26371 16.1723C4.91575 15.7557 4.8974 15.7557 4.72405 16.2937C4.38432 17.3495 4.19831 18.4322 4.14581 19.5442C4.10279 20.4588 4.08064 21.3713 4.15403 22.284C4.25652 23.5603 4.41532 24.8219 5.08214 25.9543C5.41302 26.5161 5.84702 26.9679 6.42591 27.2651C6.58596 27.3469 6.65049 27.462 6.68466 27.632C6.74856 27.9528 6.77956 28.2819 6.91432 28.5881C6.97568 28.7274 6.92507 28.8795 6.9004 29.0271C6.70617 30.1909 6.5809 31.3617 6.48347 32.5377C6.37403 33.8632 6.30317 35.188 6.29874 36.5179C6.29874 36.5454 6.28229 36.5735 6.26774 36.6202C6.1121 36.4745 6.08237 36.309 6.09945 36.123C6.39933 32.9109 5.58383 30.0356 3.54605 27.5342C3.00829 26.8746 2.38448 26.3033 1.69679 25.8041C1.43043 25.6105 1.36591 25.6296 1.32289 25.9549C1.23748 26.5992 1.20901 27.2491 1.26089 27.8966C1.35895 29.1268 1.53799 30.3455 1.88342 31.5317C2.26745 32.8521 2.71537 34.1457 3.58717 35.2384C4.11164 35.8961 4.75252 36.3716 5.59459 36.5256C5.67683 36.541 5.78375 36.5301 5.81729 36.6196C5.97925 37.0522 6.28862 37.4389 6.29747 37.9189C6.33796 40.1761 6.53218 42.4156 6.97884 44.63C7.00351 44.7527 7.00225 44.8805 6.95986 45.0166C6.83334 44.5839 6.72325 44.1449 6.5771 43.7192C5.55979 40.7539 3.61501 38.6475 0.782597 37.3718C0.534595 37.26 0.280899 37.1558 0.000631344 37.1545C-1.31299e-06 37.453 0 37.7508 0 38.0486Z" fill="white"/>
</g>
<defs>
<clipPath id="clip0_25_626">
<rect width="31" height="71" fill="white"/>
</clipPath>
</defs>
</svg>
