<svg width="31" height="71" viewBox="0 0 31 71" fill="none" xmlns="http://www.w3.org/2000/svg">
<g clip-path="url(#clip0_25_622)">
<path d="M31.0002 38.0486C30.5592 40.1748 29.6523 42.089 28.3873 43.8336C27.8173 44.6197 27.1563 45.317 26.2853 45.7784C25.6714 46.1037 25.0274 46.261 24.3354 46.137C24.1504 46.1037 24.0824 46.2066 23.9794 46.3249C23.3994 46.9876 23.2364 47.8306 22.9654 48.6307C22.1544 51.0305 21.1724 53.3542 19.9135 55.5656C20.1885 55.5125 20.1905 55.5138 20.3495 55.184C20.8625 54.1161 21.4704 53.1075 22.2824 52.2442C23.5704 50.874 25.1134 49.946 26.9753 49.6079C27.5993 49.4948 28.2323 49.5178 28.8643 49.5197C29.0843 49.5203 29.1283 49.6098 29.0833 49.8194C28.9203 50.5806 28.5863 51.2638 28.1633 51.9036C27.2133 53.3408 26.0973 54.6274 24.6194 55.5304C23.6124 56.1459 22.5074 56.4271 21.3204 56.1989C21.1055 56.1574 20.8785 56.0992 20.6955 55.9861C20.4475 55.8327 20.2655 55.8762 20.0415 56.0296C19.6675 56.2865 19.3275 56.5485 19.0765 56.9582C17.8075 59.0288 16.3105 60.9199 14.5756 62.6154C14.5536 62.6365 14.5406 62.6659 14.5216 62.6934C14.7266 62.733 14.7326 62.7381 14.9016 62.5521C15.4086 61.9949 15.9366 61.4657 16.5415 61.0126C17.5945 60.222 18.7895 59.8239 20.0765 59.6801C21.6604 59.5024 23.1774 59.7893 24.6444 60.392C25.0204 60.5467 25.0454 60.6061 24.8174 60.9372C24.3454 61.6191 23.7264 62.1457 23.0444 62.5975C21.8924 63.3606 20.6755 63.9805 19.3155 64.2745C18.1995 64.5155 17.0905 64.6203 16.0026 64.1365C15.6096 63.962 15.2806 63.7038 14.9776 63.404C14.9176 63.3452 14.8486 63.2436 14.7886 63.2475C14.3966 63.2718 13.9726 63.2002 13.6456 63.4897C11.8117 65.113 9.79969 66.4571 7.58374 67.4879C7.52674 67.5147 7.46975 67.5409 7.41475 67.5722C7.40075 67.5799 7.39575 67.6055 7.38375 67.6317C7.55875 67.7218 7.70374 67.6457 7.85073 67.5607C8.53872 67.1657 9.24771 66.8149 10.0057 66.5779C11.4317 66.1318 12.8556 66.2276 14.2636 66.6538C15.6336 67.0686 16.8465 67.7831 17.9395 68.7124C18.1465 68.8888 18.1235 69.0102 17.9415 69.1668C17.4455 69.5956 16.8685 69.873 16.2576 70.0871C14.8676 70.5741 13.4366 70.7895 11.9706 70.6911C10.8927 70.6189 9.84169 70.4099 8.91571 69.7855C8.37972 69.4237 7.94474 68.97 7.64774 68.3916C7.56075 68.2235 7.43875 68.1468 7.26375 68.1033C6.77476 67.9819 6.32077 67.994 5.82878 68.1896C4.40581 68.7571 2.91884 69.1093 1.40588 69.3387C1.27388 69.3585 1.07589 69.4608 1.00989 69.2275C0.949888 69.0179 1.14088 68.66 1.34588 68.6121C1.80687 68.5053 2.27386 68.421 2.73585 68.3213C4.13082 68.0202 5.46779 67.5396 6.78976 67.0098C6.91576 66.9593 6.99976 66.8877 7.03776 66.7471C7.15675 66.2935 7.25775 65.8384 7.20075 65.3642C7.00575 63.7357 7.38575 62.2173 8.08073 60.7653C8.82972 59.1994 9.96669 57.9864 11.4357 57.0873C11.5257 57.0323 11.6147 56.9722 11.7117 56.9326C11.8416 56.8789 11.9776 56.714 12.1066 56.8259C12.2066 56.9128 12.1096 57.086 12.0857 57.217C11.8347 58.552 11.7187 59.9101 11.4177 61.2363C11.1597 62.3693 10.8697 63.4948 10.1847 64.4554C9.7247 65.1002 9.1507 65.6326 8.43772 65.9912C8.23872 66.0909 8.03273 66.1835 7.80474 66.165C7.58274 66.1465 7.50674 66.2737 7.47175 66.4616C7.46075 66.5229 7.41875 66.5887 7.47175 66.6411C7.52874 66.6974 7.59074 66.6456 7.64374 66.6201C7.94973 66.4763 8.25873 66.3388 8.55672 66.181C10.5637 65.1149 12.3886 63.7933 14.0376 62.2205C14.1756 62.0882 14.2316 61.9406 14.2486 61.7457C14.2936 61.2337 14.2926 60.7442 14.0996 60.245C13.6056 58.9623 13.5316 57.6267 13.6406 56.2603C13.7936 54.3602 14.3946 52.629 15.4336 51.0491C15.6836 50.6694 15.9796 50.3199 16.2585 49.9607C16.3085 49.8974 16.3675 49.8086 16.4635 49.8392C16.5675 49.8725 16.5295 49.9818 16.5395 50.061C16.7035 51.4313 16.8945 52.799 17.0235 54.1723C17.1585 55.5943 17.2015 57.0285 16.7225 58.4006C16.3716 59.4078 15.8156 60.2955 14.8626 60.8579C14.6526 60.9819 14.6266 61.0912 14.6656 61.5258C15.0016 61.1992 15.3506 60.9008 15.6506 60.5588C17.0615 58.9559 18.2985 57.226 19.3575 55.3655C19.4965 55.1214 19.5245 54.8977 19.4965 54.6139C19.4365 54.0208 19.2025 53.5338 18.8735 53.0475C18.0515 51.8358 17.6995 50.447 17.5145 49.0097C17.3015 47.35 17.4835 45.7241 17.9585 44.1283C18.1165 43.5985 18.3135 43.0828 18.5545 42.5849C18.5865 42.5204 18.6105 42.4309 18.6985 42.4328C18.7685 42.4341 18.7915 42.5076 18.8135 42.5689C19.4025 44.2292 20.1585 45.8264 20.6235 47.5334C20.8505 48.3656 21.0745 49.2116 21.0445 50.07C20.9995 51.3725 20.8205 52.6616 19.8635 53.6738C19.6485 53.9013 19.8655 54.1282 19.8625 54.3602C20.2115 53.8368 20.4635 53.2667 20.7194 52.7025C21.7064 50.5333 22.4994 48.2952 23.0374 45.967C23.0844 45.7637 23.0394 45.6046 22.9754 45.418C22.7534 44.7789 22.3714 44.3053 21.8274 43.8873C20.7235 43.0406 20.0825 41.8301 19.5555 40.5641C18.7135 38.5401 18.5435 36.4336 18.8405 34.2754C18.8595 34.1412 18.8965 34.0095 18.9245 33.8792C19.0765 33.8772 19.1185 33.9878 19.1785 34.069C19.9945 35.165 20.8284 36.2482 21.6204 37.3628C22.4214 38.4909 23.1134 39.684 23.3904 41.0696C23.5374 41.8046 23.5534 42.5459 23.4264 43.2879C23.3824 43.5417 23.3254 43.8055 23.1704 44.0017C22.8864 44.3609 23.0274 44.6619 23.2484 45.0486C23.3274 44.6785 23.3984 44.3737 23.4564 44.0663C23.9254 41.5866 24.1754 39.0858 24.1734 36.5595C24.1724 36.2617 24.0934 36.0303 23.9304 35.7715C23.6264 35.2857 23.2244 35.016 22.7004 34.8134C21.6704 34.4154 20.8944 33.6644 20.2155 32.8023C18.8635 31.085 18.1675 29.1115 17.9475 26.9468C17.9175 26.6503 17.8845 26.355 17.8935 26.0566C17.8985 25.8878 17.9695 25.8322 18.1055 25.9524C19.3205 27.0357 20.7065 27.9138 21.8264 29.1109C22.8934 30.2509 23.6594 31.5439 23.8414 33.1352C23.8994 33.635 23.9144 34.1399 23.7914 34.6269C23.7034 34.9758 23.8614 35.1656 24.1274 35.388C24.1794 35.0288 24.1584 34.7043 24.1424 34.3834C24.0384 32.4086 23.8234 30.4459 23.4544 28.5031C23.3194 27.7943 23.1554 27.0906 23.0074 26.3844C22.9804 26.2579 22.8834 26.1997 22.8034 26.1154C22.3484 25.636 21.7864 25.567 21.1554 25.521C20.0755 25.443 19.1615 24.8877 18.3205 24.2205C16.6406 22.888 15.6476 21.1068 15.0276 19.0815C15.0036 19.001 14.9586 18.9141 15.0176 18.838C15.0756 18.7632 15.1546 18.8105 15.2196 18.8387C16.5155 19.3992 17.8735 19.8075 19.1265 20.4729C20.0565 20.9674 20.9135 21.5561 21.5374 22.4355C22.1114 23.2439 22.3504 24.1534 22.3124 25.1376C22.2984 25.4909 22.6004 25.4635 22.8154 25.5785C22.6504 25.0002 22.4954 24.4193 22.3204 23.8447C21.7104 21.8392 20.9555 19.89 20.0695 17.9931C19.9575 17.7541 19.8015 17.6288 19.5525 17.508C19.0935 17.2875 18.6895 17.3316 18.2265 17.4531C16.9175 17.7956 15.6986 17.4365 14.5416 16.8382C13.1226 16.104 12.0966 14.9459 11.2657 13.5968C11.1777 13.4543 11.0247 13.2255 11.3867 13.2587C12.8716 13.3967 14.3786 13.2983 15.8366 13.7054C16.8315 13.9834 17.7225 14.4283 18.3745 15.2757C18.7055 15.7058 18.9055 16.1896 19.0005 16.7213C19.0195 16.8274 19.0215 16.9424 19.1295 16.9961C19.2595 17.0607 19.4235 17.1917 19.5335 17.1054C19.6655 17.0019 19.5025 16.8574 19.4455 16.7475C18.4615 14.8501 17.3445 13.0382 16.0656 11.328C15.9246 11.1401 15.7636 11.0967 15.5456 11.0443C15.0766 10.9324 14.7106 11.1114 14.2986 11.2827C12.4996 12.031 10.7737 11.7555 9.12672 10.795C8.32473 10.3272 7.65674 9.69639 7.07976 8.96463C6.92176 8.76459 6.92576 8.6553 7.19775 8.62079C8.56172 8.44952 9.90569 8.05392 11.2957 8.15041C12.6266 8.24244 13.8026 8.68981 14.6206 9.83571C14.7516 10.0185 14.8436 10.2205 14.9296 10.4269C14.9666 10.5157 14.9976 10.6052 15.1006 10.6423C15.2206 10.6857 15.3776 10.7567 15.4596 10.6704C15.5686 10.5554 15.3946 10.4729 15.3316 10.3962C14.1736 8.9723 12.9516 7.60975 11.5367 6.43636C11.4297 6.34752 11.3297 6.26955 11.1777 6.26252C8.96671 6.15261 7.32975 5.02971 6.06778 3.27092C5.44479 2.40303 5.0128 1.4348 4.7128 0.407132C4.6778 0.287621 4.59281 0.137434 4.67481 0.0441257C4.77281 -0.0677161 4.9058 0.0632985 5.0138 0.105479C6.02378 0.50044 7.06675 0.808484 8.05373 1.26607C9.3977 1.88983 10.5287 2.75389 11.2187 4.11836C11.4797 4.63347 11.5837 5.18118 11.5437 5.75508C11.5297 5.95832 11.6057 6.08997 11.7546 6.21843C12.7126 7.03903 13.5726 7.95869 14.4196 8.89177C15.2426 9.79929 16.0176 10.7471 16.7945 11.783C16.7855 11.399 16.7225 11.1274 16.4975 10.8832C15.1296 9.40177 14.3316 7.63722 13.9686 5.65411C13.7406 4.40467 13.6376 3.14885 13.7226 1.88153C13.7486 1.4904 13.8026 1.09928 13.8686 0.71262C13.9236 0.391793 14.0066 0.372621 14.2486 0.585439C15.0846 1.31848 15.7486 2.19021 16.3165 3.14502C17.0995 4.46155 17.6865 5.8535 17.8945 7.38414C18.0415 8.46294 18.0665 9.56409 17.4635 10.5049C17.1355 11.0162 17.0185 11.4603 17.1595 12.0271C17.2055 12.2138 17.2335 12.3914 17.3475 12.5538C18.7875 14.5944 20.0315 16.7513 21.0694 19.0278C21.1034 19.1026 21.1434 19.1736 21.1984 19.2796C21.3044 18.994 21.1834 18.7933 21.0734 18.5945C20.4125 17.393 19.9625 16.1154 19.7645 14.7561C19.4095 12.3109 19.6315 9.94244 20.7494 7.70496C20.7994 7.60527 20.8134 7.44549 20.9434 7.4391C21.0854 7.43207 21.1324 7.59121 21.1964 7.69474C21.8704 8.77993 22.2644 9.97567 22.5694 11.2092C22.9314 12.6797 23.1864 14.163 23.1124 15.6854C23.0584 16.7724 22.8084 17.8116 22.0424 18.6118C21.6934 18.9773 21.6554 19.3333 21.6414 19.7909C21.6184 20.4901 21.9434 21.0633 22.1644 21.6749C22.8394 23.545 23.3924 25.4494 23.8024 27.3961C23.8194 27.4773 23.8454 27.5566 23.8754 27.6671C23.9924 27.3782 23.9784 27.1252 23.9084 26.8612C23.5354 25.4481 23.2874 24.0128 23.3384 22.5473C23.4204 20.1539 24.1984 18.0129 25.7363 16.1723C26.0843 15.7557 26.1023 15.7557 26.2763 16.2937C26.6153 17.3495 26.8013 18.4322 26.8543 19.5442C26.8973 20.4588 26.9193 21.3713 26.8463 22.284C26.7433 23.5603 26.5843 24.8219 25.9174 25.9543C25.5874 26.5161 25.1534 26.9679 24.5744 27.2651C24.4144 27.3469 24.3494 27.462 24.3154 27.632C24.2514 27.9528 24.2204 28.2819 24.0854 28.5881C24.0244 28.7274 24.0754 28.8795 24.0994 29.0271C24.2934 30.1909 24.4194 31.3617 24.5164 32.5377C24.6264 33.8632 24.6964 35.188 24.7014 36.5179C24.7014 36.5454 24.7174 36.5735 24.7324 36.6202C24.8874 36.4745 24.9174 36.309 24.9004 36.123C24.6004 32.9109 25.4163 30.0356 27.4543 27.5342C27.9913 26.8746 28.6153 26.3033 29.3033 25.8041C29.5693 25.6105 29.6343 25.6296 29.6773 25.9549C29.7623 26.5992 29.7913 27.2491 29.7393 27.8966C29.6413 29.1268 29.4623 30.3455 29.1163 31.5317C28.7323 32.8521 28.2843 34.1457 27.4123 35.2384C26.8883 35.8961 26.2473 36.3716 25.4054 36.5256C25.3234 36.541 25.2164 36.5301 25.1824 36.6196C25.0204 37.0522 24.7114 37.4389 24.7024 37.9189C24.6624 40.1761 24.4674 42.4156 24.0214 44.63C23.9964 44.7527 23.9974 44.8805 24.0404 45.0166C24.1664 44.5839 24.2764 44.1449 24.4224 43.7192C25.4403 40.7539 27.3853 38.6475 30.2172 37.3718C30.4652 37.26 30.7192 37.1558 30.9992 37.1545C31.0002 37.453 31.0002 37.7508 31.0002 38.0486Z" fill="white"/>
</g>
<defs>
<clipPath id="clip0_25_622">
<rect width="31" height="71" fill="white"/>
</clipPath>
</defs>
</svg>
