<svg width="40" height="40" viewBox="0 0 40 40" fill="none" xmlns="http://www.w3.org/2000/svg">
<path d="M22.5001 23.3333C22.5001 23.7933 22.1267 24.1666 21.6667 24.1666H11.6667C11.2067 24.1666 10.8334 23.7933 10.8334 23.3333C10.8334 22.8733 11.2067 22.5 11.6667 22.5H21.6667C22.1267 22.5 22.5001 22.8733 22.5001 23.3333ZM16.6667 27.5H11.6667C11.2067 27.5 10.8334 27.8733 10.8334 28.3333C10.8334 28.7933 11.2067 29.1666 11.6667 29.1666H16.6667C17.1267 29.1666 17.5001 28.7933 17.5001 28.3333C17.5001 27.8733 17.1267 27.5 16.6667 27.5ZM35.8334 19.1666V31.6666C35.8334 33.9633 33.9634 35.8333 31.6667 35.8333H10.0001C6.18341 35.8333 4.16675 33.8166 4.16675 30V9.99996C4.16675 6.18329 6.18341 4.16663 10.0001 4.16663H23.3334C27.1501 4.16663 29.1667 6.18329 29.1667 9.99996V15.8333H32.5001C34.3384 15.8333 35.8334 17.3283 35.8334 19.1666ZM28.335 34.1666C27.8117 33.47 27.5001 32.6033 27.5001 31.6666V9.99996C27.5001 7.11829 26.2151 5.83329 23.3334 5.83329H10.0001C7.11841 5.83329 5.83341 7.11829 5.83341 9.99996V30C5.83341 32.8816 7.11841 34.1666 10.0001 34.1666H28.335ZM34.1667 19.1666C34.1667 18.2483 33.4184 17.5 32.5001 17.5H29.1667V31.6666C29.1667 33.045 30.2884 34.1666 31.6667 34.1666C33.0451 34.1666 34.1667 33.045 34.1667 31.6666V19.1666ZM12.8251 14.7733L14.3751 15.1717C14.8134 15.2867 15.1184 15.7016 15.1184 16.1816C15.1184 16.4616 15.0134 16.7267 14.8234 16.925C14.6384 17.1167 14.3984 17.2216 14.1467 17.2216H13.4718C12.9784 17.2216 12.5634 16.825 12.5051 16.2984C12.4551 15.84 12.0385 15.5117 11.5868 15.5601C11.1285 15.6101 10.7984 16.0199 10.8484 16.4782C10.9784 17.6716 11.8468 18.6083 12.9551 18.835V19.1666C12.9551 19.6266 13.3284 20 13.7884 20C14.2484 20 14.6218 19.6266 14.6218 19.1666V18.8417C15.1484 18.7434 15.6351 18.4849 16.0234 18.0833C16.5151 17.5716 16.7868 16.8966 16.7868 16.1832C16.7868 14.9466 15.9701 13.8683 14.7967 13.5599L13.2451 13.16C13.0335 13.105 12.8501 12.98 12.7118 12.795C12.5768 12.6166 12.5017 12.3884 12.5017 12.15C12.5017 11.5767 12.9384 11.11 13.4734 11.11H14.1484C14.6418 11.11 15.0567 11.5066 15.115 12.0332C15.165 12.4899 15.5801 12.8182 16.0334 12.7716C16.4917 12.7216 16.8217 12.3117 16.7717 11.8534C16.6401 10.6434 15.7517 9.69828 14.6234 9.48828V9.165C14.6234 8.705 14.2501 8.33167 13.7901 8.33167C13.3301 8.33167 12.9567 8.705 12.9567 9.165V9.49662C11.7484 9.74329 10.835 10.8382 10.835 12.1482C10.835 12.7482 11.03 13.3367 11.3817 13.7984C11.7384 14.2784 12.2518 14.6233 12.8251 14.7733Z" fill="white"/>
</svg>
