<svg width="40" height="40" viewBox="0 0 40 40" fill="none" xmlns="http://www.w3.org/2000/svg">
<path d="M20.8333 30.8099V34.1667H26.6666C27.1266 34.1667 27.4999 34.54 27.4999 35C27.4999 35.46 27.1266 35.8333 26.6666 35.8333H13.3333C12.8733 35.8333 12.4999 35.46 12.4999 35C12.4999 34.54 12.8733 34.1667 13.3333 34.1667H19.1666V30.7766C15.7516 30.5116 12.5601 29.1383 10.0117 26.8166L7.25661 29.5717C6.93161 29.8967 6.40322 29.8967 6.07822 29.5717C5.75322 29.2467 5.75322 28.7184 6.07822 28.3934L9.41156 25.06C9.56822 24.9034 9.7799 24.8167 10.0016 24.8167C10.1866 24.795 10.4365 24.9049 10.5932 25.0633C13.2049 27.7083 16.6832 29.165 20.3849 29.165C27.9849 29.165 34.1682 22.99 34.1682 15.3984C34.1682 11.7034 32.7101 8.21838 30.0634 5.58838C29.7384 5.26505 29.7347 4.73666 30.0597 4.41C30.3847 4.085 30.9131 4.08174 31.2381 4.40674C34.2015 7.35174 35.8349 11.255 35.8349 15.3984C35.8332 23.7584 29.1433 30.5699 20.8333 30.8099ZM9.99993 15.4167C9.99993 9.90167 14.4849 5.41667 19.9999 5.41667C25.5149 5.41667 29.9999 9.90167 29.9999 15.4167C29.9999 20.9317 25.5149 25.4167 19.9999 25.4167C14.4849 25.4167 9.99993 20.9317 9.99993 15.4167ZM11.6666 15.4167C11.6666 20.0117 15.4049 23.75 19.9999 23.75C24.5949 23.75 28.3333 20.0117 28.3333 15.4167C28.3333 10.8217 24.5949 7.08334 19.9999 7.08334C15.4049 7.08334 11.6666 10.8217 11.6666 15.4167Z" fill="white"/>
</svg>
