<svg width="40" height="40" viewBox="0 0 40 40" fill="none" xmlns="http://www.w3.org/2000/svg">
<path d="M37.4365 21.2567C37.4665 20.84 37.4999 20.4233 37.4999 20C37.4999 13.8983 34.3566 8.52335 29.6083 5.39001C29.5799 5.37168 29.5532 5.35334 29.5232 5.33834C27.8066 4.21834 25.8833 3.39502 23.8216 2.93335C23.79 2.92168 23.7566 2.91666 23.7233 2.90833C22.5216 2.64666 21.2766 2.5 19.9983 2.5C10.3483 2.5 2.49829 10.35 2.49829 20C2.49829 29.65 10.3483 37.5 19.9983 37.5C21.3416 37.5 22.6449 37.3333 23.9016 37.0467C24.0133 37.0417 24.1166 37.0116 24.2149 36.965C31.3999 35.1766 36.8366 28.9533 37.4299 21.3717C37.4316 21.3333 37.4399 21.295 37.4365 21.2567ZM35.8333 20C35.8333 20.1717 35.8132 20.3366 35.8082 20.5066C34.9999 20.6116 34.1499 21.0233 33.5633 21.6867C33.4716 21.79 33.4133 21.8183 33.4016 21.82C33.3766 21.82 32.7116 21.775 31.1966 18.9817C30.0599 16.885 30.555 15.8167 31.1833 14.4633C31.3866 14.0233 31.59 13.5817 31.7383 13.12C32.08 12.1083 31.8099 10.4883 31.3449 8.97832C34.1166 11.8317 35.8333 15.7167 35.8333 20ZM4.16659 20C4.16659 18.55 4.37829 17.15 4.74662 15.815C5.78329 21.0834 9.53321 22.99 11.5165 23.99C11.9532 24.21 12.4749 24.4584 12.5532 24.4784C12.7049 25.1284 12.6882 25.49 12.6566 26.15C12.6316 26.6867 12.6 27.3533 12.65 28.3934C12.7383 30.2134 14.2266 30.99 15.4233 31.615C16.205 32.0233 16.945 32.41 17.355 33.0167C17.6333 33.415 17.8349 34.5516 17.6616 35.6433C10.0382 34.505 4.16659 27.9333 4.16659 20ZM19.3199 35.7983C19.5182 34.41 19.3033 32.8917 18.7266 32.07C18.0866 31.125 17.0816 30.6 16.1933 30.1367C15.0183 29.5233 14.3533 29.1367 14.3133 28.3117C14.2666 27.3467 14.2966 26.725 14.3199 26.2267C14.3532 25.5267 14.3783 24.9734 14.1749 24.0984C14.0066 23.38 13.2766 23.0117 12.2666 22.5017C9.89323 21.305 5.94823 19.305 6.14657 12.3483C8.84823 7.47499 14.0433 4.16499 19.9999 4.16499C20.8816 4.16499 21.7399 4.25499 22.5832 4.39499C22.3382 5.08666 21.6749 5.66834 21.0149 5.88501C17.8533 6.92168 17.8199 9.69169 17.7965 11.7134C17.7749 13.515 17.67 14.0583 17.0166 14.1933C16.7866 14.23 16.0532 13.8367 15.6599 13.6217C14.8349 13.1733 13.9766 12.7083 13.175 12.9033C12.515 13.0583 11.6733 13.7017 11.4133 14.585C11.285 15.0183 11.1982 15.88 12.0499 16.7617C12.7549 17.4917 12.7866 17.84 12.8383 18.37C12.8733 18.735 12.9166 19.1867 13.1599 19.7467C13.9916 21.5817 16.3899 21.53 18.1349 21.3317C19.9632 21.105 20.5166 21.0334 21.6233 22.1867C22.0533 22.635 22.2899 23.1717 22.5399 23.7384C22.9649 24.7067 23.4966 25.9133 25.1399 26.1033C26.5366 26.2766 27.7033 26.7416 28.1116 27.2883C28.2483 27.47 28.2916 27.65 28.2533 27.8683C28.1416 28.53 27.4383 29.1983 26.6216 29.9733C25.2866 31.2417 23.6632 32.8134 23.1482 35.5134C22.1299 35.72 21.0782 35.83 20.0015 35.83C19.7699 35.8333 19.5466 35.8083 19.3199 35.7983ZM24.9916 35.015C25.5566 33.3083 26.7133 32.1883 27.7683 31.185C28.7566 30.245 29.6916 29.3583 29.8949 28.1483C30.0066 27.4817 29.8516 26.84 29.4449 26.295C28.4549 24.9667 26.2466 24.5633 25.3366 24.4516C24.6883 24.3766 24.4949 24.0533 24.0632 23.0716C23.7799 22.4283 23.4599 21.6983 22.8232 21.035C21.1365 19.28 19.8582 19.44 17.9349 19.68C16.0532 19.895 14.9582 19.6867 14.6799 19.0717C14.5466 18.7667 14.5233 18.5233 14.495 18.215C14.4333 17.565 14.3566 16.755 13.2466 15.6067C12.9416 15.2917 12.9916 15.1167 13.0082 15.0583C13.0849 14.7917 13.425 14.5583 13.5533 14.5267C13.77 14.5017 14.4566 14.865 14.8616 15.0867C15.6816 15.5333 16.5216 15.9967 17.3516 15.8267C19.4183 15.4 19.4432 13.3667 19.4632 11.7333C19.4899 9.49335 19.6416 8.08831 21.535 7.46831C22.6866 7.09165 23.8399 6.06998 24.2183 4.75332C25.7749 5.18498 27.2349 5.84335 28.5599 6.69835C29.3999 7.93335 30.5432 11.4467 30.1566 12.595C30.0249 13.0017 29.8466 13.3817 29.6699 13.76C28.9783 15.2517 28.1933 16.9417 29.7299 19.775C31.0683 22.2416 32.1066 23.35 33.2032 23.475C33.2649 23.4817 33.3299 23.4867 33.3999 23.4867C33.7999 23.4867 34.3182 23.3466 34.8099 22.7916C35.0616 22.5066 35.3733 22.3283 35.6583 22.2267C34.8066 28.225 30.5982 33.145 24.9916 35.015Z" fill="white"/>
</svg>
