<svg width="40" height="40" viewBox="0 0 40 40" fill="none" xmlns="http://www.w3.org/2000/svg">
<path d="M31.9635 20.0001C33.1185 18.2467 34.0651 16.4951 34.7284 14.8101C36.3267 10.7551 36.1885 7.50511 34.3419 5.65845C32.4985 3.81344 29.2452 3.67335 25.1919 5.27169C23.5069 5.93502 21.7552 6.88178 20.0018 8.03678C18.2485 6.88178 16.4968 5.93502 14.8118 5.27169C10.7585 3.67335 7.50517 3.81344 5.66184 5.65845C3.81517 7.50345 3.67695 10.7551 5.27528 14.8101C5.93861 16.4951 6.88517 18.2467 8.04017 20.0001C6.88517 21.7534 5.93861 23.5051 5.27528 25.1901C3.67861 29.2451 3.81517 32.495 5.66184 34.3417C6.65517 35.335 8.05535 35.835 9.76869 35.835C11.2387 35.835 12.9402 35.4668 14.8118 34.7285C16.4968 34.0651 18.2485 33.1184 20.0018 31.9634C21.7552 33.1184 23.5069 34.0651 25.1919 34.7285C27.0652 35.4668 28.7671 35.835 30.2354 35.835C31.9487 35.835 33.3485 35.3367 34.3419 34.3417C36.1885 32.495 36.3251 29.2451 34.7284 25.1901C34.0651 23.5051 33.1185 21.7534 31.9635 20.0001ZM25.8002 6.82178C27.4685 6.16511 28.9703 5.83667 30.2236 5.83667C31.4869 5.83667 32.4935 6.17012 33.1618 6.83846C34.4918 8.16679 34.4969 10.8501 33.1769 14.2001C32.6236 15.6051 31.8652 17.0617 30.9402 18.5283C29.6718 16.7917 28.2084 15.0701 26.5684 13.4301C24.9301 11.7917 23.2086 10.3285 21.472 9.05851C22.9403 8.13351 24.3969 7.37511 25.8002 6.82178ZM14.6104 14.6084C16.3454 12.8718 18.1702 11.3367 20.0002 10.045C21.8302 11.3367 23.655 12.8734 25.39 14.6084C27.1267 16.3451 28.6634 18.1684 29.955 20.0001C28.6634 21.8301 27.1267 23.6551 25.39 25.3917C23.655 27.1267 21.8302 28.6635 20.0002 29.9551C18.1702 28.6635 16.3454 27.1267 14.6104 25.3917C12.8737 23.6551 11.337 21.8317 10.0454 20.0001C11.337 18.1701 12.8737 16.3451 14.6104 14.6084ZM6.82354 14.2001C5.50354 10.8501 5.50859 8.16679 6.83859 6.83846C7.50526 6.17179 8.51349 5.83667 9.77683 5.83667C11.0302 5.83667 12.5319 6.16511 14.2002 6.82178C15.6052 7.37511 17.0618 8.13351 18.5285 9.05851C16.7918 10.3268 15.072 11.7901 13.432 13.4301C11.792 15.0701 10.3286 16.79 9.06027 18.5283C8.13361 17.06 7.3752 15.6034 6.82354 14.2001ZM14.2002 33.1784C10.8486 34.4984 8.16859 34.4917 6.83859 33.1633C5.50859 31.835 5.50354 29.15 6.82354 25.8017C7.37687 24.3967 8.13527 22.9401 9.06027 21.4735C10.3286 23.2101 11.792 24.9317 13.432 26.5717C15.0704 28.2101 16.7918 29.6733 18.5285 30.9417C17.0601 31.8666 15.6036 32.6251 14.2002 33.1784ZM33.1618 33.1633C31.8318 34.49 29.1518 34.4967 25.8002 33.1784C24.3952 32.6251 22.9386 31.8667 21.472 30.94C23.2086 29.6717 24.9284 28.2084 26.5684 26.5701C28.2084 24.9301 29.6718 23.2102 30.9402 21.4718C31.8652 22.9385 32.6236 24.3967 33.1769 25.8C34.4969 29.15 34.4918 31.835 33.1618 33.1633ZM18.3335 20.0001C18.3335 19.0784 19.0587 18.3334 19.9754 18.3334H20.0084C20.925 18.3334 21.6669 19.0784 21.6669 20.0001C21.6669 20.9217 20.925 21.6667 20.0084 21.6667C19.095 21.6667 18.3335 20.9217 18.3335 20.0001Z" fill="white"/>
</svg>
