<svg width="40" height="40" viewBox="0 0 40 40" fill="none" xmlns="http://www.w3.org/2000/svg">
<path d="M18.3333 28.3333C18.3333 28.7933 17.96 29.1666 17.5 29.1666H8.33333C4.51667 29.1666 2.5 27.15 2.5 23.3333V9.99996C2.5 6.18329 4.51667 4.16663 8.33333 4.16663H28.3333C32.15 4.16663 34.1667 6.18329 34.1667 9.99996C34.1667 10.46 33.7933 10.8333 33.3333 10.8333C32.8733 10.8333 32.5 10.46 32.5 9.99996C32.5 7.11829 31.215 5.83329 28.3333 5.83329H8.33333C5.45167 5.83329 4.16667 7.11829 4.16667 9.99996V23.3333C4.16667 26.215 5.45167 27.5 8.33333 27.5H17.5C17.96 27.5 18.3333 27.8733 18.3333 28.3333ZM20 12.5H10C9.54 12.5 9.16667 12.8733 9.16667 13.3333C9.16667 13.7933 9.54 14.1666 10 14.1666H20C20.46 14.1666 20.8333 13.7933 20.8333 13.3333C20.8333 12.8733 20.46 12.5 20 12.5ZM15 20.8333C15.46 20.8333 15.8333 20.46 15.8333 20C15.8333 19.54 15.46 19.1666 15 19.1666H10C9.54 19.1666 9.16667 19.54 9.16667 20C9.16667 20.46 9.54 20.8333 10 20.8333H15ZM36.5515 24.5133L36.1967 24.8683C36.1284 24.9367 36.0901 25.0316 36.0901 25.13V25.6282C36.0901 26.9899 35.2432 28.1532 34.0515 28.6315L35.8016 34.7733C35.8899 35.08 35.7949 35.4084 35.5583 35.6217C35.4016 35.7617 35.2017 35.8349 35 35.8349C34.8967 35.8349 34.7899 35.8149 34.6899 35.7749L31.6117 34.5416C30.2134 33.9849 28.6734 33.9866 27.2717 34.5416L24.1968 35.7749C23.9018 35.8949 23.5668 35.8334 23.3284 35.6217C23.0918 35.4084 22.9985 35.08 23.0851 34.7733L24.8368 28.6315C23.6452 28.1532 22.7999 26.9899 22.7999 25.6282V25.13C22.7999 25.0316 22.7616 24.94 22.6933 24.87L22.3368 24.5149C21.0735 23.2533 21.0735 21.1982 22.3368 19.9332L22.6917 19.5782C22.7617 19.5082 22.7999 19.4149 22.7999 19.3166V18.8183C22.7999 17.0317 24.2534 15.5784 26.0384 15.5784H26.5369C26.6369 15.5784 26.7285 15.5399 26.7985 15.4699L27.1517 15.1165C28.375 13.8915 30.5101 13.8915 31.7334 15.1165L32.0882 15.4699C32.1582 15.5416 32.2515 15.5784 32.3499 15.5784H32.8483C34.6333 15.5784 36.0868 17.0317 36.0868 18.8183V19.3166C36.0868 19.4149 36.1267 19.51 36.1951 19.5817L36.5483 19.9316C37.8133 21.1949 37.8132 23.25 36.5515 24.5133ZM33.7317 33.5949L32.3848 28.8665H32.3515C32.2515 28.8665 32.1598 28.905 32.0915 28.9733L31.735 29.3284C31.1234 29.94 30.3117 30.2767 29.445 30.2767C28.5783 30.2767 27.765 29.94 27.1533 29.3284L26.8001 28.9733C26.7301 28.905 26.6368 28.8665 26.5385 28.8665H26.5035L25.1567 33.5949L26.6565 32.9933C28.4532 32.275 30.4352 32.2767 32.2319 32.9933L33.7317 33.5949ZM35.3735 21.11L35.0183 20.7566C34.635 20.3683 34.4234 19.8566 34.4234 19.3149V18.8167C34.4234 17.9484 33.7182 17.2432 32.8516 17.2432H32.3535C31.8068 17.2432 31.2935 17.0317 30.9119 16.6451L30.5583 16.2949C29.9633 15.6999 28.9283 15.6999 28.3333 16.2949L27.9801 16.6483C27.5968 17.0333 27.0835 17.245 26.5401 17.245H26.0417C25.1733 17.245 24.4698 17.95 24.4698 18.8183V19.3166C24.4698 19.8599 24.2583 20.3716 23.8733 20.7566L23.5185 21.1116C22.9068 21.7249 22.9051 22.7216 23.5185 23.3349L23.8733 23.6899C24.2566 24.0733 24.4698 24.585 24.4698 25.13V25.6282C24.4698 26.4965 25.175 27.2017 26.0417 27.2017H26.5401C27.0835 27.2017 27.5952 27.4133 27.9785 27.7966L28.3333 28.1516C28.9283 28.7433 29.9633 28.7449 30.5583 28.1516L30.9135 27.7966C31.2952 27.4133 31.8085 27.2017 32.3535 27.2017H32.8516C33.7199 27.2017 34.4234 26.4965 34.4234 25.6282V25.13C34.4234 24.595 34.64 24.0699 35.0167 23.6916L35.3735 23.3365C35.9869 22.7215 35.9852 21.7233 35.3735 21.11ZM33.055 22.2216C33.055 24.2133 31.435 25.8333 29.445 25.8333C27.4533 25.8333 25.8333 24.2133 25.8333 22.2216C25.8333 20.23 27.4533 18.61 29.445 18.61C31.435 18.6117 33.055 20.2316 33.055 22.2216ZM31.3883 22.2216C31.3883 21.1483 30.5167 20.2767 29.445 20.2767C28.3717 20.2767 27.5 21.1483 27.5 22.2216C27.5 23.2933 28.3717 24.1666 29.445 24.1666C30.5167 24.1666 31.3883 23.295 31.3883 22.2216Z" fill="white"/>
</svg>
