<svg width="40" height="40" viewBox="0 0 40 40" fill="none" xmlns="http://www.w3.org/2000/svg">
<path d="M29.0499 2.5H17.6184C14.3201 2.5 12.5016 4.31658 12.5016 7.61658V9.16667H10.9534C7.65337 9.16667 5.83496 10.9851 5.83496 14.2851V36.6667C5.83496 36.9633 5.99333 37.2383 6.25 37.3883C6.37833 37.4633 6.52329 37.5 6.66829 37.5C6.81163 37.5 6.95337 37.4633 7.08171 37.3899L16.6683 31.9116L26.2549 37.3899C26.5116 37.5366 26.8299 37.5366 27.0866 37.3883C27.3433 37.2383 27.5016 36.965 27.5016 36.6667V27.6217L32.9216 30.7251C33.0482 30.7984 33.1916 30.835 33.335 30.835C33.48 30.835 33.6233 30.7983 33.7533 30.7233C34.0099 30.5749 34.1683 30.3 34.1683 30.0016V7.61841C34.1666 4.31674 32.3482 2.5 29.0499 2.5ZM25.8333 35.2299L17.0801 30.2283C16.8234 30.0816 16.5099 30.0816 16.2533 30.2283L7.5 35.2299V14.2851C7.5 11.8967 8.56508 10.8333 10.9517 10.8333H22.38C24.7683 10.8333 25.8317 11.8984 25.8317 14.2851V35.2299H25.8333ZM32.5 28.5632L27.5 25.7001V14.2851C27.5 10.9851 25.6816 9.16667 22.3816 9.16667H14.1667V7.61658C14.1667 5.22991 15.2318 4.16667 17.6168 4.16667H29.0483C31.4349 4.16667 32.4984 5.22991 32.4984 7.61658V28.5632H32.5ZM16.6667 20.5001C18.4133 20.5001 19.8332 19.08 19.8332 17.3334C19.8332 15.5867 18.4117 14.1667 16.6667 14.1667C14.9217 14.1667 13.5002 15.5867 13.5002 17.3334C13.5002 19.08 14.92 20.5001 16.6667 20.5001ZM16.6667 15.8333C17.4933 15.8333 18.1665 16.5067 18.1665 17.3334C18.1665 18.16 17.4933 18.8334 16.6667 18.8334C15.84 18.8334 15.1668 18.16 15.1668 17.3334C15.1668 16.5067 15.84 15.8333 16.6667 15.8333ZM21.7 26.2433V26.6667C21.7 27.1267 21.3267 27.5 20.8667 27.5C20.4067 27.5 20.0334 27.1267 20.0334 26.6667V26.2433C20.0334 25.1633 19.2617 24 17.5667 24H15.7699C14.0732 24 13.3032 25.1633 13.3032 26.2433V26.6667C13.3032 27.1267 12.9299 27.5 12.4699 27.5C12.0099 27.5 11.6366 27.1267 11.6366 26.6667V26.2433C11.6366 24.3 13.0565 22.3334 15.7699 22.3334H17.5667C20.2801 22.3334 21.7 24.3 21.7 26.2433Z" fill="white"/>
</svg>
