<svg width="40" height="40" viewBox="0 0 40 40" fill="none" xmlns="http://www.w3.org/2000/svg">
<path d="M35.3435 16.3199C35.0302 16.0049 34.6117 15.8333 34.1667 15.8333C34.1651 15.8333 34.1652 15.8333 34.1635 15.8333C30.9002 15.84 27.7018 15.9299 24.4601 16.9466C22.4751 17.5699 20.9001 18.9349 20.0001 20.6799C19.1001 18.9349 17.525 17.5699 15.54 16.9466C12.2984 15.9299 9.1 15.8383 5.83667 15.8333C5.835 15.8333 5.83508 15.8333 5.83341 15.8333C5.38841 15.8333 4.96999 16.0066 4.65666 16.3199C4.34166 16.6349 4.16675 17.055 4.16675 17.5V30.8333C4.16675 31.7466 4.90673 32.495 5.81673 32.5C12.8184 32.5316 17.3917 33.57 19.4101 35.5883C19.4867 35.665 19.5783 35.7233 19.675 35.7649C19.6766 35.7649 19.6786 35.7684 19.6803 35.7684H19.6819C19.7836 35.8101 19.8901 35.8317 19.9985 35.8317C20.1068 35.8317 20.215 35.8101 20.315 35.7684H20.3167C20.3183 35.7684 20.3203 35.7649 20.3219 35.7649C20.4186 35.7233 20.5102 35.665 20.5868 35.5883C22.6052 33.57 27.1785 32.5316 34.1818 32.5C35.0901 32.495 35.8302 31.7466 35.8302 30.8333V17.5C35.8335 17.055 35.6602 16.6349 35.3435 16.3199ZM5.83504 17.5C8.96504 17.5066 12.0233 17.5917 15.0416 18.5384C17.5083 19.3117 19.1667 21.5583 19.1667 24.1249V33.3134C15.1634 30.8784 8.28008 30.8482 5.83341 30.8365L5.83504 17.5ZM20.8334 33.3117V24.1233C20.8334 21.5566 22.4902 19.3115 24.9586 18.5365C27.9786 17.5899 31.0367 17.505 34.1667 17.4983L34.1769 30.8333C31.7219 30.845 24.8384 30.8751 20.8334 33.3117ZM20.0001 14.1666C22.7567 14.1666 25.0001 11.9233 25.0001 9.16663C25.0001 6.40996 22.7567 4.16663 20.0001 4.16663C17.2434 4.16663 15.0001 6.40996 15.0001 9.16663C15.0001 11.9233 17.2434 14.1666 20.0001 14.1666ZM20.0001 5.83329C21.8384 5.83329 23.3334 7.32829 23.3334 9.16663C23.3334 11.005 21.8384 12.5 20.0001 12.5C18.1617 12.5 16.6667 11.005 16.6667 9.16663C16.6667 7.32829 18.1617 5.83329 20.0001 5.83329Z" fill="white"/>
</svg>
