<svg width="16" height="16" fill="none" xmlns="http://www.w3.org/2000/svg"><path d="M10.053 2.644c-.136.051-.316.225-2.576 2.486-1.645 1.646-2.445 2.464-2.48 2.537-.071.149-.071.517 0 .666.035.073.835.891 2.48 2.537 2.321 2.322 2.437 2.433 2.584 2.487a.977.977 0 0 0 .272.056.796.796 0 0 0 .668-.414c.073-.147.074-.514.002-.666-.035-.071-.744-.801-2.16-2.22L6.734 8l2.109-2.113c1.416-1.419 2.125-2.149 2.16-2.22.072-.152.071-.519-.002-.666a.788.788 0 0 0-.675-.413.998.998 0 0 0-.273.056" fill-rule="evenodd" fill="#000"/></svg>