<svg width="16" height="16" fill="none" xmlns="http://www.w3.org/2000/svg"><path d="M5.425 2.634a.74.74 0 0 0-.464.468 1.03 1.03 0 0 0 .038.565c.034.073.714.772 2.158 2.22L9.266 8l-2.109 2.113c-1.412 1.416-2.125 2.149-2.159 2.22-.071.149-.072.519-.002.66.119.239.409.42.671.42a.977.977 0 0 0 .272-.056c.147-.054.264-.166 2.584-2.487 1.648-1.649 2.445-2.464 2.48-2.537.071-.149.071-.517 0-.666-.035-.073-.831-.888-2.467-2.526C6.534 3.136 6.098 2.712 5.99 2.665a.788.788 0 0 0-.565-.031" fill-rule="evenodd" fill="#000"/></svg>