<svg width="20" height="20" viewBox="0 0 20 20" fill="none" xmlns="http://www.w3.org/2000/svg">
<g clip-path="url(#clip0_263_22)">
<path d="M5.41669 19.5835C5.87693 19.5835 6.25002 19.2104 6.25002 18.7501C6.25002 18.2899 5.87693 17.9168 5.41669 17.9168C4.95645 17.9168 4.58336 18.2899 4.58336 18.7501C4.58336 19.2104 4.95645 19.5835 5.41669 19.5835Z" fill="white"/>
<path d="M17.0833 19.5835C17.5436 19.5835 17.9167 19.2104 17.9167 18.7501C17.9167 18.2899 17.5436 17.9168 17.0833 17.9168C16.6231 17.9168 16.25 18.2899 16.25 18.7501C16.25 19.2104 16.6231 19.5835 17.0833 19.5835Z" fill="white"/>
<path d="M5.41669 19.5835C5.87693 19.5835 6.25002 19.2104 6.25002 18.7501C6.25002 18.2899 5.87693 17.9168 5.41669 17.9168C4.95645 17.9168 4.58336 18.2899 4.58336 18.7501C4.58336 19.2104 4.95645 19.5835 5.41669 19.5835Z" stroke="white" stroke-linecap="round" stroke-linejoin="round"/>
<path d="M17.0833 19.5835C17.5436 19.5835 17.9167 19.2104 17.9167 18.7501C17.9167 18.2899 17.5436 17.9168 17.0833 17.9168C16.6231 17.9168 16.25 18.2899 16.25 18.7501C16.25 19.2104 16.6231 19.5835 17.0833 19.5835Z" stroke="white" stroke-linecap="round" stroke-linejoin="round"/>
<path d="M4.41667 6.25007H18.75L17.0833 14.5834H5.41667L3.75 2.0834H1.25" stroke="white" stroke-linecap="round" stroke-linejoin="round"/>
</g>
<defs>
<clipPath id="clip0_263_22">
<rect width="20" height="20" fill="white"/>
</clipPath>
</defs>
</svg>
