<svg width="16" height="16" fill="none" xmlns="http://www.w3.org/2000/svg"><path d="M8.594 4.059C5.951 6.703 4.515 8.156 4.48 8.226c-.03.059-.283.911-.563 1.894-.448 1.574-.507 1.805-.498 1.938.02.284.238.503.523.523.134.01.361-.049 1.951-.501 1.01-.287 1.847-.54 1.907-.574.059-.035 1.928-1.884 4.153-4.111L16 3.346v-.692l-1.327-1.327L13.346 0h-.692l-4.06 4.059m5.239-1.892c.444.443.807.818.807.833 0 .014-.255.281-.566.593l-.567.567-.833-.833-.834-.833.566-.567c.312-.312.579-.567.594-.567.014 0 .389.363.833.807M1.307 1.92a1.603 1.603 0 0 0-1.228.864L0 2.942v12.116l.079.158c.148.294.411.557.705.705L.942 16h12.116l.158-.079c.308-.155.565-.419.716-.734.168-.352.161-.229.161-3.134 0-2.506-.002-2.66-.048-2.779-.17-.441-.81-.489-1.051-.08l-.074.126-.013 2.658c-.014 2.633-.014 2.659-.069 2.732a.775.775 0 0 1-.128.128l-.074.055H1.364l-.074-.055a.775.775 0 0 1-.128-.128l-.055-.074V3.364l.055-.074a.775.775 0 0 1 .128-.128c.073-.055.099-.055 2.732-.069L6.68 3.08l.126-.074c.394-.232.37-.82-.042-1.04l-.111-.059-2.586-.004c-1.423-.002-2.665.006-2.76.017m10.526 2.247c.444.443.807.818.807.833 0 .015-1.227 1.253-2.727 2.751l-2.726 2.724-1.142.325c-.629.179-1.149.319-1.156.311-.008-.007.132-.527.311-1.156l.325-1.142 2.724-2.726C9.747 4.587 10.985 3.36 11 3.36c.014 0 .389.363.833.807" fill-rule="evenodd" fill="#000"/></svg>