<svg width="22" height="16" viewBox="0 0 22 16" fill="none" xmlns="http://www.w3.org/2000/svg">
<path d="M2.88788 10.6L7.22078 14.6768C7.28293 14.7354 7.33293 14.8056 7.36793 14.8835C7.40293 14.9613 7.42225 15.0453 7.42479 15.1307C7.42732 15.216 7.41302 15.301 7.3827 15.3809C7.35238 15.4607 7.30664 15.5338 7.24808 15.5959C7.18953 15.658 7.11931 15.708 7.04143 15.743C6.96355 15.778 6.87953 15.7974 6.79419 15.7999C6.70884 15.8024 6.62383 15.7881 6.54401 15.7578C6.46419 15.7275 6.39113 15.6818 6.32898 15.6232L0.803984 10.4232C0.739453 10.3624 0.688033 10.2891 0.652887 10.2077C0.61774 10.1263 0.599609 10.0386 0.599609 9.95C0.599609 9.86135 0.61774 9.77365 0.652887 9.69227C0.688033 9.6109 0.739453 9.53757 0.803984 9.4768L6.32898 4.2768C6.39113 4.21824 6.46419 4.1725 6.54401 4.14218C6.62383 4.11186 6.70884 4.09756 6.79419 4.10009C6.87953 4.10263 6.96355 4.12195 7.04143 4.15695C7.11931 4.19196 7.18953 4.24196 7.24808 4.3041C7.30664 4.36624 7.35238 4.43931 7.3827 4.51912C7.41302 4.59894 7.42732 4.68395 7.42479 4.7693C7.42225 4.85465 7.40293 4.93866 7.36793 5.01654C7.33293 5.09442 7.28293 5.16464 7.22078 5.2232L2.88788 9.3H17.4999C18.1894 9.3 18.8508 9.02607 19.3384 8.53847C19.826 8.05088 20.0999 7.38956 20.0999 6.7V0.849997C20.0999 0.677606 20.1684 0.512276 20.2903 0.390378C20.4122 0.268479 20.5775 0.199997 20.7499 0.199997C20.9223 0.199997 21.0876 0.268479 21.2095 0.390378C21.3314 0.512276 21.3999 0.677606 21.3999 0.849997V6.7C21.3999 7.73434 20.989 8.72632 20.2576 9.45771C19.5262 10.1891 18.5342 10.6 17.4999 10.6H2.88788Z" fill="#1B1B1B"/>
</svg>
