<svg width="17" height="17" viewBox="0 0 17 17" fill="none" xmlns="http://www.w3.org/2000/svg">
<path d="M8.50004 16.2916C12.8032 16.2916 16.2917 12.803 16.2917 8.49992C16.2917 4.19679 12.8032 0.708252 8.50004 0.708252M8.50004 16.2916C4.19692 16.2916 0.708374 12.803 0.708374 8.49992C0.708374 4.19679 4.19692 0.708252 8.50004 0.708252M8.50004 16.2916C10.625 16.2916 11.3334 12.7499 11.3334 8.49992C11.3334 4.24992 10.625 0.708252 8.50004 0.708252M8.50004 16.2916C6.37504 16.2916 5.66671 12.7499 5.66671 8.49992C5.66671 4.24992 6.37504 0.708252 8.50004 0.708252M1.41671 11.3333H15.5834M1.41671 5.66658H15.5834" stroke="#666666"/>
</svg>
