<svg width="25" height="25" viewBox="0 0 25 25" fill="none" xmlns="http://www.w3.org/2000/svg">
<path d="M0 12.5C0 5.59644 5.59644 0 12.5 0C19.4036 0 25 5.59644 25 12.5C25 19.4036 19.4036 25 12.5 25C5.59644 25 0 19.4036 0 12.5Z" fill="white"/>
<path fill-rule="evenodd" clip-rule="evenodd" d="M9.02035 7.72016C9.02035 8.5374 8.40519 9.19133 7.41745 9.19133H7.39935C6.44832 9.19133 5.8335 8.5374 5.8335 7.72016C5.8335 6.88563 6.46704 6.25 7.43612 6.25C8.40519 6.25 9.00197 6.88563 9.02035 7.72016ZM8.83361 10.3531V18.8644H6.00083V10.3531H8.83361ZM19.0499 18.8644L19.05 13.9842C19.05 11.3699 17.6526 10.1532 15.7885 10.1532C14.2844 10.1532 13.6111 10.9793 13.2351 11.5588V10.3533H10.402C10.4393 11.1519 10.402 18.8646 10.402 18.8646H13.2351V14.1112C13.2351 13.8568 13.2535 13.603 13.3284 13.4209C13.5331 12.9127 13.9993 12.3866 14.7819 12.3866C15.8074 12.3866 16.2173 13.1671 16.2173 14.3108V18.8644H19.0499Z" fill="#BE0000"/>
</svg>
