<svg width="22" height="22" viewBox="0 0 22 22" fill="none" xmlns="http://www.w3.org/2000/svg">
<path d="M3 5C4.10457 5 5 4.10457 5 3C5 1.89543 4.10457 1 3 1C1.89543 1 1 1.89543 1 3C1 4.10457 1.89543 5 3 5Z" stroke="#202121" stroke-width="1.5" stroke-miterlimit="10" stroke-linecap="square"/>
<path d="M3 13C4.10457 13 5 12.1046 5 11C5 9.89543 4.10457 9 3 9C1.89543 9 1 9.89543 1 11C1 12.1046 1.89543 13 3 13Z" stroke="#202121" stroke-width="1.5" stroke-miterlimit="10" stroke-linecap="square"/>
<path d="M3 21C4.10457 21 5 20.1046 5 19C5 17.8954 4.10457 17 3 17C1.89543 17 1 17.8954 1 19C1 20.1046 1.89543 21 3 21Z" stroke="#202121" stroke-width="1.5" stroke-miterlimit="10" stroke-linecap="square"/>
<path d="M9 3H21" stroke="#202121" stroke-width="1.5" stroke-miterlimit="10" stroke-linecap="square"/>
<path d="M9 11H21" stroke="#202121" stroke-width="1.5" stroke-miterlimit="10" stroke-linecap="square"/>
<path d="M9 19H21" stroke="#202121" stroke-width="1.5" stroke-miterlimit="10" stroke-linecap="square"/>
</svg>
