<svg width="16" height="18" viewBox="0 0 16 18" fill="none" xmlns="http://www.w3.org/2000/svg">
<path d="M8.01381 9C10.2225 9 12.013 7.20914 12.013 5C12.013 2.79086 10.2225 1 8.01381 1C5.8051 1 4.01459 2.79086 4.01459 5C4.01459 7.20914 5.8051 9 8.01381 9Z" stroke="#E31A23"/>
<path d="M12.013 10.6001H12.2946C12.8793 10.6003 13.4439 10.814 13.8822 11.2011C14.3205 11.5883 14.6024 12.1221 14.6749 12.7025L14.9876 15.2017C15.0158 15.4268 14.9957 15.6554 14.9288 15.8722C14.8618 16.089 14.7496 16.2891 14.5994 16.4591C14.4493 16.6292 14.2647 16.7654 14.0579 16.8587C13.8511 16.9519 13.6268 17.0001 13.3999 17.0001H2.62763C2.40078 17.0001 2.17651 16.9519 1.96971 16.8587C1.76291 16.7654 1.57831 16.6292 1.42816 16.4591C1.27801 16.2891 1.16574 16.089 1.09881 15.8722C1.03187 15.6554 1.0118 15.4268 1.03993 15.2017L1.35187 12.7025C1.42442 12.1219 1.70654 11.5878 2.14519 11.2006C2.58383 10.8134 3.14879 10.5999 3.73381 10.6001H4.01456" stroke="#E31A23" stroke-linecap="round" stroke-linejoin="round"/>
</svg>
