<svg width="27" height="24" viewBox="0 0 27 24" fill="none" xmlns="http://www.w3.org/2000/svg">
<g clip-path="url(#clip0_198_4980)">
<path d="M2.99866 18.832H24.3807C25.2237 18.832 25.9067 18.149 25.9067 17.306V2.03305C25.9067 1.49333 25.6923 0.975721 25.3106 0.594085C24.929 0.212448 24.4114 -0.00195312 23.8717 -0.00195312H3.50766C2.96794 -0.00195312 2.45033 0.212448 2.06869 0.594085C1.68706 0.975721 1.47266 1.49333 1.47266 2.03305V17.307C1.47318 17.7117 1.6341 18.0996 1.92013 18.3859C2.20617 18.6721 2.59401 18.8333 2.99866 18.834V18.832ZM4.02066 2.54805H23.3567V16.284H4.02066V2.54805Z" fill="#BE0F23"/>
<path d="M26.865 19.7695H0.509C0.374086 19.7698 0.244773 19.8235 0.149375 19.9189C0.0539758 20.0143 0.000264279 20.1436 0 20.2785L0 22.1645C0.0682135 22.7083 0.346578 23.2037 0.775509 23.5448C1.20444 23.8859 1.74985 24.0455 2.295 23.9895L2.286 23.9905H25.087C25.6291 24.0447 26.1711 23.8855 26.5977 23.5466C27.0244 23.2077 27.3021 22.7159 27.372 22.1755L27.373 22.1655V20.2795C27.3727 20.1446 27.319 20.0153 27.2236 19.9199C27.1282 19.8245 26.9989 19.7708 26.864 19.7705L26.865 19.7695ZM16.869 22.3895H10.486C10.3507 22.3895 10.221 22.3358 10.1254 22.2402C10.0297 22.1445 9.976 22.0148 9.976 21.8795C9.976 21.7443 10.0297 21.6146 10.1254 21.5189C10.221 21.4233 10.3507 21.3695 10.486 21.3695H10.507H10.506H16.886C17.0213 21.3695 17.151 21.4233 17.2466 21.5189C17.3423 21.6146 17.396 21.7443 17.396 21.8795C17.396 22.0148 17.3423 22.1445 17.2466 22.2402C17.151 22.3358 17.0213 22.3895 16.886 22.3895H16.865H16.866H16.869Z" fill="#BE0F23"/>
</g>
<defs>
<clipPath id="clip0_198_4980">
<rect width="27" height="24" fill="white"/>
</clipPath>
</defs>
</svg>
