<svg width="20" height="20" viewBox="0 0 20 20" fill="none" xmlns="http://www.w3.org/2000/svg">
<path d="M11.9233 12.6592L10.1392 14.4167C9.20885 13.8553 8.34454 13.1911 7.56251 12.4367C6.80953 11.6542 6.14574 10.7906 5.58334 9.86169L7.34167 8.07752C7.44719 7.96964 7.51845 7.83296 7.54647 7.68468C7.5745 7.5364 7.55804 7.38314 7.49917 7.24419L5.66667 2.96669C5.59425 2.79819 5.46369 2.66132 5.2988 2.58101C5.13391 2.50071 4.94565 2.48232 4.76834 2.52919L1.40667 3.41669C1.23837 3.4603 1.08991 3.55989 0.985714 3.69907C0.881516 3.83825 0.827779 4.00875 0.833339 4.18252C1.04743 8.09204 2.67306 11.791 5.40834 14.5925C8.21082 17.3282 11.9111 18.9536 15.8217 19.1667C15.9952 19.1722 16.1655 19.1184 16.3044 19.0142C16.4433 18.9099 16.5426 18.7615 16.5858 18.5934L17.4742 15.23C17.5213 15.0528 17.5031 14.8646 17.4229 14.6996C17.3428 14.5347 17.206 14.4041 17.0375 14.3317L12.7633 12.5C12.6234 12.4398 12.4687 12.4228 12.319 12.4511C12.1693 12.4795 12.0315 12.552 11.9233 12.6592V12.6592Z" stroke="white" stroke-opacity="0.8" stroke-width="1.2" stroke-linecap="round" stroke-linejoin="round"/>
<path d="M11.6667 0.833374C13.6558 0.833374 15.5635 1.62355 16.97 3.03007C18.3765 4.4366 19.1667 6.34425 19.1667 8.33337" stroke="white" stroke-opacity="0.8" stroke-width="1.2" stroke-linecap="round" stroke-linejoin="round"/>
<path d="M11.6667 4.16675C12.7718 4.16675 13.8316 4.60573 14.613 5.38714C15.3944 6.16854 15.8334 7.22835 15.8334 8.33341" stroke="white" stroke-opacity="0.8" stroke-width="1.2" stroke-linecap="round" stroke-linejoin="round"/>
</svg>
