<svg width="46" height="46" viewBox="0 0 46 46" fill="none" xmlns="http://www.w3.org/2000/svg">
<path d="M23 45.4995C35.42 45.4995 45.5 35.4195 45.5 22.9995C45.5 10.5795 35.42 0.499512 23 0.499512C10.58 0.499512 0.5 10.5795 0.5 22.9995C0.5 35.4195 10.58 45.4995 23 45.4995ZM23 4.99951C32.9225 4.99951 41 13.077 41 22.9995C41 32.922 32.9225 40.9995 23 40.9995C13.0775 40.9995 5 32.922 5 22.9995C5 13.077 13.0775 4.99951 23 4.99951ZM18.5 12.8745V33.1245L32 22.9995L18.5 12.8745Z" fill="white"/>
</svg>
