<svg width="39" height="51" viewBox="0 0 39 51" fill="none" xmlns="http://www.w3.org/2000/svg">
<path d="M13.125 32.2479V18.752C13.1249 18.4701 13.1997 18.1931 13.3416 17.9495C13.4836 17.7058 13.6876 17.5042 13.933 17.3651C14.1783 17.2261 14.4561 17.1547 14.7381 17.1581C15.02 17.1615 15.2961 17.2397 15.5379 17.3846L26.7834 24.1325C27.0198 24.274 27.2155 24.4744 27.3513 24.7141C27.4872 24.9537 27.5586 25.2245 27.5586 25.5C27.5586 25.7755 27.4872 26.0462 27.3513 26.2859C27.2155 26.5256 27.0198 26.7259 26.7834 26.8674L15.5379 33.6154C15.2958 33.7604 15.0195 33.8386 14.7373 33.8419C14.455 33.8452 14.177 33.7734 13.9316 33.634C13.6862 33.4946 13.4822 33.2925 13.3404 33.0484C13.1987 32.8043 13.1244 32.527 13.125 32.2447V32.2479Z" fill="white"/>
<path d="M6.75 0C5.05924 0 3.43774 0.67165 2.24219 1.86719C1.04665 3.06274 0.375 4.68424 0.375 6.375V44.625C0.375 46.3158 1.04665 47.9373 2.24219 49.1328C3.43774 50.3284 5.05924 51 6.75 51H32.25C33.9408 51 35.5623 50.3284 36.7578 49.1328C37.9534 47.9373 38.625 46.3158 38.625 44.625V6.375C38.625 4.68424 37.9534 3.06274 36.7578 1.86719C35.5623 0.67165 33.9408 0 32.25 0L6.75 0ZM6.75 3.1875H32.25C33.0954 3.1875 33.9061 3.52332 34.5039 4.1211C35.1017 4.71887 35.4375 5.52962 35.4375 6.375V44.625C35.4375 45.4704 35.1017 46.2811 34.5039 46.8789C33.9061 47.4767 33.0954 47.8125 32.25 47.8125H6.75C5.90462 47.8125 5.09387 47.4767 4.4961 46.8789C3.89832 46.2811 3.5625 45.4704 3.5625 44.625V6.375C3.5625 5.52962 3.89832 4.71887 4.4961 4.1211C5.09387 3.52332 5.90462 3.1875 6.75 3.1875Z" fill="white"/>
</svg>
