<svg width="25" height="25" viewBox="0 0 25 25" fill="none" xmlns="http://www.w3.org/2000/svg">
<path d="M0 12.5C0 5.59644 5.59644 0 12.5 0C19.4036 0 25 5.59644 25 12.5C25 19.4036 19.4036 25 12.5 25C5.59644 25 0 19.4036 0 12.5Z" fill="white"/>
<path d="M18.8879 9.41346C18.7346 8.82439 18.2828 8.36053 17.7091 8.2031C16.6694 7.91699 12.4999 7.91699 12.4999 7.91699C12.4999 7.91699 8.33045 7.91699 7.29068 8.2031C6.71696 8.36053 6.26515 8.82439 6.11181 9.41346C5.83325 10.4811 5.83325 12.7087 5.83325 12.7087C5.83325 12.7087 5.83325 14.9362 6.11181 16.0039C6.26515 16.5929 6.71696 17.0568 7.29068 17.2143C8.33045 17.5003 12.4999 17.5003 12.4999 17.5003C12.4999 17.5003 16.6694 17.5003 17.7091 17.2143C18.2828 17.0568 18.7346 16.5929 18.8879 16.0039C19.1666 14.9362 19.1666 12.7087 19.1666 12.7087C19.1666 12.7087 19.1666 10.4811 18.8879 9.41346Z" fill="#BE0000"/>
<path d="M11.25 14.9997V10.833L14.5833 12.9164L11.25 14.9997Z" fill="white"/>
</svg>
